%TF.GenerationSoftware,KiCad,Pcbnew,8.0.5*%
%TF.CreationDate,2024-10-10T20:33:13-07:00*%
%TF.ProjectId,IEEE soldering project,49454545-2073-46f6-9c64-6572696e6720,rev?*%
%TF.SameCoordinates,Original*%
%TF.FileFunction,Copper,L1,Top*%
%TF.FilePolarity,Positive*%
%FSLAX46Y46*%
G04 Gerber Fmt 4.6, Leading zero omitted, Abs format (unit mm)*
G04 Created by KiCad (PCBNEW 8.0.5) date 2024-10-10 20:33:13*
%MOMM*%
%LPD*%
G01*
G04 APERTURE LIST*
%TA.AperFunction,ComponentPad*%
%ADD10C,1.500000*%
%TD*%
%TA.AperFunction,ComponentPad*%
%ADD11R,1.500000X1.500000*%
%TD*%
%TA.AperFunction,ComponentPad*%
%ADD12R,1.400000X1.800000*%
%TD*%
%TA.AperFunction,ComponentPad*%
%ADD13O,1.400000X1.800000*%
%TD*%
%TA.AperFunction,ComponentPad*%
%ADD14C,1.600000*%
%TD*%
%TA.AperFunction,ComponentPad*%
%ADD15O,1.600000X1.600000*%
%TD*%
%TA.AperFunction,ComponentPad*%
%ADD16R,1.600000X1.600000*%
%TD*%
%TA.AperFunction,ComponentPad*%
%ADD17R,2.100000X2.100000*%
%TD*%
%TA.AperFunction,ComponentPad*%
%ADD18C,2.100000*%
%TD*%
%TA.AperFunction,ViaPad*%
%ADD19C,0.600000*%
%TD*%
%TA.AperFunction,Conductor*%
%ADD20C,0.200000*%
%TD*%
G04 APERTURE END LIST*
D10*
%TO.P,Q2,3,E*%
%TO.N,P\u002CE*%
X156040000Y-62000000D03*
%TO.P,Q2,2,B*%
%TO.N,Net-(Q2-B)*%
X153500000Y-62000000D03*
D11*
%TO.P,Q2,1,C*%
%TO.N,Net-(LED1-K)*%
X150960000Y-62000000D03*
%TD*%
D12*
%TO.P,LED2,1,K*%
%TO.N,Net-(LED2-K)*%
X137000000Y-27500000D03*
D13*
%TO.P,LED2,2,A*%
%TO.N,Net-(3VBattery1-+)*%
X134460000Y-27500000D03*
%TD*%
D12*
%TO.P,LED1,1,K*%
%TO.N,Net-(LED1-K)*%
X137000000Y-63500000D03*
D13*
%TO.P,LED1,2,A*%
%TO.N,Net-(3VBattery1-+)*%
X134460000Y-63500000D03*
%TD*%
D14*
%TO.P,R1,1*%
%TO.N,Net-(Q1-B)*%
X137000000Y-42000000D03*
D15*
%TO.P,R1,2*%
%TO.N,Net-(3VBattery1-+)*%
X126840000Y-42000000D03*
%TD*%
D16*
%TO.P,C1,1*%
%TO.N,Net-(LED1-K)*%
X166817621Y-32000000D03*
D14*
%TO.P,C1,2*%
%TO.N,Net-(Q1-B)*%
X169317621Y-32000000D03*
%TD*%
%TO.P,R2,1*%
%TO.N,Net-(Q2-B)*%
X137000000Y-49000000D03*
D15*
%TO.P,R2,2*%
%TO.N,Net-(3VBattery1-+)*%
X126840000Y-49000000D03*
%TD*%
D16*
%TO.P,C2,1*%
%TO.N,Net-(LED2-K)*%
X168010000Y-59500000D03*
D14*
%TO.P,C2,2*%
%TO.N,Net-(Q2-B)*%
X165510000Y-59500000D03*
%TD*%
D17*
%TO.P,3V Battery,1,+*%
%TO.N,Net-(3VBattery1-+)*%
X113789087Y-45000000D03*
D18*
%TO.P,3V Battery,2,-*%
%TO.N,unconnected-(3VBattery1---Pad2)*%
X93789087Y-45000000D03*
%TD*%
D11*
%TO.P,Q1,1,C*%
%TO.N,Net-(LED2-K)*%
X151420000Y-27000000D03*
D10*
%TO.P,Q1,2,B*%
%TO.N,Net-(Q1-B)*%
X153960000Y-27000000D03*
%TO.P,Q1,3,E*%
%TO.N,P\u002CE*%
X156500000Y-27000000D03*
%TD*%
D19*
%TO.N,Net-(LED1-K)*%
X146000000Y-54000000D03*
%TO.N,Net-(Q1-B)*%
X143500000Y-41000000D03*
%TD*%
D20*
%TO.N,Net-(LED1-K)*%
X150960000Y-58960000D02*
X146000000Y-54000000D01*
X137000000Y-63000000D02*
X146000000Y-54000000D01*
X137000000Y-63500000D02*
X137000000Y-63000000D01*
%TO.N,Net-(Q1-B)*%
X168217621Y-30900000D02*
X169317621Y-32000000D01*
X157860000Y-30900000D02*
X168217621Y-30900000D01*
X153960000Y-27000000D02*
X157860000Y-30900000D01*
%TO.N,Net-(LED2-K)*%
X151420000Y-42910000D02*
X151420000Y-27000000D01*
X168010000Y-59500000D02*
X151420000Y-42910000D01*
%TO.N,P\u002CE*%
X152470000Y-27005075D02*
X170500000Y-45035075D01*
X153525075Y-25950000D02*
X152470000Y-27005075D01*
X156500000Y-27000000D02*
X155450000Y-25950000D01*
X155450000Y-25950000D02*
X153525075Y-25950000D01*
X170500000Y-45035075D02*
X170500000Y-59210000D01*
%TO.N,Net-(3VBattery1-+)*%
X122500000Y-48500000D02*
X123000000Y-49000000D01*
X119000000Y-45000000D02*
X119250000Y-45250000D01*
X123000000Y-49000000D02*
X126840000Y-49000000D01*
X119000000Y-45000000D02*
X113789087Y-45000000D01*
%TO.N,Net-(Q1-B)*%
X142500000Y-42000000D02*
X143500000Y-41000000D01*
X137000000Y-42000000D02*
X142500000Y-42000000D01*
%TO.N,Net-(3VBattery1-+)*%
X123420000Y-45000000D02*
X119000000Y-45000000D01*
X134460000Y-29540000D02*
X134460000Y-27000000D01*
X126420000Y-42000000D02*
X123420000Y-45000000D01*
X119000000Y-45000000D02*
X134460000Y-29540000D01*
%TO.N,Net-(Q2-B)*%
X157510000Y-51500000D02*
X165510000Y-59500000D01*
X137000000Y-51500000D02*
X137000000Y-49000000D01*
X163510000Y-59500000D02*
X165510000Y-59500000D01*
X137000000Y-51500000D02*
X157510000Y-51500000D01*
%TO.N,Net-(LED2-K)*%
X137000000Y-27000000D02*
X144000000Y-27000000D01*
X144000000Y-27000000D02*
X151420000Y-27000000D01*
%TO.N,Net-(Q1-E)*%
X155500000Y-68400000D02*
X153000000Y-68400000D01*
X153000000Y-68400000D02*
X128000000Y-68400000D01*
X128000000Y-68400000D02*
X117189087Y-68400000D01*
X117189087Y-68400000D02*
X93789087Y-45000000D01*
%TO.N,Net-(3VBattery1-+)*%
X119250000Y-45250000D02*
X122000000Y-48000000D01*
X134460000Y-60460000D02*
X122000000Y-48000000D01*
X122000000Y-48000000D02*
X122500000Y-48500000D01*
X134460000Y-63500000D02*
X134460000Y-60460000D01*
%TO.N,P\u002CE*%
X170500000Y-59210000D02*
X167710000Y-62000000D01*
X167710000Y-62000000D02*
X156040000Y-62000000D01*
%TO.N,Net-(Q2-B)*%
X165000000Y-59500000D02*
X161000000Y-59500000D01*
X153510000Y-58000000D02*
X153460000Y-58050000D01*
X159500000Y-58000000D02*
X153510000Y-58000000D01*
X161000000Y-59500000D02*
X159500000Y-58000000D01*
X153460000Y-58050000D02*
X153460000Y-62500000D01*
%TO.N,Net-(LED1-K)*%
X150960000Y-62000000D02*
X150960000Y-58960000D01*
X150420000Y-62000000D02*
X150920000Y-62500000D01*
%TO.N,Net-(Q1-E)*%
X156000000Y-67900000D02*
X155500000Y-68400000D01*
X156000000Y-62500000D02*
X156000000Y-67900000D01*
%TD*%
M02*
