%TF.GenerationSoftware,KiCad,Pcbnew,8.0.5*%
%TF.CreationDate,2024-10-10T20:33:13-07:00*%
%TF.ProjectId,IEEE soldering project,49454545-2073-46f6-9c64-6572696e6720,rev?*%
%TF.SameCoordinates,Original*%
%TF.FileFunction,Legend,Top*%
%TF.FilePolarity,Positive*%
%FSLAX46Y46*%
G04 Gerber Fmt 4.6, Leading zero omitted, Abs format (unit mm)*
G04 Created by KiCad (PCBNEW 8.0.5) date 2024-10-10 20:33:13*
%MOMM*%
%LPD*%
G01*
G04 APERTURE LIST*
%ADD10C,0.000000*%
%ADD11C,0.150000*%
%ADD12C,0.120000*%
G04 APERTURE END LIST*
D10*
G36*
X78512737Y-33306202D02*
G01*
X80019141Y-33306202D01*
X80019141Y-30051432D01*
X81434841Y-30051432D01*
X81434841Y-33306205D01*
X82981723Y-33306205D01*
X82981723Y-29768601D01*
X84397811Y-29768601D01*
X84397811Y-35329654D01*
X77097296Y-35329654D01*
X77097296Y-29768534D01*
X78512737Y-29768534D01*
X78512737Y-33306202D01*
G37*
G36*
X78512737Y-40000000D02*
G01*
X80019141Y-40000000D01*
X80019141Y-36745487D01*
X81434841Y-36745487D01*
X81434841Y-40000000D01*
X82981723Y-40000000D01*
X82981723Y-36462009D01*
X84397811Y-36462009D01*
X84397811Y-42021773D01*
X77097296Y-42021773D01*
X77097296Y-36462009D01*
X78512737Y-36462009D01*
X78512737Y-40000000D01*
G37*
G36*
X78512737Y-46693729D02*
G01*
X80019141Y-46693729D01*
X80019141Y-43438120D01*
X81434841Y-43438120D01*
X81434841Y-46693731D01*
X82981723Y-46693731D01*
X82981723Y-43154772D01*
X84397811Y-43154772D01*
X84397811Y-48715955D01*
X77097296Y-48715955D01*
X77097296Y-43154772D01*
X78512737Y-43154772D01*
X78512737Y-46693729D01*
G37*
G36*
X84397811Y-51799390D02*
G01*
X77097296Y-51799390D01*
X77097296Y-49777100D01*
X84397811Y-49777100D01*
X84397811Y-51799390D01*
G37*
G36*
X80680190Y-53060660D02*
G01*
X80703372Y-53063637D01*
X80725415Y-53068224D01*
X80746376Y-53074339D01*
X80766310Y-53081900D01*
X80785273Y-53090823D01*
X80803321Y-53101027D01*
X80820508Y-53112430D01*
X80836890Y-53124949D01*
X80852524Y-53138502D01*
X80867464Y-53153006D01*
X80881766Y-53168381D01*
X80908679Y-53201408D01*
X80933707Y-53236926D01*
X80957294Y-53274277D01*
X80979886Y-53312801D01*
X81023859Y-53390740D01*
X81046129Y-53428838D01*
X81069181Y-53465478D01*
X81093459Y-53500000D01*
X81119409Y-53531748D01*
X81341007Y-53830988D01*
X81568953Y-54126078D01*
X81803080Y-54416818D01*
X82043218Y-54703010D01*
X82289202Y-54984455D01*
X82540864Y-55260956D01*
X82798035Y-55532312D01*
X83060549Y-55798327D01*
X83328237Y-56058800D01*
X83600933Y-56313534D01*
X83878468Y-56562330D01*
X84160675Y-56804989D01*
X84447387Y-57041313D01*
X84738436Y-57271103D01*
X85033654Y-57494160D01*
X85332873Y-57710286D01*
X85424546Y-57801572D01*
X85429559Y-57810256D01*
X85434125Y-57819089D01*
X85438256Y-57828063D01*
X85441964Y-57837168D01*
X85448161Y-57855736D01*
X85452816Y-57874719D01*
X85456029Y-57894046D01*
X85457898Y-57913643D01*
X85458523Y-57933437D01*
X85458003Y-57953356D01*
X85456438Y-57973328D01*
X85453926Y-57993279D01*
X85450567Y-58013137D01*
X85446461Y-58032829D01*
X85441707Y-58052282D01*
X85436403Y-58071424D01*
X85430650Y-58090181D01*
X85424546Y-58108482D01*
X85420519Y-58119690D01*
X85415963Y-58130290D01*
X85410903Y-58140312D01*
X85405367Y-58149788D01*
X85399383Y-58158752D01*
X85392977Y-58167234D01*
X85386177Y-58175266D01*
X85379009Y-58182881D01*
X85371501Y-58190111D01*
X85363679Y-58196987D01*
X85347205Y-58209807D01*
X85329803Y-58221597D01*
X85311690Y-58232612D01*
X85236467Y-58274038D01*
X85218052Y-58285015D01*
X85200228Y-58296751D01*
X85183210Y-58309503D01*
X85175072Y-58316340D01*
X85167217Y-58323526D01*
X85094484Y-58371328D01*
X85022271Y-58420591D01*
X84879288Y-58522813D01*
X84738024Y-58628815D01*
X84598240Y-58737224D01*
X84322143Y-58955763D01*
X84185348Y-59063144D01*
X84049067Y-59167433D01*
X83987404Y-59226967D01*
X83924936Y-59284596D01*
X83861764Y-59341012D01*
X83797991Y-59396905D01*
X83669049Y-59509893D01*
X83604084Y-59568369D01*
X83538926Y-59629089D01*
X83161644Y-59984059D01*
X82796340Y-60349035D01*
X82443195Y-60723233D01*
X82102390Y-61105869D01*
X81774108Y-61496159D01*
X81458530Y-61893317D01*
X81155837Y-62296559D01*
X80866211Y-62705100D01*
X80851292Y-62719518D01*
X80835781Y-62733512D01*
X80819685Y-62746954D01*
X80803009Y-62759712D01*
X80785757Y-62771657D01*
X80767936Y-62782659D01*
X80749551Y-62792589D01*
X80730607Y-62801316D01*
X80711108Y-62808712D01*
X80691062Y-62814645D01*
X80670472Y-62818986D01*
X80659975Y-62820519D01*
X80649344Y-62821605D01*
X80638580Y-62822228D01*
X80627683Y-62822373D01*
X80616655Y-62822021D01*
X80610632Y-62821556D01*
X80605496Y-62821159D01*
X80594206Y-62819768D01*
X80582786Y-62817833D01*
X80571237Y-62815339D01*
X80559559Y-62812267D01*
X80546663Y-62808759D01*
X80534089Y-62804537D01*
X80521826Y-62799635D01*
X80509864Y-62794086D01*
X80498191Y-62787924D01*
X80486798Y-62781180D01*
X80475673Y-62773887D01*
X80464805Y-62766080D01*
X80443799Y-62749051D01*
X80423694Y-62730356D01*
X80404403Y-62710260D01*
X80385841Y-62689025D01*
X80367921Y-62666916D01*
X80350558Y-62644196D01*
X80317154Y-62597978D01*
X80284941Y-62552480D01*
X80269066Y-62530660D01*
X80253230Y-62509811D01*
X80073803Y-62254585D01*
X79887964Y-62002150D01*
X79696003Y-61752625D01*
X79498212Y-61506128D01*
X79294884Y-61262777D01*
X79086310Y-61022690D01*
X78872780Y-60785986D01*
X78654588Y-60552782D01*
X78432025Y-60323197D01*
X78205382Y-60097348D01*
X77974951Y-59875354D01*
X77741023Y-59657333D01*
X77503891Y-59443403D01*
X77263846Y-59233682D01*
X76776183Y-58827340D01*
X75915943Y-58166908D01*
X75903592Y-58150111D01*
X75891616Y-58132708D01*
X75880149Y-58114750D01*
X75869329Y-58096293D01*
X75859291Y-58077389D01*
X75850173Y-58058092D01*
X75842109Y-58038457D01*
X75835237Y-58018536D01*
X75829693Y-57998384D01*
X75825612Y-57978054D01*
X75824073Y-57965359D01*
X77065360Y-57965359D01*
X77066930Y-57998414D01*
X77070471Y-58031339D01*
X77076063Y-58064096D01*
X77083786Y-58096643D01*
X77093720Y-58128942D01*
X77105944Y-58160952D01*
X77120539Y-58192633D01*
X77137585Y-58223946D01*
X77157162Y-58254851D01*
X77179350Y-58285308D01*
X77262861Y-58400601D01*
X77347034Y-58514598D01*
X77432166Y-58627510D01*
X77518555Y-58739549D01*
X77606500Y-58850924D01*
X77696298Y-58961848D01*
X77788248Y-59072532D01*
X77882648Y-59183186D01*
X77885835Y-59187905D01*
X77889382Y-59192701D01*
X77893236Y-59197548D01*
X77897347Y-59202420D01*
X77901662Y-59207290D01*
X77906130Y-59212132D01*
X77915315Y-59221630D01*
X77947787Y-59253296D01*
X78180603Y-59510532D01*
X78418611Y-59765752D01*
X78661559Y-60017570D01*
X78909190Y-60264602D01*
X79161252Y-60505460D01*
X79417490Y-60738759D01*
X79677650Y-60963112D01*
X79941478Y-61177134D01*
X80094269Y-61294639D01*
X80171380Y-61351304D01*
X80210358Y-61378528D01*
X80249711Y-61404791D01*
X80289510Y-61429924D01*
X80329822Y-61453759D01*
X80370720Y-61476131D01*
X80412271Y-61496870D01*
X80454547Y-61515810D01*
X80497616Y-61532783D01*
X80541549Y-61547622D01*
X80586415Y-61560158D01*
X80610632Y-61560284D01*
X80634630Y-61559858D01*
X80658389Y-61558838D01*
X80681887Y-61557184D01*
X80705103Y-61554852D01*
X80728015Y-61551803D01*
X80750603Y-61547993D01*
X80772844Y-61543381D01*
X80794717Y-61537926D01*
X80816202Y-61531586D01*
X80837276Y-61524318D01*
X80857918Y-61516082D01*
X80878107Y-61506836D01*
X80897821Y-61496537D01*
X80917040Y-61485145D01*
X80935741Y-61472617D01*
X81066772Y-61382685D01*
X81196984Y-61289406D01*
X81326286Y-61193007D01*
X81454583Y-61093713D01*
X81581783Y-60991753D01*
X81707793Y-60887352D01*
X81955868Y-60672134D01*
X82198063Y-60449875D01*
X82433633Y-60222388D01*
X82661832Y-59991485D01*
X82881916Y-59758981D01*
X83244939Y-59359551D01*
X83425657Y-59159204D01*
X83601928Y-58956634D01*
X83687477Y-58854092D01*
X83770811Y-58750486D01*
X83851564Y-58645649D01*
X83929369Y-58539409D01*
X84003857Y-58431600D01*
X84074661Y-58322050D01*
X84141414Y-58210592D01*
X84203749Y-58097055D01*
X84211993Y-58078118D01*
X84219078Y-58059048D01*
X84225039Y-58039859D01*
X84229912Y-58020567D01*
X84233733Y-58001187D01*
X84236536Y-57981736D01*
X84238358Y-57962228D01*
X84239235Y-57942679D01*
X84239202Y-57923104D01*
X84238295Y-57903519D01*
X84236550Y-57883938D01*
X84234002Y-57864379D01*
X84226641Y-57825381D01*
X84216498Y-57786651D01*
X84203859Y-57748309D01*
X84189008Y-57710481D01*
X84172232Y-57673289D01*
X84153816Y-57636856D01*
X84134046Y-57601306D01*
X84113208Y-57566761D01*
X84091586Y-57533345D01*
X84069467Y-57501182D01*
X83958190Y-57346493D01*
X83843623Y-57193807D01*
X83725947Y-57043050D01*
X83605344Y-56894150D01*
X83481994Y-56747033D01*
X83356078Y-56601626D01*
X83097275Y-56315649D01*
X82830382Y-56035633D01*
X82556850Y-55760994D01*
X82278126Y-55491145D01*
X81995660Y-55225501D01*
X81847240Y-55101876D01*
X81700597Y-54976630D01*
X81554234Y-54852523D01*
X81406654Y-54732315D01*
X81331939Y-54674537D01*
X81256359Y-54618769D01*
X81179726Y-54565356D01*
X81101853Y-54514644D01*
X81022552Y-54466977D01*
X80941637Y-54422701D01*
X80858921Y-54382160D01*
X80774216Y-54345700D01*
X80757317Y-54341412D01*
X80740571Y-54337854D01*
X80723977Y-54335006D01*
X80707533Y-54332844D01*
X80691239Y-54331348D01*
X80675092Y-54330496D01*
X80659091Y-54330267D01*
X80643235Y-54330638D01*
X80611950Y-54333096D01*
X80581225Y-54337697D01*
X80551047Y-54344270D01*
X80521405Y-54352640D01*
X80492287Y-54362635D01*
X80463680Y-54374083D01*
X80435573Y-54386810D01*
X80407952Y-54400643D01*
X80380807Y-54415410D01*
X80354125Y-54430938D01*
X80327893Y-54447053D01*
X80302101Y-54463584D01*
X80010153Y-54674793D01*
X79722554Y-54896380D01*
X79439680Y-55127549D01*
X79161904Y-55367505D01*
X78889598Y-55615454D01*
X78623138Y-55870599D01*
X78362897Y-56132147D01*
X78109248Y-56399301D01*
X78082133Y-56446493D01*
X77988159Y-56545488D01*
X77894964Y-56647311D01*
X77802823Y-56751398D01*
X77712012Y-56857189D01*
X77622809Y-56964120D01*
X77535489Y-57071630D01*
X77450328Y-57179157D01*
X77367602Y-57286139D01*
X77324697Y-57338512D01*
X77282959Y-57393717D01*
X77243027Y-57451435D01*
X77205541Y-57511346D01*
X77171140Y-57573132D01*
X77140465Y-57636474D01*
X77114155Y-57701053D01*
X77092849Y-57766549D01*
X77084273Y-57799542D01*
X77077189Y-57832645D01*
X77071675Y-57865818D01*
X77067812Y-57899021D01*
X77065680Y-57932215D01*
X77065360Y-57965359D01*
X75824073Y-57965359D01*
X75823132Y-57957600D01*
X75822535Y-57947343D01*
X75822389Y-57937076D01*
X75822711Y-57926804D01*
X75823518Y-57916535D01*
X75824828Y-57906275D01*
X75826657Y-57896031D01*
X75829022Y-57885810D01*
X75831941Y-57875618D01*
X75835430Y-57865462D01*
X75839506Y-57855349D01*
X75842350Y-57845996D01*
X75845869Y-57836523D01*
X75849992Y-57826955D01*
X75854644Y-57817317D01*
X75859753Y-57807634D01*
X75865245Y-57797931D01*
X75871047Y-57788233D01*
X75877087Y-57778565D01*
X75889586Y-57759420D01*
X75902157Y-57740696D01*
X75914215Y-57722595D01*
X75925175Y-57705315D01*
X76442481Y-57340303D01*
X76730466Y-57112226D01*
X77019995Y-56878969D01*
X77163665Y-56760579D01*
X77305712Y-56641112D01*
X77445466Y-56520640D01*
X77582258Y-56399236D01*
X78420031Y-55597227D01*
X78686657Y-55322951D01*
X78945403Y-55044355D01*
X79196408Y-54761299D01*
X79439811Y-54473646D01*
X79675751Y-54181257D01*
X79904369Y-53883993D01*
X80125802Y-53581717D01*
X80340190Y-53274289D01*
X80344515Y-53248014D01*
X80357725Y-53228616D01*
X80372124Y-53210053D01*
X80387637Y-53192365D01*
X80404186Y-53175588D01*
X80421697Y-53159763D01*
X80440091Y-53144926D01*
X80459292Y-53131117D01*
X80479224Y-53118373D01*
X80499811Y-53106733D01*
X80520976Y-53096235D01*
X80542642Y-53086917D01*
X80564733Y-53078818D01*
X80587172Y-53071976D01*
X80609883Y-53066429D01*
X80632790Y-53062216D01*
X80655816Y-53059375D01*
X80680190Y-53060660D01*
G37*
G36*
X80713072Y-54564914D02*
G01*
X80745169Y-54568297D01*
X80776715Y-54574088D01*
X80807519Y-54582394D01*
X80822584Y-54587522D01*
X80837393Y-54593318D01*
X80851922Y-54599795D01*
X80866147Y-54606967D01*
X80923410Y-54642213D01*
X80980092Y-54678854D01*
X81036236Y-54716777D01*
X81091889Y-54755869D01*
X81201904Y-54837105D01*
X81310502Y-54921657D01*
X81418046Y-55008617D01*
X81524902Y-55097080D01*
X81738007Y-55274887D01*
X81753565Y-55274887D01*
X82223508Y-55721648D01*
X82457116Y-55950157D01*
X82687773Y-56182352D01*
X82913945Y-56418433D01*
X83134099Y-56658599D01*
X83346703Y-56903050D01*
X83449695Y-57026945D01*
X83550224Y-57151986D01*
X83590062Y-57213017D01*
X83634045Y-57273636D01*
X83728943Y-57394502D01*
X83777107Y-57455182D01*
X83823911Y-57516317D01*
X83867982Y-57578121D01*
X83907941Y-57640813D01*
X83925950Y-57672560D01*
X83942415Y-57704609D01*
X83957164Y-57736988D01*
X83970026Y-57769725D01*
X83980828Y-57802846D01*
X83989398Y-57836378D01*
X83995565Y-57870349D01*
X83999156Y-57904785D01*
X84000000Y-57939714D01*
X83997924Y-57975163D01*
X83992757Y-58011158D01*
X83984326Y-58047727D01*
X83972460Y-58084897D01*
X83956985Y-58122695D01*
X83937732Y-58161148D01*
X83914527Y-58200284D01*
X83643951Y-58557785D01*
X83358649Y-58910259D01*
X83059877Y-59256552D01*
X82989470Y-59333293D01*
X82748894Y-59595511D01*
X82426955Y-59925981D01*
X82095319Y-60246808D01*
X81755243Y-60556840D01*
X81407984Y-60854923D01*
X81369876Y-60880474D01*
X81332488Y-60907486D01*
X81295670Y-60935681D01*
X81259274Y-60964785D01*
X81114922Y-61084766D01*
X81078397Y-61114275D01*
X81041399Y-61143037D01*
X81003779Y-61170777D01*
X80965389Y-61197219D01*
X80926078Y-61222087D01*
X80885698Y-61245106D01*
X80844101Y-61266000D01*
X80801136Y-61284494D01*
X80771816Y-61295310D01*
X80743000Y-61303819D01*
X80714669Y-61310119D01*
X80686805Y-61314307D01*
X80659389Y-61316479D01*
X80632404Y-61316734D01*
X80630677Y-61316633D01*
X80605831Y-61315169D01*
X80579650Y-61311880D01*
X80553845Y-61306966D01*
X80528397Y-61300522D01*
X80503287Y-61292647D01*
X80478497Y-61283438D01*
X80454008Y-61272992D01*
X80429803Y-61261406D01*
X80382169Y-61235203D01*
X80335446Y-61205608D01*
X80289490Y-61173399D01*
X80244152Y-61139353D01*
X80199285Y-61104249D01*
X80110378Y-61033976D01*
X80066044Y-61000363D01*
X80021594Y-60968803D01*
X79656094Y-60662646D01*
X79591765Y-60605202D01*
X79295104Y-60340293D01*
X79117154Y-60173605D01*
X78941355Y-60003543D01*
X78768048Y-59830331D01*
X78597575Y-59654195D01*
X78430277Y-59475358D01*
X78266496Y-59294045D01*
X78106573Y-59110483D01*
X78032206Y-59021854D01*
X79887248Y-59021854D01*
X79889661Y-59052437D01*
X79893442Y-59082704D01*
X79898488Y-59112675D01*
X79904697Y-59142367D01*
X79911966Y-59171799D01*
X79920192Y-59200988D01*
X79929272Y-59229952D01*
X79939104Y-59258711D01*
X79960614Y-59315680D01*
X79983898Y-59372040D01*
X80032504Y-59483511D01*
X80032505Y-59483510D01*
X80082933Y-59582274D01*
X80110741Y-59633882D01*
X80140454Y-59685940D01*
X80172204Y-59737674D01*
X80206122Y-59788309D01*
X80242340Y-59837070D01*
X80280990Y-59883183D01*
X80322203Y-59925872D01*
X80343811Y-59945691D01*
X80366110Y-59964363D01*
X80389115Y-59981793D01*
X80412844Y-59997882D01*
X80437312Y-60012534D01*
X80462536Y-60025652D01*
X80488532Y-60037140D01*
X80515318Y-60046900D01*
X80542908Y-60054836D01*
X80571321Y-60060851D01*
X80600572Y-60064847D01*
X80630677Y-60066729D01*
X80661654Y-60066399D01*
X80693518Y-60063761D01*
X80710966Y-60058280D01*
X80728028Y-60051956D01*
X80744709Y-60044824D01*
X80761012Y-60036919D01*
X80776941Y-60028277D01*
X80792500Y-60018933D01*
X80807694Y-60008921D01*
X80822526Y-59998278D01*
X80837001Y-59987039D01*
X80851123Y-59975238D01*
X80878323Y-59950093D01*
X80904159Y-59923126D01*
X80928663Y-59894618D01*
X80951869Y-59864851D01*
X80973807Y-59834107D01*
X80994513Y-59802668D01*
X81014017Y-59770815D01*
X81032352Y-59738831D01*
X81049552Y-59706997D01*
X81065648Y-59675595D01*
X81080674Y-59644906D01*
X81149879Y-59474510D01*
X81210300Y-59298055D01*
X81262044Y-59116322D01*
X81305217Y-58930094D01*
X81339926Y-58740154D01*
X81366279Y-58547284D01*
X81384380Y-58352267D01*
X81391632Y-58209258D01*
X81480103Y-58209258D01*
X81860739Y-58226335D01*
X82234299Y-58240706D01*
X82608102Y-58257220D01*
X82797383Y-58267795D01*
X82989470Y-58280724D01*
X83002471Y-58123403D01*
X83007441Y-58042190D01*
X83010629Y-57959885D01*
X83011463Y-57876944D01*
X83009370Y-57793825D01*
X83007048Y-57752341D01*
X83003779Y-57710984D01*
X82999493Y-57669811D01*
X82994118Y-57628878D01*
X81553500Y-57693953D01*
X81484939Y-57705380D01*
X81489430Y-57828488D01*
X81490976Y-57889780D01*
X81491669Y-57951420D01*
X81491218Y-58013802D01*
X81489333Y-58077318D01*
X81485723Y-58142360D01*
X81480103Y-58209258D01*
X81391632Y-58209258D01*
X81394339Y-58155884D01*
X81396260Y-57958919D01*
X81390252Y-57762154D01*
X81376420Y-57566372D01*
X81354872Y-57372354D01*
X81325715Y-57180883D01*
X81289054Y-56992742D01*
X81244997Y-56808714D01*
X81193651Y-56629580D01*
X81157961Y-56539425D01*
X81138280Y-56492826D01*
X81117152Y-56445894D01*
X81094408Y-56399141D01*
X81069881Y-56353077D01*
X81043404Y-56308212D01*
X81014808Y-56265059D01*
X80983926Y-56224128D01*
X80950590Y-56185930D01*
X80932949Y-56168015D01*
X80914632Y-56150975D01*
X80895618Y-56134874D01*
X80875885Y-56119776D01*
X80855413Y-56105744D01*
X80834180Y-56092842D01*
X80812166Y-56081135D01*
X80789350Y-56070685D01*
X80765711Y-56061557D01*
X80741228Y-56053816D01*
X80715879Y-56047523D01*
X80689644Y-56042745D01*
X80667856Y-56043693D01*
X80646572Y-56046027D01*
X80625789Y-56049690D01*
X80605499Y-56054622D01*
X80585699Y-56060766D01*
X80566382Y-56068064D01*
X80547543Y-56076458D01*
X80529178Y-56085891D01*
X80511280Y-56096304D01*
X80493844Y-56107639D01*
X80476865Y-56119838D01*
X80460338Y-56132843D01*
X80444257Y-56146597D01*
X80428618Y-56161042D01*
X80398640Y-56191770D01*
X80370362Y-56224564D01*
X80343741Y-56258960D01*
X80318735Y-56294496D01*
X80295301Y-56330706D01*
X80273396Y-56367128D01*
X80252978Y-56403298D01*
X80216431Y-56473026D01*
X80205263Y-56473026D01*
X80196177Y-56449233D01*
X80187467Y-56424757D01*
X80179287Y-56399790D01*
X80171790Y-56374526D01*
X80165127Y-56349160D01*
X80159453Y-56323884D01*
X80157034Y-56311341D01*
X80154919Y-56298893D01*
X80153128Y-56286565D01*
X80151680Y-56274380D01*
X80145417Y-56274380D01*
X80123072Y-56392063D01*
X80098618Y-56508873D01*
X80072380Y-56624946D01*
X80044682Y-56740418D01*
X79986208Y-56970112D01*
X79925790Y-57199049D01*
X79976348Y-57177736D01*
X80027481Y-57157682D01*
X80079081Y-57138619D01*
X80131037Y-57120280D01*
X80340254Y-57048821D01*
X80329575Y-57014327D01*
X80319580Y-56979580D01*
X80310289Y-56944549D01*
X80301721Y-56909206D01*
X80293894Y-56873521D01*
X80286827Y-56837465D01*
X80280540Y-56801007D01*
X80275050Y-56764119D01*
X80299988Y-56701045D01*
X80328446Y-56634695D01*
X80344305Y-56601308D01*
X80361417Y-56568320D01*
X80379904Y-56536138D01*
X80399890Y-56505168D01*
X80421500Y-56475816D01*
X80444858Y-56448489D01*
X80457230Y-56435712D01*
X80470087Y-56423592D01*
X80483441Y-56412182D01*
X80497311Y-56401532D01*
X80511709Y-56391693D01*
X80526654Y-56382715D01*
X80542159Y-56374650D01*
X80558240Y-56367548D01*
X80574913Y-56361459D01*
X80592193Y-56356435D01*
X80610095Y-56352526D01*
X80628636Y-56349784D01*
X80646004Y-56348754D01*
X80662822Y-56348981D01*
X80679103Y-56350411D01*
X80694862Y-56352987D01*
X80710116Y-56356656D01*
X80724878Y-56361362D01*
X80739164Y-56367050D01*
X80752988Y-56373666D01*
X80766365Y-56381155D01*
X80779310Y-56389462D01*
X80791839Y-56398531D01*
X80803965Y-56408309D01*
X80815704Y-56418739D01*
X80827071Y-56429768D01*
X80838081Y-56441340D01*
X80848748Y-56453400D01*
X80869114Y-56478766D01*
X80888289Y-56505428D01*
X80906392Y-56532944D01*
X80923543Y-56560878D01*
X80984998Y-56667992D01*
X81029432Y-56798381D01*
X81068572Y-56930584D01*
X81102434Y-57064393D01*
X81131033Y-57199597D01*
X81154386Y-57335987D01*
X81172510Y-57473353D01*
X81185420Y-57611486D01*
X81193134Y-57750176D01*
X81195666Y-57889213D01*
X81193034Y-58028387D01*
X81185254Y-58167490D01*
X81172342Y-58306310D01*
X81154314Y-58444640D01*
X81131187Y-58582268D01*
X81102976Y-58718986D01*
X81069698Y-58854583D01*
X81045077Y-58932591D01*
X81016970Y-59014750D01*
X81001042Y-59056103D01*
X80983561Y-59096954D01*
X80964301Y-59136791D01*
X80943035Y-59175099D01*
X80919535Y-59211366D01*
X80893575Y-59245079D01*
X80879601Y-59260817D01*
X80864928Y-59275724D01*
X80849525Y-59289737D01*
X80833366Y-59302789D01*
X80816422Y-59314819D01*
X80798664Y-59325761D01*
X80780063Y-59335551D01*
X80760593Y-59344125D01*
X80740223Y-59351420D01*
X80718927Y-59357370D01*
X80696675Y-59361912D01*
X80673439Y-59364982D01*
X80642961Y-59351104D01*
X80613979Y-59335966D01*
X80586443Y-59319621D01*
X80560300Y-59302120D01*
X80535503Y-59283515D01*
X80511999Y-59263858D01*
X80489738Y-59243202D01*
X80468671Y-59221597D01*
X80448747Y-59199097D01*
X80429914Y-59175754D01*
X80412124Y-59151618D01*
X80395324Y-59126743D01*
X80379466Y-59101180D01*
X80364499Y-59074982D01*
X80337034Y-59020885D01*
X80312526Y-58964871D01*
X80290572Y-58907354D01*
X80270769Y-58848750D01*
X80252714Y-58789476D01*
X80220231Y-58670582D01*
X80189898Y-58554000D01*
X80152511Y-58612860D01*
X80115809Y-58671850D01*
X80042833Y-58789743D01*
X80005750Y-58848408D01*
X79967728Y-58906728D01*
X79928362Y-58964582D01*
X79887248Y-59021854D01*
X78032206Y-59021854D01*
X77950849Y-58924894D01*
X77799665Y-58737505D01*
X77653363Y-58548539D01*
X77512284Y-58358222D01*
X77376769Y-58166779D01*
X77376769Y-58166843D01*
X77357276Y-58136039D01*
X77340815Y-58105435D01*
X77327262Y-58075032D01*
X77316495Y-58044831D01*
X77308391Y-58014833D01*
X77302825Y-57985040D01*
X77299675Y-57955453D01*
X77299431Y-57947086D01*
X78021577Y-57947086D01*
X78021577Y-57958642D01*
X78308410Y-58047991D01*
X79591765Y-58496026D01*
X79603192Y-58134758D01*
X79613779Y-58134758D01*
X81065438Y-58200284D01*
X81080674Y-58188986D01*
X81085578Y-58133705D01*
X81089540Y-58075885D01*
X81092265Y-58016330D01*
X81093456Y-57955842D01*
X81092820Y-57895224D01*
X81090061Y-57835279D01*
X81087793Y-57805809D01*
X81084884Y-57776808D01*
X81081296Y-57748377D01*
X81076994Y-57720616D01*
X81054140Y-57720616D01*
X79646123Y-57779105D01*
X79598479Y-57770326D01*
X79591765Y-57376132D01*
X79201222Y-57522457D01*
X78809092Y-57666475D01*
X78415752Y-57808061D01*
X78021577Y-57947086D01*
X77299431Y-57947086D01*
X77298817Y-57926072D01*
X77300129Y-57896900D01*
X77303487Y-57867937D01*
X77308768Y-57839184D01*
X77315848Y-57810643D01*
X77324605Y-57782314D01*
X77334915Y-57754200D01*
X77346655Y-57726300D01*
X77359701Y-57698617D01*
X77389221Y-57643905D01*
X77422488Y-57590072D01*
X77458518Y-57537128D01*
X77496324Y-57485082D01*
X77573320Y-57383724D01*
X77645590Y-57286073D01*
X77949050Y-56918700D01*
X78263321Y-56558489D01*
X78588433Y-56207387D01*
X78755064Y-56035860D01*
X78924418Y-55867340D01*
X79096497Y-55702069D01*
X79271305Y-55540292D01*
X79448848Y-55382252D01*
X79629127Y-55228192D01*
X79812148Y-55078354D01*
X79997915Y-54932983D01*
X80186430Y-54792321D01*
X80377699Y-54656612D01*
X80403377Y-54640438D01*
X80430586Y-54625516D01*
X80459135Y-54611952D01*
X80488835Y-54599850D01*
X80519497Y-54589315D01*
X80550931Y-54580453D01*
X80582949Y-54573369D01*
X80615362Y-54568168D01*
X80647979Y-54564955D01*
X80680612Y-54563835D01*
X80713072Y-54564914D01*
G37*
D11*
X153404761Y-58990057D02*
X153309523Y-58942438D01*
X153309523Y-58942438D02*
X153214285Y-58847200D01*
X153214285Y-58847200D02*
X153071428Y-58704342D01*
X153071428Y-58704342D02*
X152976190Y-58656723D01*
X152976190Y-58656723D02*
X152880952Y-58656723D01*
X152928571Y-58894819D02*
X152833333Y-58847200D01*
X152833333Y-58847200D02*
X152738095Y-58751961D01*
X152738095Y-58751961D02*
X152690476Y-58561485D01*
X152690476Y-58561485D02*
X152690476Y-58228152D01*
X152690476Y-58228152D02*
X152738095Y-58037676D01*
X152738095Y-58037676D02*
X152833333Y-57942438D01*
X152833333Y-57942438D02*
X152928571Y-57894819D01*
X152928571Y-57894819D02*
X153119047Y-57894819D01*
X153119047Y-57894819D02*
X153214285Y-57942438D01*
X153214285Y-57942438D02*
X153309523Y-58037676D01*
X153309523Y-58037676D02*
X153357142Y-58228152D01*
X153357142Y-58228152D02*
X153357142Y-58561485D01*
X153357142Y-58561485D02*
X153309523Y-58751961D01*
X153309523Y-58751961D02*
X153214285Y-58847200D01*
X153214285Y-58847200D02*
X153119047Y-58894819D01*
X153119047Y-58894819D02*
X152928571Y-58894819D01*
X153738095Y-57990057D02*
X153785714Y-57942438D01*
X153785714Y-57942438D02*
X153880952Y-57894819D01*
X153880952Y-57894819D02*
X154119047Y-57894819D01*
X154119047Y-57894819D02*
X154214285Y-57942438D01*
X154214285Y-57942438D02*
X154261904Y-57990057D01*
X154261904Y-57990057D02*
X154309523Y-58085295D01*
X154309523Y-58085295D02*
X154309523Y-58180533D01*
X154309523Y-58180533D02*
X154261904Y-58323390D01*
X154261904Y-58323390D02*
X153690476Y-58894819D01*
X153690476Y-58894819D02*
X154309523Y-58894819D01*
X153435714Y-60538871D02*
X153307142Y-60496014D01*
X153307142Y-60496014D02*
X153264285Y-60453157D01*
X153264285Y-60453157D02*
X153221428Y-60367442D01*
X153221428Y-60367442D02*
X153221428Y-60238871D01*
X153221428Y-60238871D02*
X153264285Y-60153157D01*
X153264285Y-60153157D02*
X153307142Y-60110300D01*
X153307142Y-60110300D02*
X153392857Y-60067442D01*
X153392857Y-60067442D02*
X153735714Y-60067442D01*
X153735714Y-60067442D02*
X153735714Y-60967442D01*
X153735714Y-60967442D02*
X153435714Y-60967442D01*
X153435714Y-60967442D02*
X153350000Y-60924585D01*
X153350000Y-60924585D02*
X153307142Y-60881728D01*
X153307142Y-60881728D02*
X153264285Y-60796014D01*
X153264285Y-60796014D02*
X153264285Y-60710300D01*
X153264285Y-60710300D02*
X153307142Y-60624585D01*
X153307142Y-60624585D02*
X153350000Y-60581728D01*
X153350000Y-60581728D02*
X153435714Y-60538871D01*
X153435714Y-60538871D02*
X153735714Y-60538871D01*
X156613857Y-60538871D02*
X156313857Y-60538871D01*
X156185285Y-60067442D02*
X156613857Y-60067442D01*
X156613857Y-60067442D02*
X156613857Y-60967442D01*
X156613857Y-60967442D02*
X156185285Y-60967442D01*
X150300428Y-60153157D02*
X150343285Y-60110300D01*
X150343285Y-60110300D02*
X150471857Y-60067442D01*
X150471857Y-60067442D02*
X150557571Y-60067442D01*
X150557571Y-60067442D02*
X150686142Y-60110300D01*
X150686142Y-60110300D02*
X150771857Y-60196014D01*
X150771857Y-60196014D02*
X150814714Y-60281728D01*
X150814714Y-60281728D02*
X150857571Y-60453157D01*
X150857571Y-60453157D02*
X150857571Y-60581728D01*
X150857571Y-60581728D02*
X150814714Y-60753157D01*
X150814714Y-60753157D02*
X150771857Y-60838871D01*
X150771857Y-60838871D02*
X150686142Y-60924585D01*
X150686142Y-60924585D02*
X150557571Y-60967442D01*
X150557571Y-60967442D02*
X150471857Y-60967442D01*
X150471857Y-60967442D02*
X150343285Y-60924585D01*
X150343285Y-60924585D02*
X150300428Y-60881728D01*
X134610952Y-30914819D02*
X134134762Y-30914819D01*
X134134762Y-30914819D02*
X134134762Y-29914819D01*
X134944286Y-30391009D02*
X135277619Y-30391009D01*
X135420476Y-30914819D02*
X134944286Y-30914819D01*
X134944286Y-30914819D02*
X134944286Y-29914819D01*
X134944286Y-29914819D02*
X135420476Y-29914819D01*
X135849048Y-30914819D02*
X135849048Y-29914819D01*
X135849048Y-29914819D02*
X136087143Y-29914819D01*
X136087143Y-29914819D02*
X136230000Y-29962438D01*
X136230000Y-29962438D02*
X136325238Y-30057676D01*
X136325238Y-30057676D02*
X136372857Y-30152914D01*
X136372857Y-30152914D02*
X136420476Y-30343390D01*
X136420476Y-30343390D02*
X136420476Y-30486247D01*
X136420476Y-30486247D02*
X136372857Y-30676723D01*
X136372857Y-30676723D02*
X136325238Y-30771961D01*
X136325238Y-30771961D02*
X136230000Y-30867200D01*
X136230000Y-30867200D02*
X136087143Y-30914819D01*
X136087143Y-30914819D02*
X135849048Y-30914819D01*
X136801429Y-30010057D02*
X136849048Y-29962438D01*
X136849048Y-29962438D02*
X136944286Y-29914819D01*
X136944286Y-29914819D02*
X137182381Y-29914819D01*
X137182381Y-29914819D02*
X137277619Y-29962438D01*
X137277619Y-29962438D02*
X137325238Y-30010057D01*
X137325238Y-30010057D02*
X137372857Y-30105295D01*
X137372857Y-30105295D02*
X137372857Y-30200533D01*
X137372857Y-30200533D02*
X137325238Y-30343390D01*
X137325238Y-30343390D02*
X136753810Y-30914819D01*
X136753810Y-30914819D02*
X137372857Y-30914819D01*
X134610952Y-66914819D02*
X134134762Y-66914819D01*
X134134762Y-66914819D02*
X134134762Y-65914819D01*
X134944286Y-66391009D02*
X135277619Y-66391009D01*
X135420476Y-66914819D02*
X134944286Y-66914819D01*
X134944286Y-66914819D02*
X134944286Y-65914819D01*
X134944286Y-65914819D02*
X135420476Y-65914819D01*
X135849048Y-66914819D02*
X135849048Y-65914819D01*
X135849048Y-65914819D02*
X136087143Y-65914819D01*
X136087143Y-65914819D02*
X136230000Y-65962438D01*
X136230000Y-65962438D02*
X136325238Y-66057676D01*
X136325238Y-66057676D02*
X136372857Y-66152914D01*
X136372857Y-66152914D02*
X136420476Y-66343390D01*
X136420476Y-66343390D02*
X136420476Y-66486247D01*
X136420476Y-66486247D02*
X136372857Y-66676723D01*
X136372857Y-66676723D02*
X136325238Y-66771961D01*
X136325238Y-66771961D02*
X136230000Y-66867200D01*
X136230000Y-66867200D02*
X136087143Y-66914819D01*
X136087143Y-66914819D02*
X135849048Y-66914819D01*
X137372857Y-66914819D02*
X136801429Y-66914819D01*
X137087143Y-66914819D02*
X137087143Y-65914819D01*
X137087143Y-65914819D02*
X136991905Y-66057676D01*
X136991905Y-66057676D02*
X136896667Y-66152914D01*
X136896667Y-66152914D02*
X136801429Y-66200533D01*
X131753333Y-44824819D02*
X131420000Y-44348628D01*
X131181905Y-44824819D02*
X131181905Y-43824819D01*
X131181905Y-43824819D02*
X131562857Y-43824819D01*
X131562857Y-43824819D02*
X131658095Y-43872438D01*
X131658095Y-43872438D02*
X131705714Y-43920057D01*
X131705714Y-43920057D02*
X131753333Y-44015295D01*
X131753333Y-44015295D02*
X131753333Y-44158152D01*
X131753333Y-44158152D02*
X131705714Y-44253390D01*
X131705714Y-44253390D02*
X131658095Y-44301009D01*
X131658095Y-44301009D02*
X131562857Y-44348628D01*
X131562857Y-44348628D02*
X131181905Y-44348628D01*
X132705714Y-44824819D02*
X132134286Y-44824819D01*
X132420000Y-44824819D02*
X132420000Y-43824819D01*
X132420000Y-43824819D02*
X132324762Y-43967676D01*
X132324762Y-43967676D02*
X132229524Y-44062914D01*
X132229524Y-44062914D02*
X132134286Y-44110533D01*
X167900954Y-27959580D02*
X167853335Y-28007200D01*
X167853335Y-28007200D02*
X167710478Y-28054819D01*
X167710478Y-28054819D02*
X167615240Y-28054819D01*
X167615240Y-28054819D02*
X167472383Y-28007200D01*
X167472383Y-28007200D02*
X167377145Y-27911961D01*
X167377145Y-27911961D02*
X167329526Y-27816723D01*
X167329526Y-27816723D02*
X167281907Y-27626247D01*
X167281907Y-27626247D02*
X167281907Y-27483390D01*
X167281907Y-27483390D02*
X167329526Y-27292914D01*
X167329526Y-27292914D02*
X167377145Y-27197676D01*
X167377145Y-27197676D02*
X167472383Y-27102438D01*
X167472383Y-27102438D02*
X167615240Y-27054819D01*
X167615240Y-27054819D02*
X167710478Y-27054819D01*
X167710478Y-27054819D02*
X167853335Y-27102438D01*
X167853335Y-27102438D02*
X167900954Y-27150057D01*
X168853335Y-28054819D02*
X168281907Y-28054819D01*
X168567621Y-28054819D02*
X168567621Y-27054819D01*
X168567621Y-27054819D02*
X168472383Y-27197676D01*
X168472383Y-27197676D02*
X168377145Y-27292914D01*
X168377145Y-27292914D02*
X168281907Y-27340533D01*
X131753333Y-51824819D02*
X131420000Y-51348628D01*
X131181905Y-51824819D02*
X131181905Y-50824819D01*
X131181905Y-50824819D02*
X131562857Y-50824819D01*
X131562857Y-50824819D02*
X131658095Y-50872438D01*
X131658095Y-50872438D02*
X131705714Y-50920057D01*
X131705714Y-50920057D02*
X131753333Y-51015295D01*
X131753333Y-51015295D02*
X131753333Y-51158152D01*
X131753333Y-51158152D02*
X131705714Y-51253390D01*
X131705714Y-51253390D02*
X131658095Y-51301009D01*
X131658095Y-51301009D02*
X131562857Y-51348628D01*
X131562857Y-51348628D02*
X131181905Y-51348628D01*
X132134286Y-50920057D02*
X132181905Y-50872438D01*
X132181905Y-50872438D02*
X132277143Y-50824819D01*
X132277143Y-50824819D02*
X132515238Y-50824819D01*
X132515238Y-50824819D02*
X132610476Y-50872438D01*
X132610476Y-50872438D02*
X132658095Y-50920057D01*
X132658095Y-50920057D02*
X132705714Y-51015295D01*
X132705714Y-51015295D02*
X132705714Y-51110533D01*
X132705714Y-51110533D02*
X132658095Y-51253390D01*
X132658095Y-51253390D02*
X132086667Y-51824819D01*
X132086667Y-51824819D02*
X132705714Y-51824819D01*
X166593333Y-64259580D02*
X166545714Y-64307200D01*
X166545714Y-64307200D02*
X166402857Y-64354819D01*
X166402857Y-64354819D02*
X166307619Y-64354819D01*
X166307619Y-64354819D02*
X166164762Y-64307200D01*
X166164762Y-64307200D02*
X166069524Y-64211961D01*
X166069524Y-64211961D02*
X166021905Y-64116723D01*
X166021905Y-64116723D02*
X165974286Y-63926247D01*
X165974286Y-63926247D02*
X165974286Y-63783390D01*
X165974286Y-63783390D02*
X166021905Y-63592914D01*
X166021905Y-63592914D02*
X166069524Y-63497676D01*
X166069524Y-63497676D02*
X166164762Y-63402438D01*
X166164762Y-63402438D02*
X166307619Y-63354819D01*
X166307619Y-63354819D02*
X166402857Y-63354819D01*
X166402857Y-63354819D02*
X166545714Y-63402438D01*
X166545714Y-63402438D02*
X166593333Y-63450057D01*
X166974286Y-63450057D02*
X167021905Y-63402438D01*
X167021905Y-63402438D02*
X167117143Y-63354819D01*
X167117143Y-63354819D02*
X167355238Y-63354819D01*
X167355238Y-63354819D02*
X167450476Y-63402438D01*
X167450476Y-63402438D02*
X167498095Y-63450057D01*
X167498095Y-63450057D02*
X167545714Y-63545295D01*
X167545714Y-63545295D02*
X167545714Y-63640533D01*
X167545714Y-63640533D02*
X167498095Y-63783390D01*
X167498095Y-63783390D02*
X166926667Y-64354819D01*
X166926667Y-64354819D02*
X167545714Y-64354819D01*
X115954819Y-48785714D02*
X115954819Y-48166667D01*
X115954819Y-48166667D02*
X116335771Y-48500000D01*
X116335771Y-48500000D02*
X116335771Y-48357143D01*
X116335771Y-48357143D02*
X116383390Y-48261905D01*
X116383390Y-48261905D02*
X116431009Y-48214286D01*
X116431009Y-48214286D02*
X116526247Y-48166667D01*
X116526247Y-48166667D02*
X116764342Y-48166667D01*
X116764342Y-48166667D02*
X116859580Y-48214286D01*
X116859580Y-48214286D02*
X116907200Y-48261905D01*
X116907200Y-48261905D02*
X116954819Y-48357143D01*
X116954819Y-48357143D02*
X116954819Y-48642857D01*
X116954819Y-48642857D02*
X116907200Y-48738095D01*
X116907200Y-48738095D02*
X116859580Y-48785714D01*
X115954819Y-47880952D02*
X116954819Y-47547619D01*
X116954819Y-47547619D02*
X115954819Y-47214286D01*
X116431009Y-45785714D02*
X116478628Y-45642857D01*
X116478628Y-45642857D02*
X116526247Y-45595238D01*
X116526247Y-45595238D02*
X116621485Y-45547619D01*
X116621485Y-45547619D02*
X116764342Y-45547619D01*
X116764342Y-45547619D02*
X116859580Y-45595238D01*
X116859580Y-45595238D02*
X116907200Y-45642857D01*
X116907200Y-45642857D02*
X116954819Y-45738095D01*
X116954819Y-45738095D02*
X116954819Y-46119047D01*
X116954819Y-46119047D02*
X115954819Y-46119047D01*
X115954819Y-46119047D02*
X115954819Y-45785714D01*
X115954819Y-45785714D02*
X116002438Y-45690476D01*
X116002438Y-45690476D02*
X116050057Y-45642857D01*
X116050057Y-45642857D02*
X116145295Y-45595238D01*
X116145295Y-45595238D02*
X116240533Y-45595238D01*
X116240533Y-45595238D02*
X116335771Y-45642857D01*
X116335771Y-45642857D02*
X116383390Y-45690476D01*
X116383390Y-45690476D02*
X116431009Y-45785714D01*
X116431009Y-45785714D02*
X116431009Y-46119047D01*
X116954819Y-44690476D02*
X116431009Y-44690476D01*
X116431009Y-44690476D02*
X116335771Y-44738095D01*
X116335771Y-44738095D02*
X116288152Y-44833333D01*
X116288152Y-44833333D02*
X116288152Y-45023809D01*
X116288152Y-45023809D02*
X116335771Y-45119047D01*
X116907200Y-44690476D02*
X116954819Y-44785714D01*
X116954819Y-44785714D02*
X116954819Y-45023809D01*
X116954819Y-45023809D02*
X116907200Y-45119047D01*
X116907200Y-45119047D02*
X116811961Y-45166666D01*
X116811961Y-45166666D02*
X116716723Y-45166666D01*
X116716723Y-45166666D02*
X116621485Y-45119047D01*
X116621485Y-45119047D02*
X116573866Y-45023809D01*
X116573866Y-45023809D02*
X116573866Y-44785714D01*
X116573866Y-44785714D02*
X116526247Y-44690476D01*
X116288152Y-44357142D02*
X116288152Y-43976190D01*
X115954819Y-44214285D02*
X116811961Y-44214285D01*
X116811961Y-44214285D02*
X116907200Y-44166666D01*
X116907200Y-44166666D02*
X116954819Y-44071428D01*
X116954819Y-44071428D02*
X116954819Y-43976190D01*
X116288152Y-43785713D02*
X116288152Y-43404761D01*
X115954819Y-43642856D02*
X116811961Y-43642856D01*
X116811961Y-43642856D02*
X116907200Y-43595237D01*
X116907200Y-43595237D02*
X116954819Y-43499999D01*
X116954819Y-43499999D02*
X116954819Y-43404761D01*
X116907200Y-42690475D02*
X116954819Y-42785713D01*
X116954819Y-42785713D02*
X116954819Y-42976189D01*
X116954819Y-42976189D02*
X116907200Y-43071427D01*
X116907200Y-43071427D02*
X116811961Y-43119046D01*
X116811961Y-43119046D02*
X116431009Y-43119046D01*
X116431009Y-43119046D02*
X116335771Y-43071427D01*
X116335771Y-43071427D02*
X116288152Y-42976189D01*
X116288152Y-42976189D02*
X116288152Y-42785713D01*
X116288152Y-42785713D02*
X116335771Y-42690475D01*
X116335771Y-42690475D02*
X116431009Y-42642856D01*
X116431009Y-42642856D02*
X116526247Y-42642856D01*
X116526247Y-42642856D02*
X116621485Y-43119046D01*
X116954819Y-42214284D02*
X116288152Y-42214284D01*
X116478628Y-42214284D02*
X116383390Y-42166665D01*
X116383390Y-42166665D02*
X116335771Y-42119046D01*
X116335771Y-42119046D02*
X116288152Y-42023808D01*
X116288152Y-42023808D02*
X116288152Y-41928570D01*
X116288152Y-41690474D02*
X116954819Y-41452379D01*
X116288152Y-41214284D02*
X116954819Y-41452379D01*
X116954819Y-41452379D02*
X117192914Y-41547617D01*
X117192914Y-41547617D02*
X117240533Y-41595236D01*
X117240533Y-41595236D02*
X117288152Y-41690474D01*
X153864761Y-23990057D02*
X153769523Y-23942438D01*
X153769523Y-23942438D02*
X153674285Y-23847200D01*
X153674285Y-23847200D02*
X153531428Y-23704342D01*
X153531428Y-23704342D02*
X153436190Y-23656723D01*
X153436190Y-23656723D02*
X153340952Y-23656723D01*
X153388571Y-23894819D02*
X153293333Y-23847200D01*
X153293333Y-23847200D02*
X153198095Y-23751961D01*
X153198095Y-23751961D02*
X153150476Y-23561485D01*
X153150476Y-23561485D02*
X153150476Y-23228152D01*
X153150476Y-23228152D02*
X153198095Y-23037676D01*
X153198095Y-23037676D02*
X153293333Y-22942438D01*
X153293333Y-22942438D02*
X153388571Y-22894819D01*
X153388571Y-22894819D02*
X153579047Y-22894819D01*
X153579047Y-22894819D02*
X153674285Y-22942438D01*
X153674285Y-22942438D02*
X153769523Y-23037676D01*
X153769523Y-23037676D02*
X153817142Y-23228152D01*
X153817142Y-23228152D02*
X153817142Y-23561485D01*
X153817142Y-23561485D02*
X153769523Y-23751961D01*
X153769523Y-23751961D02*
X153674285Y-23847200D01*
X153674285Y-23847200D02*
X153579047Y-23894819D01*
X153579047Y-23894819D02*
X153388571Y-23894819D01*
X154769523Y-23894819D02*
X154198095Y-23894819D01*
X154483809Y-23894819D02*
X154483809Y-22894819D01*
X154483809Y-22894819D02*
X154388571Y-23037676D01*
X154388571Y-23037676D02*
X154293333Y-23132914D01*
X154293333Y-23132914D02*
X154198095Y-23180533D01*
X150760428Y-25153157D02*
X150803285Y-25110300D01*
X150803285Y-25110300D02*
X150931857Y-25067442D01*
X150931857Y-25067442D02*
X151017571Y-25067442D01*
X151017571Y-25067442D02*
X151146142Y-25110300D01*
X151146142Y-25110300D02*
X151231857Y-25196014D01*
X151231857Y-25196014D02*
X151274714Y-25281728D01*
X151274714Y-25281728D02*
X151317571Y-25453157D01*
X151317571Y-25453157D02*
X151317571Y-25581728D01*
X151317571Y-25581728D02*
X151274714Y-25753157D01*
X151274714Y-25753157D02*
X151231857Y-25838871D01*
X151231857Y-25838871D02*
X151146142Y-25924585D01*
X151146142Y-25924585D02*
X151017571Y-25967442D01*
X151017571Y-25967442D02*
X150931857Y-25967442D01*
X150931857Y-25967442D02*
X150803285Y-25924585D01*
X150803285Y-25924585D02*
X150760428Y-25881728D01*
X157073857Y-25538871D02*
X156773857Y-25538871D01*
X156645285Y-25067442D02*
X157073857Y-25067442D01*
X157073857Y-25067442D02*
X157073857Y-25967442D01*
X157073857Y-25967442D02*
X156645285Y-25967442D01*
X153935714Y-25538871D02*
X153807142Y-25496014D01*
X153807142Y-25496014D02*
X153764285Y-25453157D01*
X153764285Y-25453157D02*
X153721428Y-25367442D01*
X153721428Y-25367442D02*
X153721428Y-25238871D01*
X153721428Y-25238871D02*
X153764285Y-25153157D01*
X153764285Y-25153157D02*
X153807142Y-25110300D01*
X153807142Y-25110300D02*
X153892857Y-25067442D01*
X153892857Y-25067442D02*
X154235714Y-25067442D01*
X154235714Y-25067442D02*
X154235714Y-25967442D01*
X154235714Y-25967442D02*
X153935714Y-25967442D01*
X153935714Y-25967442D02*
X153850000Y-25924585D01*
X153850000Y-25924585D02*
X153807142Y-25881728D01*
X153807142Y-25881728D02*
X153764285Y-25796014D01*
X153764285Y-25796014D02*
X153764285Y-25710300D01*
X153764285Y-25710300D02*
X153807142Y-25624585D01*
X153807142Y-25624585D02*
X153850000Y-25581728D01*
X153850000Y-25581728D02*
X153935714Y-25538871D01*
X153935714Y-25538871D02*
X154235714Y-25538871D01*
D12*
%TO.C,Q2*%
X153500000Y-59400000D02*
G75*
G02*
X155856400Y-60901193I0J-2600000D01*
G01*
X151143600Y-60901193D02*
G75*
G02*
X153500000Y-59400000I2356400J-1098807D01*
G01*
X151700000Y-63850000D02*
G75*
G02*
X151175816Y-63122795I1800000J1850000D01*
G01*
X155824184Y-63122795D02*
G75*
G02*
X155300000Y-63850000I-2324184J1122795D01*
G01*
X151700000Y-63850000D02*
X155300000Y-63850000D01*
%TO.C,LED2*%
X137290000Y-28736000D02*
X137290000Y-28550000D01*
X137290000Y-26450000D02*
X137290000Y-26264000D01*
X136301500Y-28643000D02*
X135793500Y-29151000D01*
X136047500Y-28071500D02*
X136047500Y-26928500D01*
X135666500Y-28643000D02*
X135158500Y-29151000D01*
X137290000Y-28735516D02*
G75*
G02*
X134057665Y-28578608I-1560000J1235516D01*
G01*
X134057665Y-26421392D02*
G75*
G02*
X137290000Y-26264484I1672335J-1078608D01*
G01*
X136047500Y-29151000D02*
X135793500Y-29151000D01*
X135793500Y-28897000D01*
X136047500Y-29151000D01*
G36*
X136047500Y-29151000D02*
G01*
X135793500Y-29151000D01*
X135793500Y-28897000D01*
X136047500Y-29151000D01*
G37*
X136047500Y-27500000D02*
X135412500Y-28071500D01*
X135412500Y-26928500D01*
X136047500Y-27500000D01*
G36*
X136047500Y-27500000D02*
G01*
X135412500Y-28071500D01*
X135412500Y-26928500D01*
X136047500Y-27500000D01*
G37*
X135412500Y-29151000D02*
X135158500Y-29151000D01*
X135158500Y-28897000D01*
X135412500Y-29151000D01*
G36*
X135412500Y-29151000D02*
G01*
X135158500Y-29151000D01*
X135158500Y-28897000D01*
X135412500Y-29151000D01*
G37*
%TO.C,LED1*%
X137290000Y-64736000D02*
X137290000Y-64550000D01*
X137290000Y-62450000D02*
X137290000Y-62264000D01*
X136301500Y-64643000D02*
X135793500Y-65151000D01*
X136047500Y-64071500D02*
X136047500Y-62928500D01*
X135666500Y-64643000D02*
X135158500Y-65151000D01*
X137290000Y-64735516D02*
G75*
G02*
X134057665Y-64578608I-1560000J1235516D01*
G01*
X134057665Y-62421392D02*
G75*
G02*
X137290000Y-62264484I1672335J-1078608D01*
G01*
X136047500Y-65151000D02*
X135793500Y-65151000D01*
X135793500Y-64897000D01*
X136047500Y-65151000D01*
G36*
X136047500Y-65151000D02*
G01*
X135793500Y-65151000D01*
X135793500Y-64897000D01*
X136047500Y-65151000D01*
G37*
X136047500Y-63500000D02*
X135412500Y-64071500D01*
X135412500Y-62928500D01*
X136047500Y-63500000D01*
G36*
X136047500Y-63500000D02*
G01*
X135412500Y-64071500D01*
X135412500Y-62928500D01*
X136047500Y-63500000D01*
G37*
X135412500Y-65151000D02*
X135158500Y-65151000D01*
X135158500Y-64897000D01*
X135412500Y-65151000D01*
G36*
X135412500Y-65151000D02*
G01*
X135158500Y-65151000D01*
X135158500Y-64897000D01*
X135412500Y-65151000D01*
G37*
%TO.C,R1*%
X127880000Y-42000000D02*
X128650000Y-42000000D01*
X128650000Y-40630000D02*
X128650000Y-43370000D01*
X128650000Y-43370000D02*
X135190000Y-43370000D01*
X135190000Y-40630000D02*
X128650000Y-40630000D01*
X135190000Y-43370000D02*
X135190000Y-40630000D01*
X135960000Y-42000000D02*
X135190000Y-42000000D01*
%TO.C,C1*%
X164567380Y-30161000D02*
X165197380Y-30161000D01*
X164882380Y-29846000D02*
X164882380Y-30476000D01*
X168067621Y-28770000D02*
X168067621Y-35230000D01*
X168107621Y-28770000D02*
X168107621Y-35230000D01*
X168147621Y-28770000D02*
X168147621Y-35230000D01*
X168187621Y-28772000D02*
X168187621Y-35228000D01*
X168227621Y-28773000D02*
X168227621Y-35227000D01*
X168267621Y-28776000D02*
X168267621Y-35224000D01*
X168307621Y-28778000D02*
X168307621Y-30960000D01*
X168307621Y-33040000D02*
X168307621Y-35222000D01*
X168347621Y-28782000D02*
X168347621Y-30960000D01*
X168347621Y-33040000D02*
X168347621Y-35218000D01*
X168387621Y-28785000D02*
X168387621Y-30960000D01*
X168387621Y-33040000D02*
X168387621Y-35215000D01*
X168427621Y-28789000D02*
X168427621Y-30960000D01*
X168427621Y-33040000D02*
X168427621Y-35211000D01*
X168467621Y-28794000D02*
X168467621Y-30960000D01*
X168467621Y-33040000D02*
X168467621Y-35206000D01*
X168507621Y-28799000D02*
X168507621Y-30960000D01*
X168507621Y-33040000D02*
X168507621Y-35201000D01*
X168547621Y-28805000D02*
X168547621Y-30960000D01*
X168547621Y-33040000D02*
X168547621Y-35195000D01*
X168587621Y-28811000D02*
X168587621Y-30960000D01*
X168587621Y-33040000D02*
X168587621Y-35189000D01*
X168627621Y-28818000D02*
X168627621Y-30960000D01*
X168627621Y-33040000D02*
X168627621Y-35182000D01*
X168667621Y-28825000D02*
X168667621Y-30960000D01*
X168667621Y-33040000D02*
X168667621Y-35175000D01*
X168707621Y-28833000D02*
X168707621Y-30960000D01*
X168707621Y-33040000D02*
X168707621Y-35167000D01*
X168747621Y-28841000D02*
X168747621Y-30960000D01*
X168747621Y-33040000D02*
X168747621Y-35159000D01*
X168788621Y-28850000D02*
X168788621Y-30960000D01*
X168788621Y-33040000D02*
X168788621Y-35150000D01*
X168828621Y-28859000D02*
X168828621Y-30960000D01*
X168828621Y-33040000D02*
X168828621Y-35141000D01*
X168868621Y-28869000D02*
X168868621Y-30960000D01*
X168868621Y-33040000D02*
X168868621Y-35131000D01*
X168908621Y-28879000D02*
X168908621Y-30960000D01*
X168908621Y-33040000D02*
X168908621Y-35121000D01*
X168948621Y-28890000D02*
X168948621Y-30960000D01*
X168948621Y-33040000D02*
X168948621Y-35110000D01*
X168988621Y-28902000D02*
X168988621Y-30960000D01*
X168988621Y-33040000D02*
X168988621Y-35098000D01*
X169028621Y-28914000D02*
X169028621Y-30960000D01*
X169028621Y-33040000D02*
X169028621Y-35086000D01*
X169068621Y-28926000D02*
X169068621Y-30960000D01*
X169068621Y-33040000D02*
X169068621Y-35074000D01*
X169108621Y-28939000D02*
X169108621Y-30960000D01*
X169108621Y-33040000D02*
X169108621Y-35061000D01*
X169148621Y-28953000D02*
X169148621Y-30960000D01*
X169148621Y-33040000D02*
X169148621Y-35047000D01*
X169188621Y-28967000D02*
X169188621Y-30960000D01*
X169188621Y-33040000D02*
X169188621Y-35033000D01*
X169228621Y-28982000D02*
X169228621Y-30960000D01*
X169228621Y-33040000D02*
X169228621Y-35018000D01*
X169268621Y-28998000D02*
X169268621Y-30960000D01*
X169268621Y-33040000D02*
X169268621Y-35002000D01*
X169308621Y-29014000D02*
X169308621Y-30960000D01*
X169308621Y-33040000D02*
X169308621Y-34986000D01*
X169348621Y-29030000D02*
X169348621Y-30960000D01*
X169348621Y-33040000D02*
X169348621Y-34970000D01*
X169388621Y-29048000D02*
X169388621Y-30960000D01*
X169388621Y-33040000D02*
X169388621Y-34952000D01*
X169428621Y-29066000D02*
X169428621Y-30960000D01*
X169428621Y-33040000D02*
X169428621Y-34934000D01*
X169468621Y-29084000D02*
X169468621Y-30960000D01*
X169468621Y-33040000D02*
X169468621Y-34916000D01*
X169508621Y-29104000D02*
X169508621Y-30960000D01*
X169508621Y-33040000D02*
X169508621Y-34896000D01*
X169548621Y-29124000D02*
X169548621Y-30960000D01*
X169548621Y-33040000D02*
X169548621Y-34876000D01*
X169588621Y-29144000D02*
X169588621Y-30960000D01*
X169588621Y-33040000D02*
X169588621Y-34856000D01*
X169628621Y-29166000D02*
X169628621Y-30960000D01*
X169628621Y-33040000D02*
X169628621Y-34834000D01*
X169668621Y-29188000D02*
X169668621Y-30960000D01*
X169668621Y-33040000D02*
X169668621Y-34812000D01*
X169708621Y-29210000D02*
X169708621Y-30960000D01*
X169708621Y-33040000D02*
X169708621Y-34790000D01*
X169748621Y-29234000D02*
X169748621Y-30960000D01*
X169748621Y-33040000D02*
X169748621Y-34766000D01*
X169788621Y-29258000D02*
X169788621Y-30960000D01*
X169788621Y-33040000D02*
X169788621Y-34742000D01*
X169828621Y-29284000D02*
X169828621Y-30960000D01*
X169828621Y-33040000D02*
X169828621Y-34716000D01*
X169868621Y-29310000D02*
X169868621Y-30960000D01*
X169868621Y-33040000D02*
X169868621Y-34690000D01*
X169908621Y-29336000D02*
X169908621Y-30960000D01*
X169908621Y-33040000D02*
X169908621Y-34664000D01*
X169948621Y-29364000D02*
X169948621Y-30960000D01*
X169948621Y-33040000D02*
X169948621Y-34636000D01*
X169988621Y-29393000D02*
X169988621Y-30960000D01*
X169988621Y-33040000D02*
X169988621Y-34607000D01*
X170028621Y-29422000D02*
X170028621Y-30960000D01*
X170028621Y-33040000D02*
X170028621Y-34578000D01*
X170068621Y-29452000D02*
X170068621Y-30960000D01*
X170068621Y-33040000D02*
X170068621Y-34548000D01*
X170108621Y-29484000D02*
X170108621Y-30960000D01*
X170108621Y-33040000D02*
X170108621Y-34516000D01*
X170148621Y-29516000D02*
X170148621Y-30960000D01*
X170148621Y-33040000D02*
X170148621Y-34484000D01*
X170188621Y-29550000D02*
X170188621Y-30960000D01*
X170188621Y-33040000D02*
X170188621Y-34450000D01*
X170228621Y-29584000D02*
X170228621Y-30960000D01*
X170228621Y-33040000D02*
X170228621Y-34416000D01*
X170268621Y-29620000D02*
X170268621Y-30960000D01*
X170268621Y-33040000D02*
X170268621Y-34380000D01*
X170308621Y-29657000D02*
X170308621Y-30960000D01*
X170308621Y-33040000D02*
X170308621Y-34343000D01*
X170348621Y-29695000D02*
X170348621Y-30960000D01*
X170348621Y-33040000D02*
X170348621Y-34305000D01*
X170388621Y-29735000D02*
X170388621Y-34265000D01*
X170428621Y-29776000D02*
X170428621Y-34224000D01*
X170468621Y-29818000D02*
X170468621Y-34182000D01*
X170508621Y-29863000D02*
X170508621Y-34137000D01*
X170548621Y-29908000D02*
X170548621Y-34092000D01*
X170588621Y-29956000D02*
X170588621Y-34044000D01*
X170628621Y-30005000D02*
X170628621Y-33995000D01*
X170668621Y-30056000D02*
X170668621Y-33944000D01*
X170708621Y-30110000D02*
X170708621Y-33890000D01*
X170748621Y-30166000D02*
X170748621Y-33834000D01*
X170788621Y-30224000D02*
X170788621Y-33776000D01*
X170828621Y-30286000D02*
X170828621Y-33714000D01*
X170868621Y-30350000D02*
X170868621Y-33650000D01*
X170908621Y-30419000D02*
X170908621Y-33581000D01*
X170948621Y-30491000D02*
X170948621Y-33509000D01*
X170988621Y-30568000D02*
X170988621Y-33432000D01*
X171028621Y-30650000D02*
X171028621Y-33350000D01*
X171068621Y-30738000D02*
X171068621Y-33262000D01*
X171108621Y-30835000D02*
X171108621Y-33165000D01*
X171148621Y-30941000D02*
X171148621Y-33059000D01*
X171188621Y-31060000D02*
X171188621Y-32940000D01*
X171228621Y-31198000D02*
X171228621Y-32802000D01*
X171268621Y-31367000D02*
X171268621Y-32633000D01*
X171308621Y-31598000D02*
X171308621Y-32402000D01*
X171337621Y-32000000D02*
G75*
G02*
X164797621Y-32000000I-3270000J0D01*
G01*
X164797621Y-32000000D02*
G75*
G02*
X171337621Y-32000000I3270000J0D01*
G01*
%TO.C,R2*%
X127880000Y-49000000D02*
X128650000Y-49000000D01*
X128650000Y-47630000D02*
X128650000Y-50370000D01*
X128650000Y-50370000D02*
X135190000Y-50370000D01*
X135190000Y-47630000D02*
X128650000Y-47630000D01*
X135190000Y-50370000D02*
X135190000Y-47630000D01*
X135960000Y-49000000D02*
X135190000Y-49000000D01*
%TO.C,C2*%
X163519000Y-59902000D02*
X163519000Y-59098000D01*
X163559000Y-60133000D02*
X163559000Y-58867000D01*
X163599000Y-60302000D02*
X163599000Y-58698000D01*
X163639000Y-60440000D02*
X163639000Y-58560000D01*
X163679000Y-60559000D02*
X163679000Y-58441000D01*
X163719000Y-60665000D02*
X163719000Y-58335000D01*
X163759000Y-60762000D02*
X163759000Y-58238000D01*
X163799000Y-60850000D02*
X163799000Y-58150000D01*
X163839000Y-60932000D02*
X163839000Y-58068000D01*
X163879000Y-61009000D02*
X163879000Y-57991000D01*
X163919000Y-61081000D02*
X163919000Y-57919000D01*
X163959000Y-61150000D02*
X163959000Y-57850000D01*
X163999000Y-61214000D02*
X163999000Y-57786000D01*
X164039000Y-61276000D02*
X164039000Y-57724000D01*
X164079000Y-61334000D02*
X164079000Y-57666000D01*
X164119000Y-61390000D02*
X164119000Y-57610000D01*
X164159000Y-61444000D02*
X164159000Y-57556000D01*
X164199000Y-61495000D02*
X164199000Y-57505000D01*
X164239000Y-61544000D02*
X164239000Y-57456000D01*
X164279000Y-61592000D02*
X164279000Y-57408000D01*
X164319000Y-61637000D02*
X164319000Y-57363000D01*
X164359000Y-61682000D02*
X164359000Y-57318000D01*
X164399000Y-61724000D02*
X164399000Y-57276000D01*
X164439000Y-61765000D02*
X164439000Y-57235000D01*
X164479000Y-58460000D02*
X164479000Y-57195000D01*
X164479000Y-61805000D02*
X164479000Y-60540000D01*
X164519000Y-58460000D02*
X164519000Y-57157000D01*
X164519000Y-61843000D02*
X164519000Y-60540000D01*
X164559000Y-58460000D02*
X164559000Y-57120000D01*
X164559000Y-61880000D02*
X164559000Y-60540000D01*
X164599000Y-58460000D02*
X164599000Y-57084000D01*
X164599000Y-61916000D02*
X164599000Y-60540000D01*
X164639000Y-58460000D02*
X164639000Y-57050000D01*
X164639000Y-61950000D02*
X164639000Y-60540000D01*
X164679000Y-58460000D02*
X164679000Y-57016000D01*
X164679000Y-61984000D02*
X164679000Y-60540000D01*
X164719000Y-58460000D02*
X164719000Y-56984000D01*
X164719000Y-62016000D02*
X164719000Y-60540000D01*
X164759000Y-58460000D02*
X164759000Y-56952000D01*
X164759000Y-62048000D02*
X164759000Y-60540000D01*
X164799000Y-58460000D02*
X164799000Y-56922000D01*
X164799000Y-62078000D02*
X164799000Y-60540000D01*
X164839000Y-58460000D02*
X164839000Y-56893000D01*
X164839000Y-62107000D02*
X164839000Y-60540000D01*
X164879000Y-58460000D02*
X164879000Y-56864000D01*
X164879000Y-62136000D02*
X164879000Y-60540000D01*
X164919000Y-58460000D02*
X164919000Y-56836000D01*
X164919000Y-62164000D02*
X164919000Y-60540000D01*
X164959000Y-58460000D02*
X164959000Y-56810000D01*
X164959000Y-62190000D02*
X164959000Y-60540000D01*
X164999000Y-58460000D02*
X164999000Y-56784000D01*
X164999000Y-62216000D02*
X164999000Y-60540000D01*
X165039000Y-58460000D02*
X165039000Y-56758000D01*
X165039000Y-62242000D02*
X165039000Y-60540000D01*
X165079000Y-58460000D02*
X165079000Y-56734000D01*
X165079000Y-62266000D02*
X165079000Y-60540000D01*
X165119000Y-58460000D02*
X165119000Y-56710000D01*
X165119000Y-62290000D02*
X165119000Y-60540000D01*
X165159000Y-58460000D02*
X165159000Y-56688000D01*
X165159000Y-62312000D02*
X165159000Y-60540000D01*
X165199000Y-58460000D02*
X165199000Y-56666000D01*
X165199000Y-62334000D02*
X165199000Y-60540000D01*
X165239000Y-58460000D02*
X165239000Y-56644000D01*
X165239000Y-62356000D02*
X165239000Y-60540000D01*
X165279000Y-58460000D02*
X165279000Y-56624000D01*
X165279000Y-62376000D02*
X165279000Y-60540000D01*
X165319000Y-58460000D02*
X165319000Y-56604000D01*
X165319000Y-62396000D02*
X165319000Y-60540000D01*
X165359000Y-58460000D02*
X165359000Y-56584000D01*
X165359000Y-62416000D02*
X165359000Y-60540000D01*
X165399000Y-58460000D02*
X165399000Y-56566000D01*
X165399000Y-62434000D02*
X165399000Y-60540000D01*
X165439000Y-58460000D02*
X165439000Y-56548000D01*
X165439000Y-62452000D02*
X165439000Y-60540000D01*
X165479000Y-58460000D02*
X165479000Y-56530000D01*
X165479000Y-62470000D02*
X165479000Y-60540000D01*
X165519000Y-58460000D02*
X165519000Y-56514000D01*
X165519000Y-62486000D02*
X165519000Y-60540000D01*
X165559000Y-58460000D02*
X165559000Y-56498000D01*
X165559000Y-62502000D02*
X165559000Y-60540000D01*
X165599000Y-58460000D02*
X165599000Y-56482000D01*
X165599000Y-62518000D02*
X165599000Y-60540000D01*
X165639000Y-58460000D02*
X165639000Y-56467000D01*
X165639000Y-62533000D02*
X165639000Y-60540000D01*
X165679000Y-58460000D02*
X165679000Y-56453000D01*
X165679000Y-62547000D02*
X165679000Y-60540000D01*
X165719000Y-58460000D02*
X165719000Y-56439000D01*
X165719000Y-62561000D02*
X165719000Y-60540000D01*
X165759000Y-58460000D02*
X165759000Y-56426000D01*
X165759000Y-62574000D02*
X165759000Y-60540000D01*
X165799000Y-58460000D02*
X165799000Y-56414000D01*
X165799000Y-62586000D02*
X165799000Y-60540000D01*
X165839000Y-58460000D02*
X165839000Y-56402000D01*
X165839000Y-62598000D02*
X165839000Y-60540000D01*
X165879000Y-58460000D02*
X165879000Y-56390000D01*
X165879000Y-62610000D02*
X165879000Y-60540000D01*
X165919000Y-58460000D02*
X165919000Y-56379000D01*
X165919000Y-62621000D02*
X165919000Y-60540000D01*
X165959000Y-58460000D02*
X165959000Y-56369000D01*
X165959000Y-62631000D02*
X165959000Y-60540000D01*
X165999000Y-58460000D02*
X165999000Y-56359000D01*
X165999000Y-62641000D02*
X165999000Y-60540000D01*
X166039000Y-58460000D02*
X166039000Y-56350000D01*
X166039000Y-62650000D02*
X166039000Y-60540000D01*
X166080000Y-58460000D02*
X166080000Y-56341000D01*
X166080000Y-62659000D02*
X166080000Y-60540000D01*
X166120000Y-58460000D02*
X166120000Y-56333000D01*
X166120000Y-62667000D02*
X166120000Y-60540000D01*
X166160000Y-58460000D02*
X166160000Y-56325000D01*
X166160000Y-62675000D02*
X166160000Y-60540000D01*
X166200000Y-58460000D02*
X166200000Y-56318000D01*
X166200000Y-62682000D02*
X166200000Y-60540000D01*
X166240000Y-58460000D02*
X166240000Y-56311000D01*
X166240000Y-62689000D02*
X166240000Y-60540000D01*
X166280000Y-58460000D02*
X166280000Y-56305000D01*
X166280000Y-62695000D02*
X166280000Y-60540000D01*
X166320000Y-58460000D02*
X166320000Y-56299000D01*
X166320000Y-62701000D02*
X166320000Y-60540000D01*
X166360000Y-58460000D02*
X166360000Y-56294000D01*
X166360000Y-62706000D02*
X166360000Y-60540000D01*
X166400000Y-58460000D02*
X166400000Y-56289000D01*
X166400000Y-62711000D02*
X166400000Y-60540000D01*
X166440000Y-58460000D02*
X166440000Y-56285000D01*
X166440000Y-62715000D02*
X166440000Y-60540000D01*
X166480000Y-58460000D02*
X166480000Y-56282000D01*
X166480000Y-62718000D02*
X166480000Y-60540000D01*
X166520000Y-58460000D02*
X166520000Y-56278000D01*
X166520000Y-62722000D02*
X166520000Y-60540000D01*
X166560000Y-62724000D02*
X166560000Y-56276000D01*
X166600000Y-62727000D02*
X166600000Y-56273000D01*
X166640000Y-62728000D02*
X166640000Y-56272000D01*
X166680000Y-62730000D02*
X166680000Y-56270000D01*
X166720000Y-62730000D02*
X166720000Y-56270000D01*
X166760000Y-62730000D02*
X166760000Y-56270000D01*
X169945241Y-61654000D02*
X169945241Y-61024000D01*
X170260241Y-61339000D02*
X169630241Y-61339000D01*
X170030000Y-59500000D02*
G75*
G02*
X163490000Y-59500000I-3270000J0D01*
G01*
X163490000Y-59500000D02*
G75*
G02*
X170030000Y-59500000I3270000J0D01*
G01*
%TO.C,3V Battery*%
X111944087Y-39390000D02*
X115119087Y-39390000D01*
X115119087Y-39390000D02*
X115119087Y-50610000D01*
X115119087Y-50610000D02*
X111944087Y-50610000D01*
X111944087Y-50610000D02*
G75*
G02*
X111944087Y-39390000I-12435000J5610000D01*
G01*
%TO.C,Q1*%
X152160000Y-28850000D02*
X155760000Y-28850000D01*
X151603600Y-25901193D02*
G75*
G02*
X153960000Y-24400000I2356400J-1098807D01*
G01*
X152160000Y-28850000D02*
G75*
G02*
X151635816Y-28122795I1800000J1850000D01*
G01*
X153960000Y-24400000D02*
G75*
G02*
X156316400Y-25901193I0J-2600000D01*
G01*
X156284184Y-28122795D02*
G75*
G02*
X155760000Y-28850000I-2324184J1122795D01*
G01*
%TD*%
M02*
