%TF.GenerationSoftware,KiCad,Pcbnew,8.0.5*%
%TF.CreationDate,2024-10-12T16:34:49-07:00*%
%TF.ProjectId,IEEE soldering project,49454545-2073-46f6-9c64-6572696e6720,rev?*%
%TF.SameCoordinates,Original*%
%TF.FileFunction,Copper,L2,Bot*%
%TF.FilePolarity,Positive*%
%FSLAX46Y46*%
G04 Gerber Fmt 4.6, Leading zero omitted, Abs format (unit mm)*
G04 Created by KiCad (PCBNEW 8.0.5) date 2024-10-12 16:34:49*
%MOMM*%
%LPD*%
G01*
G04 APERTURE LIST*
%TA.AperFunction,ComponentPad*%
%ADD10R,2.540000X2.540000*%
%TD*%
%TA.AperFunction,ComponentPad*%
%ADD11C,2.540000*%
%TD*%
%TA.AperFunction,ComponentPad*%
%ADD12R,1.500000X1.500000*%
%TD*%
%TA.AperFunction,ComponentPad*%
%ADD13C,1.500000*%
%TD*%
%TA.AperFunction,ComponentPad*%
%ADD14O,1.800000X1.400000*%
%TD*%
%TA.AperFunction,ComponentPad*%
%ADD15R,1.800000X1.400000*%
%TD*%
%TA.AperFunction,ComponentPad*%
%ADD16O,1.600000X1.600000*%
%TD*%
%TA.AperFunction,ComponentPad*%
%ADD17C,1.600000*%
%TD*%
%TA.AperFunction,ComponentPad*%
%ADD18R,1.600000X1.600000*%
%TD*%
%TA.AperFunction,Conductor*%
%ADD19C,0.300000*%
%TD*%
G04 APERTURE END LIST*
D10*
%TO.P,U1,1,+*%
%TO.N,Net-(LED1-A)*%
X184987818Y-70000000D03*
D11*
%TO.P,U1,2,-*%
%TO.N,Net-(Q1-E)*%
X175005618Y-70000000D03*
%TD*%
D12*
%TO.P,Q2,1,C*%
%TO.N,Net-(LED1-K)*%
X229000000Y-77500000D03*
D13*
%TO.P,Q2,2,B*%
%TO.N,Net-(Q2-B)*%
X229000000Y-80040000D03*
%TO.P,Q2,3,E*%
%TO.N,Net-(Q1-E)*%
X229000000Y-82580000D03*
%TD*%
D14*
%TO.P,LED2,2,A*%
%TO.N,Net-(LED1-A)*%
X210500000Y-61265000D03*
D15*
%TO.P,LED2,1,K*%
%TO.N,Net-(LED2-K)*%
X210500000Y-58725000D03*
%TD*%
%TO.P,LED1,1,K*%
%TO.N,Net-(LED1-K)*%
X210500000Y-80500000D03*
D14*
%TO.P,LED1,2,A*%
%TO.N,Net-(LED1-A)*%
X210500000Y-77960000D03*
%TD*%
D16*
%TO.P,R1,2*%
%TO.N,Net-(LED1-A)*%
X195000000Y-65000000D03*
D17*
%TO.P,R1,1*%
%TO.N,Net-(Q1-B)*%
X205160000Y-65000000D03*
%TD*%
D18*
%TO.P,C1,1*%
%TO.N,Net-(LED1-K)*%
X220000000Y-76000000D03*
D17*
%TO.P,C1,2*%
%TO.N,Net-(Q1-B)*%
X220000000Y-73500000D03*
%TD*%
%TO.P,R2,1*%
%TO.N,Net-(Q2-B)*%
X205160000Y-75000000D03*
D16*
%TO.P,R2,2*%
%TO.N,Net-(LED1-A)*%
X195000000Y-75000000D03*
%TD*%
D18*
%TO.P,C2,1*%
%TO.N,Net-(LED2-K)*%
X220000000Y-65000000D03*
D17*
%TO.P,C2,2*%
%TO.N,Net-(Q2-B)*%
X220000000Y-62500000D03*
%TD*%
D12*
%TO.P,Q1,1,C*%
%TO.N,Net-(LED2-K)*%
X229500000Y-56920000D03*
D13*
%TO.P,Q1,2,B*%
%TO.N,Net-(Q1-B)*%
X229500000Y-59460000D03*
%TO.P,Q1,3,E*%
%TO.N,Net-(Q1-E)*%
X229500000Y-62000000D03*
%TD*%
D19*
%TO.N,Net-(Q2-B)*%
X222000000Y-64500000D02*
X220000000Y-62500000D01*
X222000000Y-73040000D02*
X222000000Y-64500000D01*
X229000000Y-80040000D02*
X222000000Y-73040000D01*
%TO.N,Net-(Q1-B)*%
X205160000Y-65000000D02*
X211500000Y-65000000D01*
X211500000Y-65000000D02*
X220000000Y-73500000D01*
%TD*%
%TA.AperFunction,Conductor*%
%TO.N,Net-(Q1-E)*%
G36*
X228504320Y-55519685D02*
G01*
X228550075Y-55572489D01*
X228560019Y-55641647D01*
X228530994Y-55705203D01*
X228511593Y-55723266D01*
X228392452Y-55812455D01*
X228306206Y-55927664D01*
X228306202Y-55927671D01*
X228255908Y-56062517D01*
X228249501Y-56122116D01*
X228249501Y-56122123D01*
X228249500Y-56122135D01*
X228249500Y-57717870D01*
X228249501Y-57717876D01*
X228255908Y-57777483D01*
X228306202Y-57912328D01*
X228306206Y-57912335D01*
X228392452Y-58027544D01*
X228392455Y-58027547D01*
X228507664Y-58113793D01*
X228507671Y-58113797D01*
X228642517Y-58164091D01*
X228642516Y-58164091D01*
X228649444Y-58164835D01*
X228702127Y-58170500D01*
X228768139Y-58170499D01*
X228835176Y-58190183D01*
X228880932Y-58242986D01*
X228890876Y-58312144D01*
X228861852Y-58375700D01*
X228839262Y-58396074D01*
X228693118Y-58498405D01*
X228538402Y-58653121D01*
X228412900Y-58832357D01*
X228412898Y-58832361D01*
X228320426Y-59030668D01*
X228320422Y-59030677D01*
X228263793Y-59242020D01*
X228263793Y-59242023D01*
X228244723Y-59460000D01*
X228262861Y-59667328D01*
X228263793Y-59677975D01*
X228263793Y-59677979D01*
X228320422Y-59889322D01*
X228320424Y-59889326D01*
X228320425Y-59889330D01*
X228341536Y-59934602D01*
X228412897Y-60087638D01*
X228412898Y-60087639D01*
X228538402Y-60266877D01*
X228693123Y-60421598D01*
X228872360Y-60547101D01*
X228872361Y-60547102D01*
X229024175Y-60617894D01*
X229076614Y-60664066D01*
X229095766Y-60731260D01*
X229075550Y-60798141D01*
X229024175Y-60842658D01*
X228872613Y-60913333D01*
X228810428Y-60956874D01*
X229453554Y-61600000D01*
X229447339Y-61600000D01*
X229345606Y-61627259D01*
X229254394Y-61679920D01*
X229179920Y-61754394D01*
X229127259Y-61845606D01*
X229100000Y-61947339D01*
X229100000Y-61953554D01*
X228456874Y-61310428D01*
X228413333Y-61372613D01*
X228320898Y-61570840D01*
X228320894Y-61570849D01*
X228264289Y-61782105D01*
X228264287Y-61782115D01*
X228245225Y-61999999D01*
X228245225Y-62000000D01*
X228264287Y-62217884D01*
X228264289Y-62217894D01*
X228320894Y-62429150D01*
X228320898Y-62429159D01*
X228413333Y-62627387D01*
X228456874Y-62689571D01*
X229100000Y-62046445D01*
X229100000Y-62052661D01*
X229127259Y-62154394D01*
X229179920Y-62245606D01*
X229254394Y-62320080D01*
X229345606Y-62372741D01*
X229447339Y-62400000D01*
X229453553Y-62400000D01*
X228810427Y-63043124D01*
X228872612Y-63086666D01*
X229070840Y-63179101D01*
X229070849Y-63179105D01*
X229282105Y-63235710D01*
X229282115Y-63235712D01*
X229499999Y-63254775D01*
X229500001Y-63254775D01*
X229717884Y-63235712D01*
X229717894Y-63235710D01*
X229929150Y-63179105D01*
X229929164Y-63179100D01*
X230127383Y-63086669D01*
X230127385Y-63086668D01*
X230189571Y-63043124D01*
X229546448Y-62400000D01*
X229552661Y-62400000D01*
X229654394Y-62372741D01*
X229745606Y-62320080D01*
X229820080Y-62245606D01*
X229872741Y-62154394D01*
X229900000Y-62052661D01*
X229900000Y-62046446D01*
X230543124Y-62689570D01*
X230586668Y-62627385D01*
X230586669Y-62627383D01*
X230679100Y-62429164D01*
X230679105Y-62429150D01*
X230735710Y-62217894D01*
X230735712Y-62217884D01*
X230754775Y-62000000D01*
X230754775Y-61999999D01*
X230735712Y-61782115D01*
X230735710Y-61782105D01*
X230679105Y-61570849D01*
X230679101Y-61570840D01*
X230586667Y-61372614D01*
X230586666Y-61372612D01*
X230543124Y-61310428D01*
X230543124Y-61310427D01*
X229900000Y-61953551D01*
X229900000Y-61947339D01*
X229872741Y-61845606D01*
X229820080Y-61754394D01*
X229745606Y-61679920D01*
X229654394Y-61627259D01*
X229552661Y-61600000D01*
X229546447Y-61600000D01*
X230189571Y-60956874D01*
X230127387Y-60913333D01*
X229975824Y-60842658D01*
X229923385Y-60796486D01*
X229904233Y-60729292D01*
X229924449Y-60662411D01*
X229975822Y-60617895D01*
X230127639Y-60547102D01*
X230306877Y-60421598D01*
X230461598Y-60266877D01*
X230587102Y-60087639D01*
X230679575Y-59889330D01*
X230736207Y-59677977D01*
X230755277Y-59460000D01*
X230736207Y-59242023D01*
X230679575Y-59030670D01*
X230587102Y-58832362D01*
X230587100Y-58832359D01*
X230587099Y-58832357D01*
X230461599Y-58653124D01*
X230461596Y-58653121D01*
X230306877Y-58498402D01*
X230160733Y-58396071D01*
X230117112Y-58341497D01*
X230109919Y-58271998D01*
X230141441Y-58209644D01*
X230201671Y-58174230D01*
X230231859Y-58170499D01*
X230297872Y-58170499D01*
X230357483Y-58164091D01*
X230492331Y-58113796D01*
X230607546Y-58027546D01*
X230693796Y-57912331D01*
X230744091Y-57777483D01*
X230750500Y-57717873D01*
X230750499Y-56122128D01*
X230744091Y-56062517D01*
X230693796Y-55927669D01*
X230693795Y-55927668D01*
X230693793Y-55927664D01*
X230607547Y-55812455D01*
X230488407Y-55723266D01*
X230446537Y-55667332D01*
X230441553Y-55597641D01*
X230475039Y-55536318D01*
X230536362Y-55502833D01*
X230562719Y-55500000D01*
X233876000Y-55500000D01*
X233943039Y-55519685D01*
X233988794Y-55572489D01*
X234000000Y-55624000D01*
X234000000Y-84376000D01*
X233980315Y-84443039D01*
X233927511Y-84488794D01*
X233876000Y-84500000D01*
X158624000Y-84500000D01*
X158556961Y-84480315D01*
X158511206Y-84427511D01*
X158500000Y-84376000D01*
X158500000Y-77865513D01*
X209099500Y-77865513D01*
X209099500Y-78054486D01*
X209129059Y-78241118D01*
X209187454Y-78420836D01*
X209223883Y-78492331D01*
X209273240Y-78589199D01*
X209384310Y-78742073D01*
X209517927Y-78875690D01*
X209624194Y-78952898D01*
X209670802Y-78986761D01*
X209824386Y-79065015D01*
X209875183Y-79112989D01*
X209891978Y-79180810D01*
X209869441Y-79246945D01*
X209814726Y-79290397D01*
X209768093Y-79299500D01*
X209552129Y-79299500D01*
X209552123Y-79299501D01*
X209492516Y-79305908D01*
X209357671Y-79356202D01*
X209357664Y-79356206D01*
X209242455Y-79442452D01*
X209242452Y-79442455D01*
X209156206Y-79557664D01*
X209156202Y-79557671D01*
X209105908Y-79692517D01*
X209100319Y-79744508D01*
X209099501Y-79752123D01*
X209099500Y-79752135D01*
X209099500Y-81247870D01*
X209099501Y-81247876D01*
X209105908Y-81307483D01*
X209156202Y-81442328D01*
X209156206Y-81442335D01*
X209242452Y-81557544D01*
X209242455Y-81557547D01*
X209357664Y-81643793D01*
X209357671Y-81643797D01*
X209492517Y-81694091D01*
X209492516Y-81694091D01*
X209499444Y-81694835D01*
X209552127Y-81700500D01*
X211447872Y-81700499D01*
X211507483Y-81694091D01*
X211642331Y-81643796D01*
X211757546Y-81557546D01*
X211843796Y-81442331D01*
X211894091Y-81307483D01*
X211900500Y-81247873D01*
X211900499Y-79752128D01*
X211894091Y-79692517D01*
X211863563Y-79610668D01*
X211843797Y-79557671D01*
X211843793Y-79557664D01*
X211757547Y-79442455D01*
X211757544Y-79442452D01*
X211642335Y-79356206D01*
X211642328Y-79356202D01*
X211507482Y-79305908D01*
X211507483Y-79305908D01*
X211447883Y-79299501D01*
X211447881Y-79299500D01*
X211447873Y-79299500D01*
X211447865Y-79299500D01*
X211231909Y-79299500D01*
X211164870Y-79279815D01*
X211119115Y-79227011D01*
X211109171Y-79157853D01*
X211138196Y-79094297D01*
X211175614Y-79065015D01*
X211329199Y-78986760D01*
X211482073Y-78875690D01*
X211615690Y-78742073D01*
X211726760Y-78589199D01*
X211812547Y-78420832D01*
X211870940Y-78241118D01*
X211900500Y-78054486D01*
X211900500Y-77865513D01*
X211870940Y-77678881D01*
X211812545Y-77499163D01*
X211726759Y-77330800D01*
X211615690Y-77177927D01*
X211482073Y-77044310D01*
X211329199Y-76933240D01*
X211278648Y-76907483D01*
X211160836Y-76847454D01*
X210981118Y-76789059D01*
X210794486Y-76759500D01*
X210794481Y-76759500D01*
X210205519Y-76759500D01*
X210205514Y-76759500D01*
X210018881Y-76789059D01*
X209839163Y-76847454D01*
X209670800Y-76933240D01*
X209583579Y-76996610D01*
X209517927Y-77044310D01*
X209517925Y-77044312D01*
X209517924Y-77044312D01*
X209384312Y-77177924D01*
X209384312Y-77177925D01*
X209384310Y-77177927D01*
X209336610Y-77243579D01*
X209273240Y-77330800D01*
X209187454Y-77499163D01*
X209129059Y-77678881D01*
X209099500Y-77865513D01*
X158500000Y-77865513D01*
X158500000Y-74999998D01*
X193694532Y-74999998D01*
X193694532Y-75000001D01*
X193714364Y-75226686D01*
X193714366Y-75226697D01*
X193773258Y-75446488D01*
X193773261Y-75446497D01*
X193869431Y-75652732D01*
X193869432Y-75652734D01*
X193999954Y-75839141D01*
X194160858Y-76000045D01*
X194160861Y-76000047D01*
X194347266Y-76130568D01*
X194553504Y-76226739D01*
X194773308Y-76285635D01*
X194935230Y-76299801D01*
X194999998Y-76305468D01*
X195000000Y-76305468D01*
X195000002Y-76305468D01*
X195056673Y-76300509D01*
X195226692Y-76285635D01*
X195446496Y-76226739D01*
X195652734Y-76130568D01*
X195839139Y-76000047D01*
X196000047Y-75839139D01*
X196130568Y-75652734D01*
X196226739Y-75446496D01*
X196285635Y-75226692D01*
X196305468Y-75000000D01*
X196305468Y-74999998D01*
X203854532Y-74999998D01*
X203854532Y-75000001D01*
X203874364Y-75226686D01*
X203874366Y-75226697D01*
X203933258Y-75446488D01*
X203933261Y-75446497D01*
X204029431Y-75652732D01*
X204029432Y-75652734D01*
X204159954Y-75839141D01*
X204320858Y-76000045D01*
X204320861Y-76000047D01*
X204507266Y-76130568D01*
X204713504Y-76226739D01*
X204933308Y-76285635D01*
X205095230Y-76299801D01*
X205159998Y-76305468D01*
X205160000Y-76305468D01*
X205160002Y-76305468D01*
X205216673Y-76300509D01*
X205386692Y-76285635D01*
X205606496Y-76226739D01*
X205812734Y-76130568D01*
X205999139Y-76000047D01*
X206160047Y-75839139D01*
X206290568Y-75652734D01*
X206386739Y-75446496D01*
X206445635Y-75226692D01*
X206465468Y-75000000D01*
X206445635Y-74773308D01*
X206400916Y-74606415D01*
X206386741Y-74553511D01*
X206386738Y-74553502D01*
X206290568Y-74347266D01*
X206160047Y-74160861D01*
X206160045Y-74160858D01*
X205999141Y-73999954D01*
X205812734Y-73869432D01*
X205812732Y-73869431D01*
X205606497Y-73773261D01*
X205606488Y-73773258D01*
X205386697Y-73714366D01*
X205386693Y-73714365D01*
X205386692Y-73714365D01*
X205386691Y-73714364D01*
X205386686Y-73714364D01*
X205160002Y-73694532D01*
X205159998Y-73694532D01*
X204933313Y-73714364D01*
X204933302Y-73714366D01*
X204713511Y-73773258D01*
X204713502Y-73773261D01*
X204507267Y-73869431D01*
X204507265Y-73869432D01*
X204320858Y-73999954D01*
X204159954Y-74160858D01*
X204029432Y-74347265D01*
X204029431Y-74347267D01*
X203933261Y-74553502D01*
X203933258Y-74553511D01*
X203874366Y-74773302D01*
X203874364Y-74773313D01*
X203854532Y-74999998D01*
X196305468Y-74999998D01*
X196285635Y-74773308D01*
X196240916Y-74606415D01*
X196226741Y-74553511D01*
X196226738Y-74553502D01*
X196130568Y-74347266D01*
X196000047Y-74160861D01*
X196000045Y-74160858D01*
X195839141Y-73999954D01*
X195652734Y-73869432D01*
X195652732Y-73869431D01*
X195446497Y-73773261D01*
X195446488Y-73773258D01*
X195226697Y-73714366D01*
X195226693Y-73714365D01*
X195226692Y-73714365D01*
X195226691Y-73714364D01*
X195226686Y-73714364D01*
X195000002Y-73694532D01*
X194999998Y-73694532D01*
X194773313Y-73714364D01*
X194773302Y-73714366D01*
X194553511Y-73773258D01*
X194553502Y-73773261D01*
X194347267Y-73869431D01*
X194347265Y-73869432D01*
X194160858Y-73999954D01*
X193999954Y-74160858D01*
X193869432Y-74347265D01*
X193869431Y-74347267D01*
X193773261Y-74553502D01*
X193773258Y-74553511D01*
X193714366Y-74773302D01*
X193714364Y-74773313D01*
X193694532Y-74999998D01*
X158500000Y-74999998D01*
X158500000Y-69999995D01*
X173230655Y-69999995D01*
X173230655Y-70000004D01*
X173250478Y-70264535D01*
X173250479Y-70264540D01*
X173309508Y-70523166D01*
X173309514Y-70523185D01*
X173406432Y-70770128D01*
X173406431Y-70770128D01*
X173539075Y-70999871D01*
X173589260Y-71062803D01*
X173589261Y-71062803D01*
X174516122Y-70135941D01*
X174532237Y-70196081D01*
X174599116Y-70311920D01*
X174693698Y-70406502D01*
X174809537Y-70473381D01*
X174869675Y-70489494D01*
X173942056Y-71417112D01*
X174118143Y-71537166D01*
X174118144Y-71537167D01*
X174357148Y-71652264D01*
X174357146Y-71652264D01*
X174610643Y-71730458D01*
X174610649Y-71730459D01*
X174872969Y-71769999D01*
X174872976Y-71770000D01*
X175138260Y-71770000D01*
X175138266Y-71769999D01*
X175400586Y-71730459D01*
X175400592Y-71730458D01*
X175654088Y-71652264D01*
X175893097Y-71537164D01*
X176069178Y-71417112D01*
X175141560Y-70489495D01*
X175201699Y-70473381D01*
X175317538Y-70406502D01*
X175412120Y-70311920D01*
X175478999Y-70196081D01*
X175495113Y-70135942D01*
X176421973Y-71062803D01*
X176421974Y-71062802D01*
X176472163Y-70999869D01*
X176604803Y-70770128D01*
X176701721Y-70523185D01*
X176701727Y-70523166D01*
X176760756Y-70264540D01*
X176760757Y-70264535D01*
X176780581Y-70000004D01*
X176780581Y-69999995D01*
X176760757Y-69735464D01*
X176760756Y-69735459D01*
X176701727Y-69476833D01*
X176701721Y-69476814D01*
X176604803Y-69229871D01*
X176604804Y-69229871D01*
X176472161Y-69000129D01*
X176472154Y-69000118D01*
X176421974Y-68937196D01*
X176421973Y-68937195D01*
X175495112Y-69864056D01*
X175478999Y-69803919D01*
X175412120Y-69688080D01*
X175317538Y-69593498D01*
X175201699Y-69526619D01*
X175141560Y-69510505D01*
X175969929Y-68682135D01*
X183217318Y-68682135D01*
X183217318Y-71317870D01*
X183217319Y-71317876D01*
X183223726Y-71377483D01*
X183274020Y-71512328D01*
X183274024Y-71512335D01*
X183360270Y-71627544D01*
X183360273Y-71627547D01*
X183475482Y-71713793D01*
X183475489Y-71713797D01*
X183610335Y-71764091D01*
X183610334Y-71764091D01*
X183617262Y-71764835D01*
X183669945Y-71770500D01*
X186305690Y-71770499D01*
X186365301Y-71764091D01*
X186500149Y-71713796D01*
X186615364Y-71627546D01*
X186701614Y-71512331D01*
X186751909Y-71377483D01*
X186758318Y-71317873D01*
X186758317Y-68682128D01*
X186751909Y-68622517D01*
X186701614Y-68487669D01*
X186701613Y-68487668D01*
X186701611Y-68487664D01*
X186615365Y-68372455D01*
X186615362Y-68372452D01*
X186500153Y-68286206D01*
X186500146Y-68286202D01*
X186365300Y-68235908D01*
X186365301Y-68235908D01*
X186305701Y-68229501D01*
X186305699Y-68229500D01*
X186305691Y-68229500D01*
X186305682Y-68229500D01*
X183669947Y-68229500D01*
X183669941Y-68229501D01*
X183610334Y-68235908D01*
X183475489Y-68286202D01*
X183475482Y-68286206D01*
X183360273Y-68372452D01*
X183360270Y-68372455D01*
X183274024Y-68487664D01*
X183274020Y-68487671D01*
X183223726Y-68622517D01*
X183217319Y-68682116D01*
X183217319Y-68682123D01*
X183217318Y-68682135D01*
X175969929Y-68682135D01*
X176069178Y-68582886D01*
X175893102Y-68462839D01*
X175893092Y-68462832D01*
X175654087Y-68347735D01*
X175654089Y-68347735D01*
X175400592Y-68269541D01*
X175400586Y-68269540D01*
X175138266Y-68230000D01*
X174872969Y-68230000D01*
X174610649Y-68269540D01*
X174610643Y-68269541D01*
X174357147Y-68347735D01*
X174118144Y-68462832D01*
X174118136Y-68462837D01*
X173942056Y-68582886D01*
X174869675Y-69510504D01*
X174809537Y-69526619D01*
X174693698Y-69593498D01*
X174599116Y-69688080D01*
X174532237Y-69803919D01*
X174516122Y-69864057D01*
X173589261Y-68937196D01*
X173539074Y-69000128D01*
X173406432Y-69229871D01*
X173309514Y-69476814D01*
X173309508Y-69476833D01*
X173250479Y-69735459D01*
X173250478Y-69735464D01*
X173230655Y-69999995D01*
X158500000Y-69999995D01*
X158500000Y-64999998D01*
X193694532Y-64999998D01*
X193694532Y-65000001D01*
X193714364Y-65226686D01*
X193714366Y-65226697D01*
X193773258Y-65446488D01*
X193773261Y-65446497D01*
X193869431Y-65652732D01*
X193869432Y-65652734D01*
X193999954Y-65839141D01*
X194160858Y-66000045D01*
X194160861Y-66000047D01*
X194347266Y-66130568D01*
X194553504Y-66226739D01*
X194773308Y-66285635D01*
X194935230Y-66299801D01*
X194999998Y-66305468D01*
X195000000Y-66305468D01*
X195000002Y-66305468D01*
X195056807Y-66300498D01*
X195226692Y-66285635D01*
X195446496Y-66226739D01*
X195652734Y-66130568D01*
X195839139Y-66000047D01*
X196000047Y-65839139D01*
X196130568Y-65652734D01*
X196226739Y-65446496D01*
X196285635Y-65226692D01*
X196305468Y-65000000D01*
X196305468Y-64999998D01*
X203854532Y-64999998D01*
X203854532Y-65000001D01*
X203874364Y-65226686D01*
X203874366Y-65226697D01*
X203933258Y-65446488D01*
X203933261Y-65446497D01*
X204029431Y-65652732D01*
X204029432Y-65652734D01*
X204159954Y-65839141D01*
X204320858Y-66000045D01*
X204320861Y-66000047D01*
X204507266Y-66130568D01*
X204713504Y-66226739D01*
X204933308Y-66285635D01*
X205095230Y-66299801D01*
X205159998Y-66305468D01*
X205160000Y-66305468D01*
X205160002Y-66305468D01*
X205216807Y-66300498D01*
X205386692Y-66285635D01*
X205606496Y-66226739D01*
X205812734Y-66130568D01*
X205999139Y-66000047D01*
X206160047Y-65839139D01*
X206255108Y-65703377D01*
X206309685Y-65659752D01*
X206356683Y-65650500D01*
X211179192Y-65650500D01*
X211246231Y-65670185D01*
X211266873Y-65686819D01*
X218693115Y-73113061D01*
X218726600Y-73174384D01*
X218725209Y-73232834D01*
X218714367Y-73273299D01*
X218714364Y-73273313D01*
X218694532Y-73499998D01*
X218694532Y-73500001D01*
X218714364Y-73726686D01*
X218714366Y-73726697D01*
X218773258Y-73946488D01*
X218773261Y-73946497D01*
X218869431Y-74152732D01*
X218869432Y-74152734D01*
X218999954Y-74339141D01*
X219157086Y-74496273D01*
X219190571Y-74557596D01*
X219185587Y-74627288D01*
X219143715Y-74683221D01*
X219097932Y-74704628D01*
X219092522Y-74705906D01*
X218957671Y-74756202D01*
X218957664Y-74756206D01*
X218842455Y-74842452D01*
X218842452Y-74842455D01*
X218756206Y-74957664D01*
X218756202Y-74957671D01*
X218705908Y-75092517D01*
X218699501Y-75152116D01*
X218699501Y-75152123D01*
X218699500Y-75152135D01*
X218699500Y-76847870D01*
X218699501Y-76847876D01*
X218705908Y-76907483D01*
X218756202Y-77042328D01*
X218756206Y-77042335D01*
X218842452Y-77157544D01*
X218842455Y-77157547D01*
X218957664Y-77243793D01*
X218957671Y-77243797D01*
X219092517Y-77294091D01*
X219092516Y-77294091D01*
X219099444Y-77294835D01*
X219152127Y-77300500D01*
X220847872Y-77300499D01*
X220907483Y-77294091D01*
X221042331Y-77243796D01*
X221157546Y-77157546D01*
X221243796Y-77042331D01*
X221294091Y-76907483D01*
X221300500Y-76847873D01*
X221300499Y-75152128D01*
X221294091Y-75092517D01*
X221259584Y-75000000D01*
X221243797Y-74957671D01*
X221243793Y-74957664D01*
X221157547Y-74842455D01*
X221157544Y-74842452D01*
X221042335Y-74756206D01*
X221042328Y-74756202D01*
X220907483Y-74705908D01*
X220902079Y-74704632D01*
X220841363Y-74670060D01*
X220808976Y-74608149D01*
X220815202Y-74538558D01*
X220842910Y-74496275D01*
X221000047Y-74339139D01*
X221130568Y-74152734D01*
X221226739Y-73946496D01*
X221285635Y-73726692D01*
X221301164Y-73549193D01*
X221326616Y-73484125D01*
X221383207Y-73443146D01*
X221452969Y-73439268D01*
X221512373Y-73472320D01*
X227733940Y-79693886D01*
X227767425Y-79755209D01*
X227766034Y-79813659D01*
X227763795Y-79822015D01*
X227763792Y-79822029D01*
X227744723Y-80039997D01*
X227744723Y-80040002D01*
X227763793Y-80257975D01*
X227763793Y-80257979D01*
X227820422Y-80469322D01*
X227820424Y-80469326D01*
X227820425Y-80469330D01*
X227866661Y-80568484D01*
X227912897Y-80667638D01*
X227912898Y-80667639D01*
X228038402Y-80846877D01*
X228193123Y-81001598D01*
X228372360Y-81127101D01*
X228372361Y-81127102D01*
X228524175Y-81197894D01*
X228576614Y-81244066D01*
X228595766Y-81311260D01*
X228575550Y-81378141D01*
X228524175Y-81422658D01*
X228372613Y-81493333D01*
X228310428Y-81536874D01*
X228953554Y-82180000D01*
X228947339Y-82180000D01*
X228845606Y-82207259D01*
X228754394Y-82259920D01*
X228679920Y-82334394D01*
X228627259Y-82425606D01*
X228600000Y-82527339D01*
X228600000Y-82533554D01*
X227956874Y-81890428D01*
X227913333Y-81952613D01*
X227820898Y-82150840D01*
X227820894Y-82150849D01*
X227764289Y-82362105D01*
X227764287Y-82362115D01*
X227745225Y-82579999D01*
X227745225Y-82580000D01*
X227764287Y-82797884D01*
X227764289Y-82797894D01*
X227820894Y-83009150D01*
X227820898Y-83009159D01*
X227913333Y-83207387D01*
X227956874Y-83269571D01*
X228600000Y-82626445D01*
X228600000Y-82632661D01*
X228627259Y-82734394D01*
X228679920Y-82825606D01*
X228754394Y-82900080D01*
X228845606Y-82952741D01*
X228947339Y-82980000D01*
X228953553Y-82980000D01*
X228310427Y-83623124D01*
X228372612Y-83666666D01*
X228570840Y-83759101D01*
X228570849Y-83759105D01*
X228782105Y-83815710D01*
X228782115Y-83815712D01*
X228999999Y-83834775D01*
X229000001Y-83834775D01*
X229217884Y-83815712D01*
X229217894Y-83815710D01*
X229429150Y-83759105D01*
X229429164Y-83759100D01*
X229627383Y-83666669D01*
X229627385Y-83666668D01*
X229689571Y-83623124D01*
X229046448Y-82980000D01*
X229052661Y-82980000D01*
X229154394Y-82952741D01*
X229245606Y-82900080D01*
X229320080Y-82825606D01*
X229372741Y-82734394D01*
X229400000Y-82632661D01*
X229400000Y-82626446D01*
X230043124Y-83269570D01*
X230086668Y-83207385D01*
X230086669Y-83207383D01*
X230179100Y-83009164D01*
X230179105Y-83009150D01*
X230235710Y-82797894D01*
X230235712Y-82797884D01*
X230254775Y-82580000D01*
X230254775Y-82579999D01*
X230235712Y-82362115D01*
X230235710Y-82362105D01*
X230179105Y-82150849D01*
X230179101Y-82150840D01*
X230086667Y-81952614D01*
X230086666Y-81952612D01*
X230043124Y-81890428D01*
X230043124Y-81890427D01*
X229400000Y-82533551D01*
X229400000Y-82527339D01*
X229372741Y-82425606D01*
X229320080Y-82334394D01*
X229245606Y-82259920D01*
X229154394Y-82207259D01*
X229052661Y-82180000D01*
X229046447Y-82180000D01*
X229689571Y-81536874D01*
X229627387Y-81493333D01*
X229475824Y-81422658D01*
X229423385Y-81376486D01*
X229404233Y-81309292D01*
X229424449Y-81242411D01*
X229475822Y-81197895D01*
X229627639Y-81127102D01*
X229806877Y-81001598D01*
X229961598Y-80846877D01*
X230087102Y-80667639D01*
X230179575Y-80469330D01*
X230236207Y-80257977D01*
X230255277Y-80040000D01*
X230236207Y-79822023D01*
X230179575Y-79610670D01*
X230087102Y-79412362D01*
X230087100Y-79412359D01*
X230087099Y-79412357D01*
X229961599Y-79233124D01*
X229886328Y-79157853D01*
X229806877Y-79078402D01*
X229660736Y-78976072D01*
X229617112Y-78921496D01*
X229609920Y-78851998D01*
X229641442Y-78789643D01*
X229701672Y-78754230D01*
X229731861Y-78750499D01*
X229797871Y-78750499D01*
X229797872Y-78750499D01*
X229857483Y-78744091D01*
X229992331Y-78693796D01*
X230107546Y-78607546D01*
X230193796Y-78492331D01*
X230244091Y-78357483D01*
X230250500Y-78297873D01*
X230250499Y-76702128D01*
X230244091Y-76642517D01*
X230193796Y-76507669D01*
X230193795Y-76507668D01*
X230193793Y-76507664D01*
X230107547Y-76392455D01*
X230107544Y-76392452D01*
X229992335Y-76306206D01*
X229992328Y-76306202D01*
X229857482Y-76255908D01*
X229857483Y-76255908D01*
X229797883Y-76249501D01*
X229797881Y-76249500D01*
X229797873Y-76249500D01*
X229797864Y-76249500D01*
X228202129Y-76249500D01*
X228202123Y-76249501D01*
X228142516Y-76255908D01*
X228007671Y-76306202D01*
X228007664Y-76306206D01*
X227892455Y-76392452D01*
X227892452Y-76392455D01*
X227806206Y-76507664D01*
X227806202Y-76507671D01*
X227755908Y-76642517D01*
X227749501Y-76702116D01*
X227749501Y-76702123D01*
X227749500Y-76702135D01*
X227749500Y-77570192D01*
X227729815Y-77637231D01*
X227677011Y-77682986D01*
X227607853Y-77692930D01*
X227544297Y-77663905D01*
X227537819Y-77657873D01*
X222686819Y-72806873D01*
X222653334Y-72745550D01*
X222650500Y-72719192D01*
X222650500Y-64435928D01*
X222625502Y-64310261D01*
X222625501Y-64310260D01*
X222625501Y-64310256D01*
X222576465Y-64191873D01*
X222576464Y-64191872D01*
X222576461Y-64191866D01*
X222505277Y-64085332D01*
X222505276Y-64085331D01*
X222414669Y-63994724D01*
X221306884Y-62886938D01*
X221273399Y-62825615D01*
X221274791Y-62767162D01*
X221285633Y-62726699D01*
X221285632Y-62726699D01*
X221285635Y-62726692D01*
X221305468Y-62500000D01*
X221285635Y-62273308D01*
X221226739Y-62053504D01*
X221130568Y-61847266D01*
X221000047Y-61660861D01*
X221000045Y-61660858D01*
X220839141Y-61499954D01*
X220652734Y-61369432D01*
X220652732Y-61369431D01*
X220446497Y-61273261D01*
X220446488Y-61273258D01*
X220226697Y-61214366D01*
X220226693Y-61214365D01*
X220226692Y-61214365D01*
X220226691Y-61214364D01*
X220226686Y-61214364D01*
X220000002Y-61194532D01*
X219999998Y-61194532D01*
X219773313Y-61214364D01*
X219773302Y-61214366D01*
X219553511Y-61273258D01*
X219553502Y-61273261D01*
X219347267Y-61369431D01*
X219347265Y-61369432D01*
X219160858Y-61499954D01*
X218999954Y-61660858D01*
X218869432Y-61847265D01*
X218869431Y-61847267D01*
X218773261Y-62053502D01*
X218773258Y-62053511D01*
X218714366Y-62273302D01*
X218714364Y-62273313D01*
X218694532Y-62499998D01*
X218694532Y-62500001D01*
X218714364Y-62726686D01*
X218714366Y-62726697D01*
X218773258Y-62946488D01*
X218773261Y-62946497D01*
X218869431Y-63152732D01*
X218869432Y-63152734D01*
X218999954Y-63339141D01*
X219157086Y-63496273D01*
X219190571Y-63557596D01*
X219185587Y-63627288D01*
X219143715Y-63683221D01*
X219097932Y-63704628D01*
X219092522Y-63705906D01*
X218957671Y-63756202D01*
X218957664Y-63756206D01*
X218842455Y-63842452D01*
X218842452Y-63842455D01*
X218756206Y-63957664D01*
X218756202Y-63957671D01*
X218705908Y-64092517D01*
X218699501Y-64152116D01*
X218699500Y-64152135D01*
X218699500Y-65847870D01*
X218699501Y-65847876D01*
X218705908Y-65907483D01*
X218756202Y-66042328D01*
X218756206Y-66042335D01*
X218842452Y-66157544D01*
X218842455Y-66157547D01*
X218957664Y-66243793D01*
X218957671Y-66243797D01*
X219092517Y-66294091D01*
X219092516Y-66294091D01*
X219099444Y-66294835D01*
X219152127Y-66300500D01*
X220847872Y-66300499D01*
X220907483Y-66294091D01*
X221042331Y-66243796D01*
X221151189Y-66162305D01*
X221216653Y-66137887D01*
X221284926Y-66152738D01*
X221334332Y-66202143D01*
X221349500Y-66261571D01*
X221349500Y-72766656D01*
X221329815Y-72833695D01*
X221277011Y-72879450D01*
X221207853Y-72889394D01*
X221144297Y-72860369D01*
X221123925Y-72837779D01*
X221121065Y-72833695D01*
X221000047Y-72660861D01*
X221000045Y-72660858D01*
X220839141Y-72499954D01*
X220652734Y-72369432D01*
X220652732Y-72369431D01*
X220446497Y-72273261D01*
X220446488Y-72273258D01*
X220226697Y-72214366D01*
X220226693Y-72214365D01*
X220226692Y-72214365D01*
X220226691Y-72214364D01*
X220226686Y-72214364D01*
X220000002Y-72194532D01*
X219999998Y-72194532D01*
X219773313Y-72214364D01*
X219773299Y-72214367D01*
X219732834Y-72225209D01*
X219662984Y-72223545D01*
X219613061Y-72193115D01*
X211914674Y-64494727D01*
X211914673Y-64494726D01*
X211826679Y-64435931D01*
X211808127Y-64423535D01*
X211689744Y-64374499D01*
X211689738Y-64374497D01*
X211564071Y-64349500D01*
X211564069Y-64349500D01*
X206356683Y-64349500D01*
X206289644Y-64329815D01*
X206255108Y-64296623D01*
X206160045Y-64160858D01*
X205999141Y-63999954D01*
X205812734Y-63869432D01*
X205812732Y-63869431D01*
X205606497Y-63773261D01*
X205606488Y-63773258D01*
X205386697Y-63714366D01*
X205386693Y-63714365D01*
X205386692Y-63714365D01*
X205386691Y-63714364D01*
X205386686Y-63714364D01*
X205160002Y-63694532D01*
X205159998Y-63694532D01*
X204933313Y-63714364D01*
X204933302Y-63714366D01*
X204713511Y-63773258D01*
X204713502Y-63773261D01*
X204507267Y-63869431D01*
X204507265Y-63869432D01*
X204320858Y-63999954D01*
X204159954Y-64160858D01*
X204029432Y-64347265D01*
X204029431Y-64347267D01*
X203933261Y-64553502D01*
X203933258Y-64553511D01*
X203874366Y-64773302D01*
X203874364Y-64773313D01*
X203854532Y-64999998D01*
X196305468Y-64999998D01*
X196285635Y-64773308D01*
X196226739Y-64553504D01*
X196130568Y-64347266D01*
X196000047Y-64160861D01*
X196000045Y-64160858D01*
X195839141Y-63999954D01*
X195652734Y-63869432D01*
X195652732Y-63869431D01*
X195446497Y-63773261D01*
X195446488Y-63773258D01*
X195226697Y-63714366D01*
X195226693Y-63714365D01*
X195226692Y-63714365D01*
X195226691Y-63714364D01*
X195226686Y-63714364D01*
X195000002Y-63694532D01*
X194999998Y-63694532D01*
X194773313Y-63714364D01*
X194773302Y-63714366D01*
X194553511Y-63773258D01*
X194553502Y-63773261D01*
X194347267Y-63869431D01*
X194347265Y-63869432D01*
X194160858Y-63999954D01*
X193999954Y-64160858D01*
X193869432Y-64347265D01*
X193869431Y-64347267D01*
X193773261Y-64553502D01*
X193773258Y-64553511D01*
X193714366Y-64773302D01*
X193714364Y-64773313D01*
X193694532Y-64999998D01*
X158500000Y-64999998D01*
X158500000Y-57977135D01*
X209099500Y-57977135D01*
X209099500Y-59472870D01*
X209099501Y-59472876D01*
X209105908Y-59532483D01*
X209156202Y-59667328D01*
X209156206Y-59667335D01*
X209242452Y-59782544D01*
X209242455Y-59782547D01*
X209357664Y-59868793D01*
X209357671Y-59868797D01*
X209492517Y-59919091D01*
X209492516Y-59919091D01*
X209499444Y-59919835D01*
X209552127Y-59925500D01*
X209768092Y-59925499D01*
X209835129Y-59945183D01*
X209880884Y-59997987D01*
X209890828Y-60067145D01*
X209861803Y-60130701D01*
X209824385Y-60159983D01*
X209670805Y-60238236D01*
X209568885Y-60312286D01*
X209517927Y-60349310D01*
X209517925Y-60349312D01*
X209517924Y-60349312D01*
X209384312Y-60482924D01*
X209384312Y-60482925D01*
X209384310Y-60482927D01*
X209337685Y-60547101D01*
X209273240Y-60635800D01*
X209187454Y-60804163D01*
X209129059Y-60983881D01*
X209099500Y-61170513D01*
X209099500Y-61359486D01*
X209129059Y-61546118D01*
X209187454Y-61725836D01*
X209249327Y-61847267D01*
X209273240Y-61894199D01*
X209384310Y-62047073D01*
X209517927Y-62180690D01*
X209670801Y-62291760D01*
X209750347Y-62332290D01*
X209839163Y-62377545D01*
X209839165Y-62377545D01*
X209839168Y-62377547D01*
X209908271Y-62400000D01*
X210018881Y-62435940D01*
X210205514Y-62465500D01*
X210205519Y-62465500D01*
X210794486Y-62465500D01*
X210981118Y-62435940D01*
X211001972Y-62429164D01*
X211160832Y-62377547D01*
X211329199Y-62291760D01*
X211482073Y-62180690D01*
X211615690Y-62047073D01*
X211726760Y-61894199D01*
X211812547Y-61725832D01*
X211870940Y-61546118D01*
X211878252Y-61499953D01*
X211900500Y-61359486D01*
X211900500Y-61170513D01*
X211870940Y-60983881D01*
X211812545Y-60804163D01*
X211757538Y-60696207D01*
X211726760Y-60635801D01*
X211615690Y-60482927D01*
X211482073Y-60349310D01*
X211329199Y-60238240D01*
X211175611Y-60159983D01*
X211124816Y-60112010D01*
X211108021Y-60044189D01*
X211130558Y-59978054D01*
X211185273Y-59934602D01*
X211231906Y-59925499D01*
X211447872Y-59925499D01*
X211507483Y-59919091D01*
X211642331Y-59868796D01*
X211757546Y-59782546D01*
X211843796Y-59667331D01*
X211894091Y-59532483D01*
X211900500Y-59472873D01*
X211900499Y-57977128D01*
X211894091Y-57917517D01*
X211892158Y-57912335D01*
X211843797Y-57782671D01*
X211843793Y-57782664D01*
X211757547Y-57667455D01*
X211757544Y-57667452D01*
X211642335Y-57581206D01*
X211642328Y-57581202D01*
X211507482Y-57530908D01*
X211507483Y-57530908D01*
X211447883Y-57524501D01*
X211447881Y-57524500D01*
X211447873Y-57524500D01*
X211447864Y-57524500D01*
X209552129Y-57524500D01*
X209552123Y-57524501D01*
X209492516Y-57530908D01*
X209357671Y-57581202D01*
X209357664Y-57581206D01*
X209242455Y-57667452D01*
X209242452Y-57667455D01*
X209156206Y-57782664D01*
X209156202Y-57782671D01*
X209105908Y-57917517D01*
X209099501Y-57977116D01*
X209099501Y-57977123D01*
X209099500Y-57977135D01*
X158500000Y-57977135D01*
X158500000Y-55624000D01*
X158519685Y-55556961D01*
X158572489Y-55511206D01*
X158624000Y-55500000D01*
X228437281Y-55500000D01*
X228504320Y-55519685D01*
G37*
%TD.AperFunction*%
%TD*%
M02*
