%TF.GenerationSoftware,KiCad,Pcbnew,8.0.5*%
%TF.CreationDate,2024-10-12T16:34:49-07:00*%
%TF.ProjectId,IEEE soldering project,49454545-2073-46f6-9c64-6572696e6720,rev?*%
%TF.SameCoordinates,Original*%
%TF.FileFunction,Copper,L1,Top*%
%TF.FilePolarity,Positive*%
%FSLAX46Y46*%
G04 Gerber Fmt 4.6, Leading zero omitted, Abs format (unit mm)*
G04 Created by KiCad (PCBNEW 8.0.5) date 2024-10-12 16:34:49*
%MOMM*%
%LPD*%
G01*
G04 APERTURE LIST*
%TA.AperFunction,ComponentPad*%
%ADD10R,2.540000X2.540000*%
%TD*%
%TA.AperFunction,ComponentPad*%
%ADD11C,2.540000*%
%TD*%
%TA.AperFunction,ComponentPad*%
%ADD12R,1.500000X1.500000*%
%TD*%
%TA.AperFunction,ComponentPad*%
%ADD13C,1.500000*%
%TD*%
%TA.AperFunction,ComponentPad*%
%ADD14O,1.800000X1.400000*%
%TD*%
%TA.AperFunction,ComponentPad*%
%ADD15R,1.800000X1.400000*%
%TD*%
%TA.AperFunction,ComponentPad*%
%ADD16O,1.600000X1.600000*%
%TD*%
%TA.AperFunction,ComponentPad*%
%ADD17C,1.600000*%
%TD*%
%TA.AperFunction,ComponentPad*%
%ADD18R,1.600000X1.600000*%
%TD*%
%TA.AperFunction,Conductor*%
%ADD19C,0.500000*%
%TD*%
%TA.AperFunction,Conductor*%
%ADD20C,0.200000*%
%TD*%
G04 APERTURE END LIST*
D10*
%TO.P,U1,1,+*%
%TO.N,Net-(LED1-A)*%
X184987818Y-70000000D03*
D11*
%TO.P,U1,2,-*%
%TO.N,Net-(Q1-E)*%
X175005618Y-70000000D03*
%TD*%
D12*
%TO.P,Q2,1,C*%
%TO.N,Net-(LED1-K)*%
X229000000Y-77500000D03*
D13*
%TO.P,Q2,2,B*%
%TO.N,Net-(Q2-B)*%
X229000000Y-80040000D03*
%TO.P,Q2,3,E*%
%TO.N,Net-(Q1-E)*%
X229000000Y-82580000D03*
%TD*%
D14*
%TO.P,LED2,2,A*%
%TO.N,Net-(LED1-A)*%
X210500000Y-61265000D03*
D15*
%TO.P,LED2,1,K*%
%TO.N,Net-(LED2-K)*%
X210500000Y-58725000D03*
%TD*%
%TO.P,LED1,1,K*%
%TO.N,Net-(LED1-K)*%
X210500000Y-80500000D03*
D14*
%TO.P,LED1,2,A*%
%TO.N,Net-(LED1-A)*%
X210500000Y-77960000D03*
%TD*%
D16*
%TO.P,R1,2*%
%TO.N,Net-(LED1-A)*%
X195000000Y-65000000D03*
D17*
%TO.P,R1,1*%
%TO.N,Net-(Q1-B)*%
X205160000Y-65000000D03*
%TD*%
D18*
%TO.P,C1,1*%
%TO.N,Net-(LED1-K)*%
X220000000Y-76000000D03*
D17*
%TO.P,C1,2*%
%TO.N,Net-(Q1-B)*%
X220000000Y-73500000D03*
%TD*%
%TO.P,R2,1*%
%TO.N,Net-(Q2-B)*%
X205160000Y-75000000D03*
D16*
%TO.P,R2,2*%
%TO.N,Net-(LED1-A)*%
X195000000Y-75000000D03*
%TD*%
D18*
%TO.P,C2,1*%
%TO.N,Net-(LED2-K)*%
X220000000Y-65000000D03*
D17*
%TO.P,C2,2*%
%TO.N,Net-(Q2-B)*%
X220000000Y-62500000D03*
%TD*%
D12*
%TO.P,Q1,1,C*%
%TO.N,Net-(LED2-K)*%
X229500000Y-56920000D03*
D13*
%TO.P,Q1,2,B*%
%TO.N,Net-(Q1-B)*%
X229500000Y-59460000D03*
%TO.P,Q1,3,E*%
%TO.N,Net-(Q1-E)*%
X229500000Y-62000000D03*
%TD*%
D19*
%TO.N,Net-(LED2-K)*%
X222000000Y-63000000D02*
X220000000Y-65000000D01*
X219767767Y-60500000D02*
X222000000Y-60500000D01*
X222000000Y-60500000D02*
X222000000Y-63000000D01*
X217992767Y-58725000D02*
X219767767Y-60500000D01*
X210500000Y-58725000D02*
X217992767Y-58725000D01*
%TO.N,Net-(LED1-A)*%
X210500000Y-77960000D02*
X192947818Y-77960000D01*
X192947818Y-77960000D02*
X184987818Y-70000000D01*
X193722818Y-61265000D02*
X184987818Y-70000000D01*
X210500000Y-61265000D02*
X193722818Y-61265000D01*
X190000000Y-70000000D02*
X189000000Y-70000000D01*
X195000000Y-65000000D02*
X190000000Y-70000000D01*
X189000000Y-70000000D02*
X184987818Y-70000000D01*
X195000000Y-75000000D02*
X194000000Y-75000000D01*
%TO.N,Net-(LED1-K)*%
X215500000Y-80500000D02*
X220000000Y-76000000D01*
X210500000Y-80500000D02*
X215500000Y-80500000D01*
X227000000Y-76000000D02*
X220000000Y-76000000D01*
X228500000Y-77500000D02*
X227000000Y-76000000D01*
D20*
X229000000Y-77500000D02*
X228500000Y-77500000D01*
D19*
%TO.N,Net-(LED2-K)*%
X221420000Y-65000000D02*
X229500000Y-56920000D01*
X220000000Y-65000000D02*
X221420000Y-65000000D01*
%TO.N,Net-(Q1-B)*%
X220000000Y-68960000D02*
X229500000Y-59460000D01*
X220000000Y-73500000D02*
X220000000Y-68960000D01*
%TO.N,Net-(Q2-B)*%
X207500000Y-75000000D02*
X220000000Y-62500000D01*
X205160000Y-75000000D02*
X207500000Y-75000000D01*
%TO.N,Net-(LED1-A)*%
X194000000Y-75000000D02*
X189000000Y-70000000D01*
%TD*%
M02*
