%TF.GenerationSoftware,KiCad,Pcbnew,8.0.5*%
%TF.CreationDate,2024-10-11T23:24:52-07:00*%
%TF.ProjectId,IEEE soldering project,49454545-2073-46f6-9c64-6572696e6720,rev?*%
%TF.SameCoordinates,Original*%
%TF.FileFunction,Legend,Top*%
%TF.FilePolarity,Positive*%
%FSLAX46Y46*%
G04 Gerber Fmt 4.6, Leading zero omitted, Abs format (unit mm)*
G04 Created by KiCad (PCBNEW 8.0.5) date 2024-10-11 23:24:52*
%MOMM*%
%LPD*%
G01*
G04 APERTURE LIST*
%ADD10C,0.100000*%
%ADD11C,0.000000*%
%ADD12C,0.150000*%
%ADD13C,0.120000*%
G04 APERTURE END LIST*
D10*
X187872419Y-74291353D02*
X187872419Y-73672306D01*
X187872419Y-73672306D02*
X188253371Y-74005639D01*
X188253371Y-74005639D02*
X188253371Y-73862782D01*
X188253371Y-73862782D02*
X188300990Y-73767544D01*
X188300990Y-73767544D02*
X188348609Y-73719925D01*
X188348609Y-73719925D02*
X188443847Y-73672306D01*
X188443847Y-73672306D02*
X188681942Y-73672306D01*
X188681942Y-73672306D02*
X188777180Y-73719925D01*
X188777180Y-73719925D02*
X188824800Y-73767544D01*
X188824800Y-73767544D02*
X188872419Y-73862782D01*
X188872419Y-73862782D02*
X188872419Y-74148496D01*
X188872419Y-74148496D02*
X188824800Y-74243734D01*
X188824800Y-74243734D02*
X188777180Y-74291353D01*
X187872419Y-73386591D02*
X188872419Y-73053258D01*
X188872419Y-73053258D02*
X187872419Y-72719925D01*
X188348609Y-71291353D02*
X188396228Y-71148496D01*
X188396228Y-71148496D02*
X188443847Y-71100877D01*
X188443847Y-71100877D02*
X188539085Y-71053258D01*
X188539085Y-71053258D02*
X188681942Y-71053258D01*
X188681942Y-71053258D02*
X188777180Y-71100877D01*
X188777180Y-71100877D02*
X188824800Y-71148496D01*
X188824800Y-71148496D02*
X188872419Y-71243734D01*
X188872419Y-71243734D02*
X188872419Y-71624686D01*
X188872419Y-71624686D02*
X187872419Y-71624686D01*
X187872419Y-71624686D02*
X187872419Y-71291353D01*
X187872419Y-71291353D02*
X187920038Y-71196115D01*
X187920038Y-71196115D02*
X187967657Y-71148496D01*
X187967657Y-71148496D02*
X188062895Y-71100877D01*
X188062895Y-71100877D02*
X188158133Y-71100877D01*
X188158133Y-71100877D02*
X188253371Y-71148496D01*
X188253371Y-71148496D02*
X188300990Y-71196115D01*
X188300990Y-71196115D02*
X188348609Y-71291353D01*
X188348609Y-71291353D02*
X188348609Y-71624686D01*
X188872419Y-70196115D02*
X188348609Y-70196115D01*
X188348609Y-70196115D02*
X188253371Y-70243734D01*
X188253371Y-70243734D02*
X188205752Y-70338972D01*
X188205752Y-70338972D02*
X188205752Y-70529448D01*
X188205752Y-70529448D02*
X188253371Y-70624686D01*
X188824800Y-70196115D02*
X188872419Y-70291353D01*
X188872419Y-70291353D02*
X188872419Y-70529448D01*
X188872419Y-70529448D02*
X188824800Y-70624686D01*
X188824800Y-70624686D02*
X188729561Y-70672305D01*
X188729561Y-70672305D02*
X188634323Y-70672305D01*
X188634323Y-70672305D02*
X188539085Y-70624686D01*
X188539085Y-70624686D02*
X188491466Y-70529448D01*
X188491466Y-70529448D02*
X188491466Y-70291353D01*
X188491466Y-70291353D02*
X188443847Y-70196115D01*
X188205752Y-69862781D02*
X188205752Y-69481829D01*
X187872419Y-69719924D02*
X188729561Y-69719924D01*
X188729561Y-69719924D02*
X188824800Y-69672305D01*
X188824800Y-69672305D02*
X188872419Y-69577067D01*
X188872419Y-69577067D02*
X188872419Y-69481829D01*
X188205752Y-69291352D02*
X188205752Y-68910400D01*
X187872419Y-69148495D02*
X188729561Y-69148495D01*
X188729561Y-69148495D02*
X188824800Y-69100876D01*
X188824800Y-69100876D02*
X188872419Y-69005638D01*
X188872419Y-69005638D02*
X188872419Y-68910400D01*
X188824800Y-68196114D02*
X188872419Y-68291352D01*
X188872419Y-68291352D02*
X188872419Y-68481828D01*
X188872419Y-68481828D02*
X188824800Y-68577066D01*
X188824800Y-68577066D02*
X188729561Y-68624685D01*
X188729561Y-68624685D02*
X188348609Y-68624685D01*
X188348609Y-68624685D02*
X188253371Y-68577066D01*
X188253371Y-68577066D02*
X188205752Y-68481828D01*
X188205752Y-68481828D02*
X188205752Y-68291352D01*
X188205752Y-68291352D02*
X188253371Y-68196114D01*
X188253371Y-68196114D02*
X188348609Y-68148495D01*
X188348609Y-68148495D02*
X188443847Y-68148495D01*
X188443847Y-68148495D02*
X188539085Y-68624685D01*
X188872419Y-67719923D02*
X188205752Y-67719923D01*
X188396228Y-67719923D02*
X188300990Y-67672304D01*
X188300990Y-67672304D02*
X188253371Y-67624685D01*
X188253371Y-67624685D02*
X188205752Y-67529447D01*
X188205752Y-67529447D02*
X188205752Y-67434209D01*
X188205752Y-67196113D02*
X188872419Y-66958018D01*
X188205752Y-66719923D02*
X188872419Y-66958018D01*
X188872419Y-66958018D02*
X189110514Y-67053256D01*
X189110514Y-67053256D02*
X189158133Y-67100875D01*
X189158133Y-67100875D02*
X189205752Y-67196113D01*
X185303884Y-84372419D02*
X185303884Y-83372419D01*
X185780074Y-83848609D02*
X186113407Y-83848609D01*
X186256264Y-84372419D02*
X185780074Y-84372419D01*
X185780074Y-84372419D02*
X185780074Y-83372419D01*
X185780074Y-83372419D02*
X186256264Y-83372419D01*
X186684836Y-83848609D02*
X187018169Y-83848609D01*
X187161026Y-84372419D02*
X186684836Y-84372419D01*
X186684836Y-84372419D02*
X186684836Y-83372419D01*
X186684836Y-83372419D02*
X187161026Y-83372419D01*
X187589598Y-83848609D02*
X187922931Y-83848609D01*
X188065788Y-84372419D02*
X187589598Y-84372419D01*
X187589598Y-84372419D02*
X187589598Y-83372419D01*
X187589598Y-83372419D02*
X188065788Y-83372419D01*
X189208646Y-84324800D02*
X189351503Y-84372419D01*
X189351503Y-84372419D02*
X189589598Y-84372419D01*
X189589598Y-84372419D02*
X189684836Y-84324800D01*
X189684836Y-84324800D02*
X189732455Y-84277180D01*
X189732455Y-84277180D02*
X189780074Y-84181942D01*
X189780074Y-84181942D02*
X189780074Y-84086704D01*
X189780074Y-84086704D02*
X189732455Y-83991466D01*
X189732455Y-83991466D02*
X189684836Y-83943847D01*
X189684836Y-83943847D02*
X189589598Y-83896228D01*
X189589598Y-83896228D02*
X189399122Y-83848609D01*
X189399122Y-83848609D02*
X189303884Y-83800990D01*
X189303884Y-83800990D02*
X189256265Y-83753371D01*
X189256265Y-83753371D02*
X189208646Y-83658133D01*
X189208646Y-83658133D02*
X189208646Y-83562895D01*
X189208646Y-83562895D02*
X189256265Y-83467657D01*
X189256265Y-83467657D02*
X189303884Y-83420038D01*
X189303884Y-83420038D02*
X189399122Y-83372419D01*
X189399122Y-83372419D02*
X189637217Y-83372419D01*
X189637217Y-83372419D02*
X189780074Y-83420038D01*
X190351503Y-84372419D02*
X190256265Y-84324800D01*
X190256265Y-84324800D02*
X190208646Y-84277180D01*
X190208646Y-84277180D02*
X190161027Y-84181942D01*
X190161027Y-84181942D02*
X190161027Y-83896228D01*
X190161027Y-83896228D02*
X190208646Y-83800990D01*
X190208646Y-83800990D02*
X190256265Y-83753371D01*
X190256265Y-83753371D02*
X190351503Y-83705752D01*
X190351503Y-83705752D02*
X190494360Y-83705752D01*
X190494360Y-83705752D02*
X190589598Y-83753371D01*
X190589598Y-83753371D02*
X190637217Y-83800990D01*
X190637217Y-83800990D02*
X190684836Y-83896228D01*
X190684836Y-83896228D02*
X190684836Y-84181942D01*
X190684836Y-84181942D02*
X190637217Y-84277180D01*
X190637217Y-84277180D02*
X190589598Y-84324800D01*
X190589598Y-84324800D02*
X190494360Y-84372419D01*
X190494360Y-84372419D02*
X190351503Y-84372419D01*
X191256265Y-84372419D02*
X191161027Y-84324800D01*
X191161027Y-84324800D02*
X191113408Y-84229561D01*
X191113408Y-84229561D02*
X191113408Y-83372419D01*
X192065789Y-84372419D02*
X192065789Y-83372419D01*
X192065789Y-84324800D02*
X191970551Y-84372419D01*
X191970551Y-84372419D02*
X191780075Y-84372419D01*
X191780075Y-84372419D02*
X191684837Y-84324800D01*
X191684837Y-84324800D02*
X191637218Y-84277180D01*
X191637218Y-84277180D02*
X191589599Y-84181942D01*
X191589599Y-84181942D02*
X191589599Y-83896228D01*
X191589599Y-83896228D02*
X191637218Y-83800990D01*
X191637218Y-83800990D02*
X191684837Y-83753371D01*
X191684837Y-83753371D02*
X191780075Y-83705752D01*
X191780075Y-83705752D02*
X191970551Y-83705752D01*
X191970551Y-83705752D02*
X192065789Y-83753371D01*
X192922932Y-84324800D02*
X192827694Y-84372419D01*
X192827694Y-84372419D02*
X192637218Y-84372419D01*
X192637218Y-84372419D02*
X192541980Y-84324800D01*
X192541980Y-84324800D02*
X192494361Y-84229561D01*
X192494361Y-84229561D02*
X192494361Y-83848609D01*
X192494361Y-83848609D02*
X192541980Y-83753371D01*
X192541980Y-83753371D02*
X192637218Y-83705752D01*
X192637218Y-83705752D02*
X192827694Y-83705752D01*
X192827694Y-83705752D02*
X192922932Y-83753371D01*
X192922932Y-83753371D02*
X192970551Y-83848609D01*
X192970551Y-83848609D02*
X192970551Y-83943847D01*
X192970551Y-83943847D02*
X192494361Y-84039085D01*
X193399123Y-84372419D02*
X193399123Y-83705752D01*
X193399123Y-83896228D02*
X193446742Y-83800990D01*
X193446742Y-83800990D02*
X193494361Y-83753371D01*
X193494361Y-83753371D02*
X193589599Y-83705752D01*
X193589599Y-83705752D02*
X193684837Y-83705752D01*
X194018171Y-84372419D02*
X194018171Y-83705752D01*
X194018171Y-83372419D02*
X193970552Y-83420038D01*
X193970552Y-83420038D02*
X194018171Y-83467657D01*
X194018171Y-83467657D02*
X194065790Y-83420038D01*
X194065790Y-83420038D02*
X194018171Y-83372419D01*
X194018171Y-83372419D02*
X194018171Y-83467657D01*
X194494361Y-83705752D02*
X194494361Y-84372419D01*
X194494361Y-83800990D02*
X194541980Y-83753371D01*
X194541980Y-83753371D02*
X194637218Y-83705752D01*
X194637218Y-83705752D02*
X194780075Y-83705752D01*
X194780075Y-83705752D02*
X194875313Y-83753371D01*
X194875313Y-83753371D02*
X194922932Y-83848609D01*
X194922932Y-83848609D02*
X194922932Y-84372419D01*
X195827694Y-83705752D02*
X195827694Y-84515276D01*
X195827694Y-84515276D02*
X195780075Y-84610514D01*
X195780075Y-84610514D02*
X195732456Y-84658133D01*
X195732456Y-84658133D02*
X195637218Y-84705752D01*
X195637218Y-84705752D02*
X195494361Y-84705752D01*
X195494361Y-84705752D02*
X195399123Y-84658133D01*
X195827694Y-84324800D02*
X195732456Y-84372419D01*
X195732456Y-84372419D02*
X195541980Y-84372419D01*
X195541980Y-84372419D02*
X195446742Y-84324800D01*
X195446742Y-84324800D02*
X195399123Y-84277180D01*
X195399123Y-84277180D02*
X195351504Y-84181942D01*
X195351504Y-84181942D02*
X195351504Y-83896228D01*
X195351504Y-83896228D02*
X195399123Y-83800990D01*
X195399123Y-83800990D02*
X195446742Y-83753371D01*
X195446742Y-83753371D02*
X195541980Y-83705752D01*
X195541980Y-83705752D02*
X195732456Y-83705752D01*
X195732456Y-83705752D02*
X195827694Y-83753371D01*
X196970552Y-83372419D02*
X197208647Y-84372419D01*
X197208647Y-84372419D02*
X197399123Y-83658133D01*
X197399123Y-83658133D02*
X197589599Y-84372419D01*
X197589599Y-84372419D02*
X197827695Y-83372419D01*
X198351504Y-84372419D02*
X198256266Y-84324800D01*
X198256266Y-84324800D02*
X198208647Y-84277180D01*
X198208647Y-84277180D02*
X198161028Y-84181942D01*
X198161028Y-84181942D02*
X198161028Y-83896228D01*
X198161028Y-83896228D02*
X198208647Y-83800990D01*
X198208647Y-83800990D02*
X198256266Y-83753371D01*
X198256266Y-83753371D02*
X198351504Y-83705752D01*
X198351504Y-83705752D02*
X198494361Y-83705752D01*
X198494361Y-83705752D02*
X198589599Y-83753371D01*
X198589599Y-83753371D02*
X198637218Y-83800990D01*
X198637218Y-83800990D02*
X198684837Y-83896228D01*
X198684837Y-83896228D02*
X198684837Y-84181942D01*
X198684837Y-84181942D02*
X198637218Y-84277180D01*
X198637218Y-84277180D02*
X198589599Y-84324800D01*
X198589599Y-84324800D02*
X198494361Y-84372419D01*
X198494361Y-84372419D02*
X198351504Y-84372419D01*
X199113409Y-84372419D02*
X199113409Y-83705752D01*
X199113409Y-83896228D02*
X199161028Y-83800990D01*
X199161028Y-83800990D02*
X199208647Y-83753371D01*
X199208647Y-83753371D02*
X199303885Y-83705752D01*
X199303885Y-83705752D02*
X199399123Y-83705752D01*
X199732457Y-84372419D02*
X199732457Y-83372419D01*
X199827695Y-83991466D02*
X200113409Y-84372419D01*
X200113409Y-83705752D02*
X199732457Y-84086704D01*
X200494362Y-84324800D02*
X200589600Y-84372419D01*
X200589600Y-84372419D02*
X200780076Y-84372419D01*
X200780076Y-84372419D02*
X200875314Y-84324800D01*
X200875314Y-84324800D02*
X200922933Y-84229561D01*
X200922933Y-84229561D02*
X200922933Y-84181942D01*
X200922933Y-84181942D02*
X200875314Y-84086704D01*
X200875314Y-84086704D02*
X200780076Y-84039085D01*
X200780076Y-84039085D02*
X200637219Y-84039085D01*
X200637219Y-84039085D02*
X200541981Y-83991466D01*
X200541981Y-83991466D02*
X200494362Y-83896228D01*
X200494362Y-83896228D02*
X200494362Y-83848609D01*
X200494362Y-83848609D02*
X200541981Y-83753371D01*
X200541981Y-83753371D02*
X200637219Y-83705752D01*
X200637219Y-83705752D02*
X200780076Y-83705752D01*
X200780076Y-83705752D02*
X200875314Y-83753371D01*
X201351505Y-84372419D02*
X201351505Y-83372419D01*
X201780076Y-84372419D02*
X201780076Y-83848609D01*
X201780076Y-83848609D02*
X201732457Y-83753371D01*
X201732457Y-83753371D02*
X201637219Y-83705752D01*
X201637219Y-83705752D02*
X201494362Y-83705752D01*
X201494362Y-83705752D02*
X201399124Y-83753371D01*
X201399124Y-83753371D02*
X201351505Y-83800990D01*
X202399124Y-84372419D02*
X202303886Y-84324800D01*
X202303886Y-84324800D02*
X202256267Y-84277180D01*
X202256267Y-84277180D02*
X202208648Y-84181942D01*
X202208648Y-84181942D02*
X202208648Y-83896228D01*
X202208648Y-83896228D02*
X202256267Y-83800990D01*
X202256267Y-83800990D02*
X202303886Y-83753371D01*
X202303886Y-83753371D02*
X202399124Y-83705752D01*
X202399124Y-83705752D02*
X202541981Y-83705752D01*
X202541981Y-83705752D02*
X202637219Y-83753371D01*
X202637219Y-83753371D02*
X202684838Y-83800990D01*
X202684838Y-83800990D02*
X202732457Y-83896228D01*
X202732457Y-83896228D02*
X202732457Y-84181942D01*
X202732457Y-84181942D02*
X202684838Y-84277180D01*
X202684838Y-84277180D02*
X202637219Y-84324800D01*
X202637219Y-84324800D02*
X202541981Y-84372419D01*
X202541981Y-84372419D02*
X202399124Y-84372419D01*
X203161029Y-83705752D02*
X203161029Y-84705752D01*
X203161029Y-83753371D02*
X203256267Y-83705752D01*
X203256267Y-83705752D02*
X203446743Y-83705752D01*
X203446743Y-83705752D02*
X203541981Y-83753371D01*
X203541981Y-83753371D02*
X203589600Y-83800990D01*
X203589600Y-83800990D02*
X203637219Y-83896228D01*
X203637219Y-83896228D02*
X203637219Y-84181942D01*
X203637219Y-84181942D02*
X203589600Y-84277180D01*
X203589600Y-84277180D02*
X203541981Y-84324800D01*
X203541981Y-84324800D02*
X203446743Y-84372419D01*
X203446743Y-84372419D02*
X203256267Y-84372419D01*
X203256267Y-84372419D02*
X203161029Y-84324800D01*
X204780077Y-83467657D02*
X204827696Y-83420038D01*
X204827696Y-83420038D02*
X204922934Y-83372419D01*
X204922934Y-83372419D02*
X205161029Y-83372419D01*
X205161029Y-83372419D02*
X205256267Y-83420038D01*
X205256267Y-83420038D02*
X205303886Y-83467657D01*
X205303886Y-83467657D02*
X205351505Y-83562895D01*
X205351505Y-83562895D02*
X205351505Y-83658133D01*
X205351505Y-83658133D02*
X205303886Y-83800990D01*
X205303886Y-83800990D02*
X204732458Y-84372419D01*
X204732458Y-84372419D02*
X205351505Y-84372419D01*
X205970553Y-83372419D02*
X206065791Y-83372419D01*
X206065791Y-83372419D02*
X206161029Y-83420038D01*
X206161029Y-83420038D02*
X206208648Y-83467657D01*
X206208648Y-83467657D02*
X206256267Y-83562895D01*
X206256267Y-83562895D02*
X206303886Y-83753371D01*
X206303886Y-83753371D02*
X206303886Y-83991466D01*
X206303886Y-83991466D02*
X206256267Y-84181942D01*
X206256267Y-84181942D02*
X206208648Y-84277180D01*
X206208648Y-84277180D02*
X206161029Y-84324800D01*
X206161029Y-84324800D02*
X206065791Y-84372419D01*
X206065791Y-84372419D02*
X205970553Y-84372419D01*
X205970553Y-84372419D02*
X205875315Y-84324800D01*
X205875315Y-84324800D02*
X205827696Y-84277180D01*
X205827696Y-84277180D02*
X205780077Y-84181942D01*
X205780077Y-84181942D02*
X205732458Y-83991466D01*
X205732458Y-83991466D02*
X205732458Y-83753371D01*
X205732458Y-83753371D02*
X205780077Y-83562895D01*
X205780077Y-83562895D02*
X205827696Y-83467657D01*
X205827696Y-83467657D02*
X205875315Y-83420038D01*
X205875315Y-83420038D02*
X205970553Y-83372419D01*
X206684839Y-83467657D02*
X206732458Y-83420038D01*
X206732458Y-83420038D02*
X206827696Y-83372419D01*
X206827696Y-83372419D02*
X207065791Y-83372419D01*
X207065791Y-83372419D02*
X207161029Y-83420038D01*
X207161029Y-83420038D02*
X207208648Y-83467657D01*
X207208648Y-83467657D02*
X207256267Y-83562895D01*
X207256267Y-83562895D02*
X207256267Y-83658133D01*
X207256267Y-83658133D02*
X207208648Y-83800990D01*
X207208648Y-83800990D02*
X206637220Y-84372419D01*
X206637220Y-84372419D02*
X207256267Y-84372419D01*
X208113410Y-83705752D02*
X208113410Y-84372419D01*
X207875315Y-83324800D02*
X207637220Y-84039085D01*
X207637220Y-84039085D02*
X208256267Y-84039085D01*
X211756265Y-56086704D02*
X212232455Y-56086704D01*
X211661027Y-56372419D02*
X211994360Y-55372419D01*
X211994360Y-55372419D02*
X212327693Y-56372419D01*
X212613408Y-56324800D02*
X212708646Y-56372419D01*
X212708646Y-56372419D02*
X212899122Y-56372419D01*
X212899122Y-56372419D02*
X212994360Y-56324800D01*
X212994360Y-56324800D02*
X213041979Y-56229561D01*
X213041979Y-56229561D02*
X213041979Y-56181942D01*
X213041979Y-56181942D02*
X212994360Y-56086704D01*
X212994360Y-56086704D02*
X212899122Y-56039085D01*
X212899122Y-56039085D02*
X212756265Y-56039085D01*
X212756265Y-56039085D02*
X212661027Y-55991466D01*
X212661027Y-55991466D02*
X212613408Y-55896228D01*
X212613408Y-55896228D02*
X212613408Y-55848609D01*
X212613408Y-55848609D02*
X212661027Y-55753371D01*
X212661027Y-55753371D02*
X212756265Y-55705752D01*
X212756265Y-55705752D02*
X212899122Y-55705752D01*
X212899122Y-55705752D02*
X212994360Y-55753371D01*
X213327694Y-55705752D02*
X213708646Y-55705752D01*
X213470551Y-55372419D02*
X213470551Y-56229561D01*
X213470551Y-56229561D02*
X213518170Y-56324800D01*
X213518170Y-56324800D02*
X213613408Y-56372419D01*
X213613408Y-56372419D02*
X213708646Y-56372419D01*
X214470551Y-56372419D02*
X214470551Y-55848609D01*
X214470551Y-55848609D02*
X214422932Y-55753371D01*
X214422932Y-55753371D02*
X214327694Y-55705752D01*
X214327694Y-55705752D02*
X214137218Y-55705752D01*
X214137218Y-55705752D02*
X214041980Y-55753371D01*
X214470551Y-56324800D02*
X214375313Y-56372419D01*
X214375313Y-56372419D02*
X214137218Y-56372419D01*
X214137218Y-56372419D02*
X214041980Y-56324800D01*
X214041980Y-56324800D02*
X213994361Y-56229561D01*
X213994361Y-56229561D02*
X213994361Y-56134323D01*
X213994361Y-56134323D02*
X214041980Y-56039085D01*
X214041980Y-56039085D02*
X214137218Y-55991466D01*
X214137218Y-55991466D02*
X214375313Y-55991466D01*
X214375313Y-55991466D02*
X214470551Y-55943847D01*
X214946742Y-56372419D02*
X214946742Y-55372419D01*
X214946742Y-55753371D02*
X215041980Y-55705752D01*
X215041980Y-55705752D02*
X215232456Y-55705752D01*
X215232456Y-55705752D02*
X215327694Y-55753371D01*
X215327694Y-55753371D02*
X215375313Y-55800990D01*
X215375313Y-55800990D02*
X215422932Y-55896228D01*
X215422932Y-55896228D02*
X215422932Y-56181942D01*
X215422932Y-56181942D02*
X215375313Y-56277180D01*
X215375313Y-56277180D02*
X215327694Y-56324800D01*
X215327694Y-56324800D02*
X215232456Y-56372419D01*
X215232456Y-56372419D02*
X215041980Y-56372419D01*
X215041980Y-56372419D02*
X214946742Y-56324800D01*
X215994361Y-56372419D02*
X215899123Y-56324800D01*
X215899123Y-56324800D02*
X215851504Y-56229561D01*
X215851504Y-56229561D02*
X215851504Y-55372419D01*
X216756266Y-56324800D02*
X216661028Y-56372419D01*
X216661028Y-56372419D02*
X216470552Y-56372419D01*
X216470552Y-56372419D02*
X216375314Y-56324800D01*
X216375314Y-56324800D02*
X216327695Y-56229561D01*
X216327695Y-56229561D02*
X216327695Y-55848609D01*
X216327695Y-55848609D02*
X216375314Y-55753371D01*
X216375314Y-55753371D02*
X216470552Y-55705752D01*
X216470552Y-55705752D02*
X216661028Y-55705752D01*
X216661028Y-55705752D02*
X216756266Y-55753371D01*
X216756266Y-55753371D02*
X216803885Y-55848609D01*
X216803885Y-55848609D02*
X216803885Y-55943847D01*
X216803885Y-55943847D02*
X216327695Y-56039085D01*
X217994362Y-56372419D02*
X217994362Y-55372419D01*
X217994362Y-55372419D02*
X218327695Y-56086704D01*
X218327695Y-56086704D02*
X218661028Y-55372419D01*
X218661028Y-55372419D02*
X218661028Y-56372419D01*
X219565790Y-55705752D02*
X219565790Y-56372419D01*
X219137219Y-55705752D02*
X219137219Y-56229561D01*
X219137219Y-56229561D02*
X219184838Y-56324800D01*
X219184838Y-56324800D02*
X219280076Y-56372419D01*
X219280076Y-56372419D02*
X219422933Y-56372419D01*
X219422933Y-56372419D02*
X219518171Y-56324800D01*
X219518171Y-56324800D02*
X219565790Y-56277180D01*
X220184838Y-56372419D02*
X220089600Y-56324800D01*
X220089600Y-56324800D02*
X220041981Y-56229561D01*
X220041981Y-56229561D02*
X220041981Y-55372419D01*
X220422934Y-55705752D02*
X220803886Y-55705752D01*
X220565791Y-55372419D02*
X220565791Y-56229561D01*
X220565791Y-56229561D02*
X220613410Y-56324800D01*
X220613410Y-56324800D02*
X220708648Y-56372419D01*
X220708648Y-56372419D02*
X220803886Y-56372419D01*
X221137220Y-56372419D02*
X221137220Y-55705752D01*
X221137220Y-55372419D02*
X221089601Y-55420038D01*
X221089601Y-55420038D02*
X221137220Y-55467657D01*
X221137220Y-55467657D02*
X221184839Y-55420038D01*
X221184839Y-55420038D02*
X221137220Y-55372419D01*
X221137220Y-55372419D02*
X221137220Y-55467657D01*
X221518172Y-55705752D02*
X221756267Y-56372419D01*
X221756267Y-56372419D02*
X221994362Y-55705752D01*
X222375315Y-56372419D02*
X222375315Y-55705752D01*
X222375315Y-55372419D02*
X222327696Y-55420038D01*
X222327696Y-55420038D02*
X222375315Y-55467657D01*
X222375315Y-55467657D02*
X222422934Y-55420038D01*
X222422934Y-55420038D02*
X222375315Y-55372419D01*
X222375315Y-55372419D02*
X222375315Y-55467657D01*
X222851505Y-56372419D02*
X222851505Y-55372419D01*
X222851505Y-55753371D02*
X222946743Y-55705752D01*
X222946743Y-55705752D02*
X223137219Y-55705752D01*
X223137219Y-55705752D02*
X223232457Y-55753371D01*
X223232457Y-55753371D02*
X223280076Y-55800990D01*
X223280076Y-55800990D02*
X223327695Y-55896228D01*
X223327695Y-55896228D02*
X223327695Y-56181942D01*
X223327695Y-56181942D02*
X223280076Y-56277180D01*
X223280076Y-56277180D02*
X223232457Y-56324800D01*
X223232457Y-56324800D02*
X223137219Y-56372419D01*
X223137219Y-56372419D02*
X222946743Y-56372419D01*
X222946743Y-56372419D02*
X222851505Y-56324800D01*
X223756267Y-56372419D02*
X223756267Y-55705752D01*
X223756267Y-55896228D02*
X223803886Y-55800990D01*
X223803886Y-55800990D02*
X223851505Y-55753371D01*
X223851505Y-55753371D02*
X223946743Y-55705752D01*
X223946743Y-55705752D02*
X224041981Y-55705752D01*
X224803886Y-56372419D02*
X224803886Y-55848609D01*
X224803886Y-55848609D02*
X224756267Y-55753371D01*
X224756267Y-55753371D02*
X224661029Y-55705752D01*
X224661029Y-55705752D02*
X224470553Y-55705752D01*
X224470553Y-55705752D02*
X224375315Y-55753371D01*
X224803886Y-56324800D02*
X224708648Y-56372419D01*
X224708648Y-56372419D02*
X224470553Y-56372419D01*
X224470553Y-56372419D02*
X224375315Y-56324800D01*
X224375315Y-56324800D02*
X224327696Y-56229561D01*
X224327696Y-56229561D02*
X224327696Y-56134323D01*
X224327696Y-56134323D02*
X224375315Y-56039085D01*
X224375315Y-56039085D02*
X224470553Y-55991466D01*
X224470553Y-55991466D02*
X224708648Y-55991466D01*
X224708648Y-55991466D02*
X224803886Y-55943847D01*
X225137220Y-55705752D02*
X225518172Y-55705752D01*
X225280077Y-55372419D02*
X225280077Y-56229561D01*
X225280077Y-56229561D02*
X225327696Y-56324800D01*
X225327696Y-56324800D02*
X225422934Y-56372419D01*
X225422934Y-56372419D02*
X225518172Y-56372419D01*
X225994363Y-56372419D02*
X225899125Y-56324800D01*
X225899125Y-56324800D02*
X225851506Y-56277180D01*
X225851506Y-56277180D02*
X225803887Y-56181942D01*
X225803887Y-56181942D02*
X225803887Y-55896228D01*
X225803887Y-55896228D02*
X225851506Y-55800990D01*
X225851506Y-55800990D02*
X225899125Y-55753371D01*
X225899125Y-55753371D02*
X225994363Y-55705752D01*
X225994363Y-55705752D02*
X226137220Y-55705752D01*
X226137220Y-55705752D02*
X226232458Y-55753371D01*
X226232458Y-55753371D02*
X226280077Y-55800990D01*
X226280077Y-55800990D02*
X226327696Y-55896228D01*
X226327696Y-55896228D02*
X226327696Y-56181942D01*
X226327696Y-56181942D02*
X226280077Y-56277180D01*
X226280077Y-56277180D02*
X226232458Y-56324800D01*
X226232458Y-56324800D02*
X226137220Y-56372419D01*
X226137220Y-56372419D02*
X225994363Y-56372419D01*
X226756268Y-56372419D02*
X226756268Y-55705752D01*
X226756268Y-55896228D02*
X226803887Y-55800990D01*
X226803887Y-55800990D02*
X226851506Y-55753371D01*
X226851506Y-55753371D02*
X226946744Y-55705752D01*
X226946744Y-55705752D02*
X227041982Y-55705752D01*
D11*
G36*
X160318609Y-61590858D02*
G01*
X161222451Y-61590858D01*
X161222451Y-59637996D01*
X162071871Y-59637996D01*
X162071871Y-61590860D01*
X163000000Y-61590860D01*
X163000000Y-59468297D01*
X163849653Y-59468297D01*
X163849653Y-62804929D01*
X159469344Y-62804929D01*
X159469344Y-59468257D01*
X160318609Y-59468257D01*
X160318609Y-61590858D01*
G37*
G36*
X160318609Y-65607137D02*
G01*
X161222451Y-65607137D01*
X161222451Y-63654429D01*
X162071871Y-63654429D01*
X162071871Y-65607137D01*
X163000000Y-65607137D01*
X163000000Y-63484342D01*
X163849653Y-63484342D01*
X163849653Y-66820201D01*
X159469344Y-66820201D01*
X159469344Y-63484342D01*
X160318609Y-63484342D01*
X160318609Y-65607137D01*
G37*
G36*
X160318609Y-69623374D02*
G01*
X161222451Y-69623374D01*
X161222451Y-67670009D01*
X162071871Y-67670009D01*
X162071871Y-69623375D01*
X163000000Y-69623375D01*
X163000000Y-67500000D01*
X163849653Y-67500000D01*
X163849653Y-70836710D01*
X159469344Y-70836710D01*
X159469344Y-67500000D01*
X160318609Y-67500000D01*
X160318609Y-69623374D01*
G37*
G36*
X163849653Y-72686771D02*
G01*
X159469344Y-72686771D01*
X159469344Y-71473397D01*
X163849653Y-71473397D01*
X163849653Y-72686771D01*
G37*
G36*
X161619080Y-73443533D02*
G01*
X161632989Y-73445319D01*
X161646215Y-73448071D01*
X161658792Y-73451740D01*
X161670752Y-73456277D01*
X161682130Y-73461631D01*
X161692959Y-73467753D01*
X161703271Y-73474595D01*
X161713100Y-73482106D01*
X161722481Y-73490238D01*
X161731445Y-73498941D01*
X161740026Y-73508165D01*
X161756174Y-73527982D01*
X161771190Y-73549293D01*
X161785343Y-73571703D01*
X161798898Y-73594818D01*
X161825281Y-73641581D01*
X161838643Y-73664440D01*
X161852475Y-73686423D01*
X161867042Y-73707137D01*
X161882611Y-73726186D01*
X162015570Y-73905730D01*
X162152338Y-74082783D01*
X162292814Y-74257227D01*
X162436897Y-74428943D01*
X162584488Y-74597810D01*
X162735485Y-74763710D01*
X162889787Y-74926524D01*
X163047296Y-75086133D01*
X163207909Y-75242417D01*
X163371526Y-75395257D01*
X163538047Y-75544535D01*
X163707371Y-75690130D01*
X163879399Y-75831924D01*
X164054028Y-75969798D01*
X164231158Y-76103633D01*
X164410690Y-76233309D01*
X164465694Y-76288080D01*
X164468702Y-76293290D01*
X164471441Y-76298590D01*
X164473920Y-76303975D01*
X164476144Y-76309438D01*
X164479863Y-76320578D01*
X164482656Y-76331968D01*
X164484583Y-76343564D01*
X164485705Y-76355322D01*
X164486080Y-76367199D01*
X164485768Y-76379151D01*
X164484829Y-76391134D01*
X164483322Y-76403104D01*
X164481307Y-76415019D01*
X164478843Y-76426834D01*
X164475990Y-76438506D01*
X164472808Y-76449991D01*
X164469356Y-76461246D01*
X164465694Y-76472226D01*
X164463278Y-76478951D01*
X164460544Y-76485311D01*
X164457508Y-76491324D01*
X164454187Y-76497010D01*
X164450596Y-76502388D01*
X164446753Y-76507477D01*
X164442672Y-76512297D01*
X164438372Y-76516866D01*
X164433867Y-76521204D01*
X164429174Y-76525329D01*
X164419289Y-76533021D01*
X164408848Y-76540095D01*
X164397980Y-76546704D01*
X164352846Y-76571560D01*
X164341797Y-76578146D01*
X164331103Y-76585188D01*
X164320892Y-76592839D01*
X164316009Y-76596941D01*
X164311296Y-76601252D01*
X164267656Y-76629934D01*
X164224329Y-76659492D01*
X164138539Y-76720824D01*
X164053781Y-76784426D01*
X163969910Y-76849471D01*
X163804252Y-76980595D01*
X163722175Y-77045023D01*
X163640406Y-77107596D01*
X163603409Y-77143317D01*
X163565928Y-77177894D01*
X163528025Y-77211744D01*
X163489761Y-77245280D01*
X163412395Y-77313072D01*
X163373417Y-77348158D01*
X163334322Y-77384590D01*
X163107953Y-77597572D01*
X162888770Y-77816558D01*
X162676883Y-78041077D01*
X162472400Y-78270658D01*
X162275431Y-78504832D01*
X162086084Y-78743127D01*
X161904469Y-78985072D01*
X161730693Y-79230197D01*
X161721741Y-79238848D01*
X161712435Y-79247244D01*
X161702777Y-79255309D01*
X161692771Y-79262964D01*
X161682421Y-79270131D01*
X161671728Y-79276732D01*
X161660697Y-79282690D01*
X161649330Y-79287927D01*
X161637631Y-79292364D01*
X161625603Y-79295924D01*
X161613249Y-79298528D01*
X161606951Y-79299448D01*
X161600572Y-79300100D01*
X161594114Y-79300474D01*
X161587576Y-79300560D01*
X161580959Y-79300350D01*
X161577345Y-79300070D01*
X161574264Y-79299832D01*
X161567490Y-79298998D01*
X161560638Y-79297837D01*
X161553708Y-79296340D01*
X161546702Y-79294497D01*
X161538964Y-79292392D01*
X161531419Y-79289859D01*
X161524062Y-79286918D01*
X161516884Y-79283589D01*
X161509881Y-79279891D01*
X161503045Y-79275845D01*
X161496370Y-79271469D01*
X161489849Y-79266785D01*
X161477246Y-79256567D01*
X161465182Y-79245351D01*
X161453608Y-79233293D01*
X161442471Y-79220552D01*
X161431719Y-79207286D01*
X161421301Y-79193654D01*
X161401259Y-79165924D01*
X161381931Y-79138625D01*
X161372406Y-79125533D01*
X161362904Y-79113024D01*
X161255248Y-78959888D01*
X161143744Y-78808427D01*
X161028568Y-78658712D01*
X160909894Y-78510814D01*
X160787897Y-78364803D01*
X160662752Y-78220751D01*
X160534634Y-78078728D01*
X160403719Y-77938806D01*
X160270181Y-77801055D01*
X160134195Y-77665545D01*
X159995937Y-77532349D01*
X159855580Y-77401536D01*
X159713301Y-77273178D01*
X159569274Y-77147346D01*
X159276676Y-76903541D01*
X158760532Y-76507281D01*
X158753122Y-76497204D01*
X158745936Y-76486761D01*
X158739056Y-76475987D01*
X158732564Y-76464912D01*
X158726541Y-76453570D01*
X158721070Y-76441992D01*
X158716232Y-76430211D01*
X158712108Y-76418259D01*
X158708782Y-76406167D01*
X158706334Y-76393969D01*
X158705410Y-76386352D01*
X159450182Y-76386352D01*
X159451124Y-76406185D01*
X159453249Y-76425940D01*
X159456604Y-76445594D01*
X159461238Y-76465123D01*
X159467198Y-76484502D01*
X159474533Y-76503708D01*
X159483290Y-76522717D01*
X159493517Y-76541505D01*
X159505263Y-76560047D01*
X159518576Y-76578321D01*
X159518576Y-76578322D01*
X159568683Y-76647497D01*
X159619187Y-76715896D01*
X159670266Y-76783643D01*
X159722099Y-76850866D01*
X159774866Y-76917691D01*
X159828745Y-76984246D01*
X159883915Y-77050656D01*
X159940555Y-77117048D01*
X159942467Y-77119880D01*
X159944595Y-77122758D01*
X159946908Y-77125666D01*
X159949375Y-77128589D01*
X159951964Y-77131511D01*
X159954644Y-77134416D01*
X159960155Y-77140115D01*
X159979639Y-77159114D01*
X160119328Y-77313456D01*
X160262133Y-77466588D01*
X160407901Y-77617679D01*
X160556480Y-77765898D01*
X160707717Y-77910413D01*
X160861460Y-78050392D01*
X161017556Y-78185004D01*
X161175853Y-78313417D01*
X161267528Y-78383920D01*
X161313794Y-78417919D01*
X161337181Y-78434254D01*
X161360793Y-78450011D01*
X161384672Y-78465091D01*
X161408860Y-78479392D01*
X161433398Y-78492815D01*
X161458329Y-78505259D01*
X161483694Y-78516623D01*
X161509536Y-78526807D01*
X161535896Y-78535710D01*
X161562815Y-78543232D01*
X161577345Y-78543307D01*
X161591744Y-78543051D01*
X161606000Y-78542440D01*
X161620099Y-78541447D01*
X161634028Y-78540048D01*
X161647775Y-78538218D01*
X161661328Y-78535933D01*
X161674673Y-78533166D01*
X161687797Y-78529892D01*
X161700687Y-78526088D01*
X161713332Y-78521728D01*
X161725717Y-78516786D01*
X161737830Y-78511238D01*
X161749659Y-78505059D01*
X161761190Y-78498224D01*
X161772411Y-78490707D01*
X161851029Y-78436748D01*
X161929157Y-78380781D01*
X162006738Y-78322941D01*
X162083716Y-78263365D01*
X162160036Y-78202188D01*
X162235642Y-78139548D01*
X162384487Y-78010417D01*
X162529804Y-77877062D01*
X162671146Y-77740569D01*
X162808066Y-77602028D01*
X162940116Y-77462525D01*
X163157930Y-77222867D01*
X163266361Y-77102659D01*
X163372123Y-76981117D01*
X163423452Y-76919592D01*
X163473453Y-76857429D01*
X163521905Y-76794526D01*
X163568587Y-76730782D01*
X163613280Y-76666097D01*
X163655763Y-76600367D01*
X163695815Y-76533492D01*
X163733215Y-76465370D01*
X163738162Y-76454008D01*
X163742413Y-76442565D01*
X163745990Y-76431052D01*
X163748914Y-76419477D01*
X163751206Y-76407849D01*
X163752888Y-76396178D01*
X163753981Y-76384474D01*
X163754507Y-76372744D01*
X163754488Y-76360999D01*
X163753943Y-76349248D01*
X163752896Y-76337500D01*
X163751368Y-76325764D01*
X163746951Y-76302366D01*
X163740865Y-76279127D01*
X163733281Y-76256122D01*
X163724371Y-76233426D01*
X163714305Y-76211110D01*
X163703256Y-76189250D01*
X163691394Y-76167920D01*
X163678891Y-76147193D01*
X163665918Y-76127144D01*
X163652646Y-76107846D01*
X163585880Y-76015033D01*
X163517140Y-75923421D01*
X163446535Y-75832967D01*
X163374173Y-75743627D01*
X163300162Y-75655357D01*
X163224613Y-75568112D01*
X163069331Y-75396526D01*
X162909196Y-75228517D01*
X162745076Y-75063733D01*
X162577842Y-74901824D01*
X162408362Y-74742437D01*
X162319310Y-74668262D01*
X162231324Y-74593115D01*
X162143506Y-74518650D01*
X162054958Y-74446526D01*
X162010130Y-74411859D01*
X161964782Y-74378398D01*
X161918802Y-74346351D01*
X161872078Y-74315923D01*
X161824497Y-74287323D01*
X161775949Y-74260757D01*
X161726319Y-74236433D01*
X161675496Y-74214557D01*
X161665356Y-74211984D01*
X161655309Y-74209849D01*
X161645352Y-74208140D01*
X161635486Y-74206843D01*
X161625710Y-74205946D01*
X161616022Y-74205435D01*
X161606421Y-74205297D01*
X161596907Y-74205519D01*
X161578136Y-74206994D01*
X161559701Y-74209755D01*
X161541595Y-74213699D01*
X161523809Y-74218721D01*
X161506338Y-74224718D01*
X161489174Y-74231587D01*
X161472310Y-74239223D01*
X161455738Y-74247523D01*
X161439450Y-74256383D01*
X161423441Y-74265700D01*
X161407702Y-74275369D01*
X161392227Y-74285287D01*
X161217058Y-74412013D01*
X161044499Y-74544965D01*
X160874774Y-74683666D01*
X160708108Y-74827640D01*
X160544725Y-74976409D01*
X160384849Y-75129496D01*
X160228704Y-75286425D01*
X160076515Y-75446717D01*
X160060246Y-75475033D01*
X160003862Y-75534430D01*
X159947944Y-75595523D01*
X159892660Y-75657976D01*
X159838174Y-75721450D01*
X159784652Y-75785609D01*
X159732259Y-75850115D01*
X159681163Y-75914631D01*
X159631527Y-75978820D01*
X159605785Y-76010244D01*
X159580742Y-76043367D01*
X159556783Y-76077998D01*
X159534291Y-76113945D01*
X159513650Y-76151016D01*
X159495245Y-76189021D01*
X159479459Y-76227768D01*
X159466676Y-76267066D01*
X159461530Y-76286862D01*
X159457279Y-76306724D01*
X159453971Y-76326628D01*
X159451653Y-76346550D01*
X159450374Y-76366466D01*
X159450182Y-76386352D01*
X158705410Y-76386352D01*
X158704846Y-76381697D01*
X158704487Y-76375543D01*
X158704400Y-76369382D01*
X158704593Y-76363219D01*
X158705077Y-76357058D01*
X158705863Y-76350902D01*
X158706960Y-76344755D01*
X158708379Y-76338623D01*
X158710131Y-76332507D01*
X158712224Y-76326414D01*
X158714670Y-76320346D01*
X158716376Y-76314735D01*
X158718488Y-76309051D01*
X158720961Y-76303310D01*
X158723753Y-76297527D01*
X158726818Y-76291717D01*
X158730113Y-76285895D01*
X158733595Y-76280076D01*
X158737218Y-76274276D01*
X158744718Y-76262789D01*
X158752260Y-76251555D01*
X158759495Y-76240694D01*
X158766071Y-76230326D01*
X159076455Y-76011318D01*
X159249246Y-75874473D01*
X159422963Y-75734518D01*
X159509165Y-75663484D01*
X159594393Y-75591804D01*
X159678246Y-75519521D01*
X159760321Y-75446678D01*
X160262985Y-74965473D01*
X160422961Y-74800907D01*
X160578208Y-74633750D01*
X160728811Y-74463916D01*
X160874853Y-74291324D01*
X161016417Y-74115891D01*
X161153587Y-73937533D01*
X161286447Y-73756167D01*
X161415080Y-73571710D01*
X161417675Y-73555945D01*
X161425601Y-73544306D01*
X161434241Y-73533169D01*
X161443548Y-73522556D01*
X161453478Y-73512490D01*
X161463984Y-73502995D01*
X161475021Y-73494093D01*
X161486541Y-73485807D01*
X161498501Y-73478161D01*
X161510853Y-73471176D01*
X161523552Y-73464878D01*
X161536551Y-73459287D01*
X161549806Y-73454428D01*
X161563270Y-73450322D01*
X161576896Y-73446994D01*
X161590640Y-73444466D01*
X161604456Y-73442762D01*
X161619080Y-73443533D01*
G37*
G36*
X161638810Y-74346085D02*
G01*
X161658068Y-74348115D01*
X161676995Y-74351590D01*
X161695477Y-74356573D01*
X161704517Y-74359650D01*
X161713402Y-74363128D01*
X161722119Y-74367014D01*
X161730654Y-74371317D01*
X161765012Y-74392464D01*
X161799021Y-74414449D01*
X161832708Y-74437203D01*
X161866100Y-74460658D01*
X161932109Y-74509400D01*
X161997267Y-74560131D01*
X162061794Y-74612307D01*
X162125907Y-74665385D01*
X162253770Y-74772069D01*
X162263105Y-74772069D01*
X162545071Y-75040125D01*
X162685236Y-75177231D01*
X162823630Y-75316548D01*
X162959333Y-75458196D01*
X163091426Y-75602296D01*
X163218988Y-75748967D01*
X163280783Y-75823304D01*
X163341101Y-75898328D01*
X163365003Y-75934947D01*
X163391393Y-75971318D01*
X163448332Y-76043838D01*
X163477230Y-76080246D01*
X163505313Y-76116927D01*
X163531755Y-76154010D01*
X163555731Y-76191625D01*
X163566536Y-76210673D01*
X163576415Y-76229902D01*
X163585265Y-76249330D01*
X163592982Y-76268972D01*
X163599463Y-76288844D01*
X163604605Y-76308964D01*
X163608305Y-76329346D01*
X163610460Y-76350008D01*
X163610966Y-76370965D01*
X163609721Y-76392234D01*
X163606620Y-76413832D01*
X163601562Y-76435773D01*
X163594442Y-76458075D01*
X163585157Y-76480754D01*
X163573605Y-76503826D01*
X163559682Y-76527307D01*
X163397337Y-76741808D01*
X163226156Y-76953292D01*
X163046893Y-77161068D01*
X163004648Y-77207113D01*
X162860302Y-77364443D01*
X162667139Y-77562725D01*
X162468158Y-77755222D01*
X162264112Y-77941241D01*
X162055757Y-78120090D01*
X162032892Y-78135421D01*
X162010459Y-78151628D01*
X161988368Y-78168545D01*
X161966531Y-78186008D01*
X161879919Y-78257997D01*
X161858004Y-78275702D01*
X161835806Y-78292959D01*
X161813234Y-78309603D01*
X161790199Y-78325468D01*
X161766613Y-78340389D01*
X161742385Y-78354201D01*
X161717427Y-78366737D01*
X161691648Y-78377833D01*
X161674056Y-78384323D01*
X161656766Y-78389428D01*
X161639768Y-78393208D01*
X161623049Y-78395721D01*
X161606600Y-78397024D01*
X161590409Y-78397177D01*
X161589372Y-78397116D01*
X161574465Y-78396238D01*
X161558756Y-78394265D01*
X161543273Y-78391316D01*
X161528004Y-78387450D01*
X161512938Y-78382725D01*
X161498064Y-78377200D01*
X161483371Y-78370932D01*
X161468848Y-78363980D01*
X161440267Y-78348259D01*
X161412234Y-78330502D01*
X161384660Y-78311176D01*
X161357457Y-78290749D01*
X161330537Y-78269686D01*
X161277193Y-78227522D01*
X161250593Y-78207355D01*
X161223923Y-78188419D01*
X161004623Y-78004724D01*
X160966025Y-77970258D01*
X160788029Y-77811313D01*
X160681258Y-77711300D01*
X160575779Y-77609263D01*
X160471795Y-77505336D01*
X160369511Y-77399654D01*
X160269133Y-77292351D01*
X160170864Y-77183564D01*
X160074910Y-77073426D01*
X160030290Y-77020249D01*
X161143315Y-77020249D01*
X161144763Y-77038599D01*
X161147031Y-77056759D01*
X161150059Y-77074742D01*
X161153784Y-77092557D01*
X161158146Y-77110216D01*
X161163081Y-77127730D01*
X161168529Y-77145108D01*
X161174429Y-77162363D01*
X161187334Y-77196545D01*
X161201305Y-77230361D01*
X161230469Y-77297243D01*
X161260726Y-77356501D01*
X161277411Y-77387466D01*
X161295239Y-77418701D01*
X161314289Y-77449741D01*
X161334640Y-77480122D01*
X161356370Y-77509379D01*
X161379560Y-77537047D01*
X161404288Y-77562660D01*
X161417253Y-77574551D01*
X161430632Y-77585755D01*
X161444435Y-77596212D01*
X161458673Y-77605866D01*
X161473353Y-77614657D01*
X161488488Y-77622528D01*
X161504086Y-77629421D01*
X161520157Y-77635277D01*
X161536711Y-77640038D01*
X161553759Y-77643647D01*
X161571309Y-77646045D01*
X161589372Y-77647174D01*
X161607958Y-77646976D01*
X161627077Y-77645393D01*
X161637546Y-77642105D01*
X161647783Y-77638310D01*
X161657791Y-77634031D01*
X161667573Y-77629288D01*
X161677131Y-77624103D01*
X161686466Y-77618496D01*
X161695583Y-77612490D01*
X161704482Y-77606104D01*
X161713167Y-77599360D01*
X161721640Y-77592280D01*
X161737960Y-77577193D01*
X161753462Y-77561012D01*
X161768164Y-77543907D01*
X161782087Y-77526047D01*
X161795251Y-77507601D01*
X161807674Y-77488737D01*
X161819376Y-77469626D01*
X161830377Y-77450435D01*
X161840697Y-77431335D01*
X161850355Y-77412494D01*
X161859371Y-77394081D01*
X161900894Y-77291843D01*
X161937146Y-77185970D01*
X161968193Y-77076930D01*
X161994096Y-76965193D01*
X162014922Y-76851229D01*
X162030733Y-76735507D01*
X162041594Y-76618497D01*
X162045945Y-76532692D01*
X162099028Y-76532692D01*
X162327409Y-76542938D01*
X162551546Y-76551560D01*
X162775828Y-76561469D01*
X162889396Y-76567814D01*
X163004648Y-76575571D01*
X163012449Y-76481179D01*
X163015431Y-76432451D01*
X163017344Y-76383068D01*
X163017844Y-76333303D01*
X163016588Y-76283432D01*
X163015195Y-76258541D01*
X163013234Y-76233727D01*
X163010662Y-76209023D01*
X163007437Y-76184464D01*
X162143066Y-76223509D01*
X162101929Y-76230365D01*
X162104624Y-76304229D01*
X162105552Y-76341005D01*
X162105968Y-76377989D01*
X162105697Y-76415418D01*
X162104566Y-76453528D01*
X162102400Y-76492553D01*
X162099028Y-76532692D01*
X162045945Y-76532692D01*
X162047569Y-76500667D01*
X162048722Y-76382488D01*
X162045117Y-76264429D01*
X162036818Y-76146960D01*
X162023890Y-76030549D01*
X162006395Y-75915667D01*
X161984399Y-75802782D01*
X161957965Y-75692365D01*
X161927157Y-75584885D01*
X161905743Y-75530792D01*
X161893934Y-75502832D01*
X161881257Y-75474673D01*
X161867611Y-75446621D01*
X161852895Y-75418983D01*
X161837009Y-75392064D01*
X161819851Y-75366172D01*
X161801322Y-75341614D01*
X161781320Y-75318695D01*
X161770736Y-75307946D01*
X161759746Y-75297722D01*
X161748337Y-75288061D01*
X161736497Y-75279002D01*
X161724214Y-75270583D01*
X161711474Y-75262842D01*
X161698266Y-75255818D01*
X161684576Y-75249548D01*
X161670393Y-75244071D01*
X161655703Y-75239426D01*
X161640494Y-75235651D01*
X161624753Y-75232784D01*
X161611680Y-75233353D01*
X161598910Y-75234753D01*
X161586439Y-75236951D01*
X161574266Y-75239910D01*
X161562385Y-75243596D01*
X161550795Y-75247975D01*
X161539492Y-75253012D01*
X161528473Y-75258671D01*
X161517734Y-75264919D01*
X161507273Y-75271720D01*
X161497085Y-75279039D01*
X161487169Y-75286843D01*
X161477521Y-75295095D01*
X161468137Y-75303762D01*
X161450150Y-75322199D01*
X161433183Y-75341875D01*
X161417211Y-75362513D01*
X161402207Y-75383834D01*
X161388147Y-75405560D01*
X161375004Y-75427414D01*
X161362753Y-75449116D01*
X161340825Y-75490953D01*
X161334124Y-75490953D01*
X161328672Y-75476677D01*
X161323447Y-75461991D01*
X161318539Y-75447011D01*
X161314040Y-75431853D01*
X161310043Y-75416633D01*
X161306638Y-75401467D01*
X161305187Y-75393941D01*
X161303918Y-75386473D01*
X161302843Y-75379076D01*
X161301974Y-75371765D01*
X161298217Y-75371765D01*
X161284809Y-75442375D01*
X161270137Y-75512461D01*
X161254394Y-75582104D01*
X161237776Y-75651388D01*
X161202691Y-75789204D01*
X161166440Y-75926566D01*
X161196775Y-75913779D01*
X161227455Y-75901746D01*
X161258415Y-75890308D01*
X161289588Y-75879305D01*
X161415119Y-75836430D01*
X161408711Y-75815733D01*
X161402714Y-75794885D01*
X161397140Y-75773866D01*
X161391999Y-75752660D01*
X161387303Y-75731249D01*
X161383062Y-75709616D01*
X161379290Y-75687741D01*
X161375996Y-75665608D01*
X161390959Y-75627764D01*
X161408034Y-75587954D01*
X161417549Y-75567921D01*
X161427816Y-75548129D01*
X161438908Y-75528819D01*
X161450900Y-75510238D01*
X161463866Y-75492627D01*
X161477881Y-75476230D01*
X161485304Y-75468564D01*
X161493018Y-75461292D01*
X161501031Y-75454446D01*
X161509353Y-75448056D01*
X161517992Y-75442153D01*
X161526958Y-75436766D01*
X161536261Y-75431927D01*
X161545910Y-75427665D01*
X161555914Y-75424012D01*
X161566282Y-75420998D01*
X161577023Y-75418653D01*
X161588148Y-75417007D01*
X161598569Y-75416389D01*
X161608659Y-75416526D01*
X161618428Y-75417383D01*
X161627884Y-75418929D01*
X161637036Y-75421130D01*
X161645893Y-75423954D01*
X161654464Y-75427367D01*
X161662759Y-75431337D01*
X161670785Y-75435830D01*
X161678552Y-75440814D01*
X161686069Y-75446255D01*
X161693345Y-75452122D01*
X161700389Y-75458380D01*
X161707209Y-75464997D01*
X161713815Y-75471941D01*
X161720215Y-75479177D01*
X161732435Y-75494397D01*
X161743940Y-75510393D01*
X161754802Y-75526903D01*
X161765092Y-75543663D01*
X161801965Y-75607932D01*
X161828626Y-75686165D01*
X161852110Y-75765487D01*
X161872426Y-75845772D01*
X161889586Y-75926895D01*
X161903598Y-76008729D01*
X161914472Y-76091149D01*
X161922218Y-76174028D01*
X161926846Y-76257242D01*
X161928366Y-76340664D01*
X161926787Y-76424169D01*
X161922119Y-76507631D01*
X161914371Y-76590923D01*
X161903555Y-76673921D01*
X161889678Y-76756498D01*
X161872752Y-76838528D01*
X161852785Y-76919887D01*
X161838013Y-76966692D01*
X161821148Y-77015987D01*
X161811591Y-77040799D01*
X161801103Y-77065309D01*
X161789547Y-77089211D01*
X161776787Y-77112196D01*
X161762687Y-77133956D01*
X161747111Y-77154184D01*
X161738727Y-77163627D01*
X161729923Y-77172571D01*
X161720681Y-77180979D01*
X161710986Y-77188810D01*
X161700819Y-77196028D01*
X161690164Y-77202593D01*
X161679004Y-77208467D01*
X161667322Y-77213612D01*
X161655100Y-77217989D01*
X161642322Y-77221559D01*
X161628971Y-77224284D01*
X161615030Y-77226126D01*
X161596743Y-77217799D01*
X161579354Y-77208717D01*
X161562832Y-77198909D01*
X161547146Y-77188409D01*
X161532268Y-77177246D01*
X161518165Y-77165452D01*
X161504809Y-77153058D01*
X161492169Y-77140095D01*
X161480214Y-77126595D01*
X161468915Y-77112589D01*
X161458240Y-77098108D01*
X161448161Y-77083183D01*
X161438646Y-77067845D01*
X161429665Y-77052126D01*
X161413186Y-77019668D01*
X161398482Y-76986059D01*
X161385310Y-76951549D01*
X161373428Y-76916387D01*
X161362594Y-76880822D01*
X161343105Y-76809486D01*
X161324905Y-76739537D01*
X161302473Y-76774853D01*
X161280451Y-76810247D01*
X161236666Y-76880982D01*
X161214416Y-76916182D01*
X161191603Y-76951173D01*
X161167984Y-76985886D01*
X161143315Y-77020249D01*
X160030290Y-77020249D01*
X159981476Y-76962073D01*
X159890765Y-76849640D01*
X159802984Y-76736260D01*
X159718337Y-76622070D01*
X159637028Y-76507204D01*
X159637027Y-76507242D01*
X159625332Y-76488760D01*
X159615455Y-76470398D01*
X159607324Y-76452156D01*
X159600863Y-76434035D01*
X159596001Y-76416037D01*
X159592661Y-76398161D01*
X159590771Y-76380409D01*
X159590625Y-76375388D01*
X160023913Y-76375388D01*
X160023913Y-76382322D01*
X160196012Y-76435932D01*
X160966025Y-76704752D01*
X160972881Y-76487991D01*
X160979234Y-76487991D01*
X161850229Y-76527307D01*
X161859370Y-76520529D01*
X161862313Y-76487360D01*
X161864690Y-76452668D01*
X161866325Y-76416935D01*
X161867040Y-76380642D01*
X161866658Y-76344271D01*
X161865003Y-76308304D01*
X161863642Y-76290622D01*
X161861897Y-76273222D01*
X161859744Y-76256163D01*
X161857163Y-76239506D01*
X161843450Y-76239506D01*
X160998640Y-76274600D01*
X160970054Y-76269332D01*
X160966025Y-76032816D01*
X160731699Y-76120611D01*
X160496422Y-76207022D01*
X160260418Y-76291973D01*
X160023913Y-76375388D01*
X159590625Y-76375388D01*
X159590257Y-76362780D01*
X159591044Y-76345277D01*
X159593059Y-76327899D01*
X159596227Y-76310647D01*
X159600475Y-76293522D01*
X159605729Y-76276525D01*
X159611915Y-76259657D01*
X159618959Y-76242917D01*
X159626787Y-76226307D01*
X159644499Y-76193480D01*
X159664459Y-76161180D01*
X159686077Y-76129414D01*
X159708760Y-76098186D01*
X159754958Y-76037371D01*
X159798320Y-75978781D01*
X159980396Y-75758357D01*
X160168959Y-75542230D01*
X160364026Y-75331569D01*
X160464005Y-75228653D01*
X160565617Y-75127541D01*
X160668864Y-75028378D01*
X160773749Y-74931312D01*
X160880275Y-74836488D01*
X160988443Y-74744052D01*
X161098255Y-74654149D01*
X161209715Y-74566926D01*
X161322824Y-74482529D01*
X161437585Y-74401104D01*
X161452993Y-74391400D01*
X161469318Y-74382447D01*
X161486447Y-74374308D01*
X161504267Y-74367047D01*
X161522664Y-74360726D01*
X161541525Y-74355409D01*
X161560736Y-74351158D01*
X161580183Y-74348037D01*
X161599754Y-74346110D01*
X161619334Y-74345438D01*
X161638810Y-74346085D01*
G37*
D12*
X183738095Y-73454819D02*
X183738095Y-74264342D01*
X183738095Y-74264342D02*
X183785714Y-74359580D01*
X183785714Y-74359580D02*
X183833333Y-74407200D01*
X183833333Y-74407200D02*
X183928571Y-74454819D01*
X183928571Y-74454819D02*
X184119047Y-74454819D01*
X184119047Y-74454819D02*
X184214285Y-74407200D01*
X184214285Y-74407200D02*
X184261904Y-74359580D01*
X184261904Y-74359580D02*
X184309523Y-74264342D01*
X184309523Y-74264342D02*
X184309523Y-73454819D01*
X185309523Y-74454819D02*
X184738095Y-74454819D01*
X185023809Y-74454819D02*
X185023809Y-73454819D01*
X185023809Y-73454819D02*
X184928571Y-73597676D01*
X184928571Y-73597676D02*
X184833333Y-73692914D01*
X184833333Y-73692914D02*
X184738095Y-73740533D01*
X229404761Y-76550057D02*
X229309523Y-76502438D01*
X229309523Y-76502438D02*
X229214285Y-76407200D01*
X229214285Y-76407200D02*
X229071428Y-76264342D01*
X229071428Y-76264342D02*
X228976190Y-76216723D01*
X228976190Y-76216723D02*
X228880952Y-76216723D01*
X228928571Y-76454819D02*
X228833333Y-76407200D01*
X228833333Y-76407200D02*
X228738095Y-76311961D01*
X228738095Y-76311961D02*
X228690476Y-76121485D01*
X228690476Y-76121485D02*
X228690476Y-75788152D01*
X228690476Y-75788152D02*
X228738095Y-75597676D01*
X228738095Y-75597676D02*
X228833333Y-75502438D01*
X228833333Y-75502438D02*
X228928571Y-75454819D01*
X228928571Y-75454819D02*
X229119047Y-75454819D01*
X229119047Y-75454819D02*
X229214285Y-75502438D01*
X229214285Y-75502438D02*
X229309523Y-75597676D01*
X229309523Y-75597676D02*
X229357142Y-75788152D01*
X229357142Y-75788152D02*
X229357142Y-76121485D01*
X229357142Y-76121485D02*
X229309523Y-76311961D01*
X229309523Y-76311961D02*
X229214285Y-76407200D01*
X229214285Y-76407200D02*
X229119047Y-76454819D01*
X229119047Y-76454819D02*
X228928571Y-76454819D01*
X229738095Y-75550057D02*
X229785714Y-75502438D01*
X229785714Y-75502438D02*
X229880952Y-75454819D01*
X229880952Y-75454819D02*
X230119047Y-75454819D01*
X230119047Y-75454819D02*
X230214285Y-75502438D01*
X230214285Y-75502438D02*
X230261904Y-75550057D01*
X230261904Y-75550057D02*
X230309523Y-75645295D01*
X230309523Y-75645295D02*
X230309523Y-75740533D01*
X230309523Y-75740533D02*
X230261904Y-75883390D01*
X230261904Y-75883390D02*
X229690476Y-76454819D01*
X229690476Y-76454819D02*
X230309523Y-76454819D01*
X230846842Y-76840428D02*
X230889700Y-76883285D01*
X230889700Y-76883285D02*
X230932557Y-77011857D01*
X230932557Y-77011857D02*
X230932557Y-77097571D01*
X230932557Y-77097571D02*
X230889700Y-77226142D01*
X230889700Y-77226142D02*
X230803985Y-77311857D01*
X230803985Y-77311857D02*
X230718271Y-77354714D01*
X230718271Y-77354714D02*
X230546842Y-77397571D01*
X230546842Y-77397571D02*
X230418271Y-77397571D01*
X230418271Y-77397571D02*
X230246842Y-77354714D01*
X230246842Y-77354714D02*
X230161128Y-77311857D01*
X230161128Y-77311857D02*
X230075414Y-77226142D01*
X230075414Y-77226142D02*
X230032557Y-77097571D01*
X230032557Y-77097571D02*
X230032557Y-77011857D01*
X230032557Y-77011857D02*
X230075414Y-76883285D01*
X230075414Y-76883285D02*
X230118271Y-76840428D01*
X230461128Y-83153857D02*
X230461128Y-82853857D01*
X230932557Y-82725285D02*
X230932557Y-83153857D01*
X230932557Y-83153857D02*
X230032557Y-83153857D01*
X230032557Y-83153857D02*
X230032557Y-82725285D01*
X230461128Y-79975714D02*
X230503985Y-79847142D01*
X230503985Y-79847142D02*
X230546842Y-79804285D01*
X230546842Y-79804285D02*
X230632557Y-79761428D01*
X230632557Y-79761428D02*
X230761128Y-79761428D01*
X230761128Y-79761428D02*
X230846842Y-79804285D01*
X230846842Y-79804285D02*
X230889700Y-79847142D01*
X230889700Y-79847142D02*
X230932557Y-79932857D01*
X230932557Y-79932857D02*
X230932557Y-80275714D01*
X230932557Y-80275714D02*
X230032557Y-80275714D01*
X230032557Y-80275714D02*
X230032557Y-79975714D01*
X230032557Y-79975714D02*
X230075414Y-79890000D01*
X230075414Y-79890000D02*
X230118271Y-79847142D01*
X230118271Y-79847142D02*
X230203985Y-79804285D01*
X230203985Y-79804285D02*
X230289700Y-79804285D01*
X230289700Y-79804285D02*
X230375414Y-79847142D01*
X230375414Y-79847142D02*
X230418271Y-79890000D01*
X230418271Y-79890000D02*
X230461128Y-79975714D01*
X230461128Y-79975714D02*
X230461128Y-80275714D01*
X209380952Y-63679819D02*
X208904762Y-63679819D01*
X208904762Y-63679819D02*
X208904762Y-62679819D01*
X209714286Y-63156009D02*
X210047619Y-63156009D01*
X210190476Y-63679819D02*
X209714286Y-63679819D01*
X209714286Y-63679819D02*
X209714286Y-62679819D01*
X209714286Y-62679819D02*
X210190476Y-62679819D01*
X210619048Y-63679819D02*
X210619048Y-62679819D01*
X210619048Y-62679819D02*
X210857143Y-62679819D01*
X210857143Y-62679819D02*
X211000000Y-62727438D01*
X211000000Y-62727438D02*
X211095238Y-62822676D01*
X211095238Y-62822676D02*
X211142857Y-62917914D01*
X211142857Y-62917914D02*
X211190476Y-63108390D01*
X211190476Y-63108390D02*
X211190476Y-63251247D01*
X211190476Y-63251247D02*
X211142857Y-63441723D01*
X211142857Y-63441723D02*
X211095238Y-63536961D01*
X211095238Y-63536961D02*
X211000000Y-63632200D01*
X211000000Y-63632200D02*
X210857143Y-63679819D01*
X210857143Y-63679819D02*
X210619048Y-63679819D01*
X211571429Y-62775057D02*
X211619048Y-62727438D01*
X211619048Y-62727438D02*
X211714286Y-62679819D01*
X211714286Y-62679819D02*
X211952381Y-62679819D01*
X211952381Y-62679819D02*
X212047619Y-62727438D01*
X212047619Y-62727438D02*
X212095238Y-62775057D01*
X212095238Y-62775057D02*
X212142857Y-62870295D01*
X212142857Y-62870295D02*
X212142857Y-62965533D01*
X212142857Y-62965533D02*
X212095238Y-63108390D01*
X212095238Y-63108390D02*
X211523810Y-63679819D01*
X211523810Y-63679819D02*
X212142857Y-63679819D01*
X209380952Y-76179819D02*
X208904762Y-76179819D01*
X208904762Y-76179819D02*
X208904762Y-75179819D01*
X209714286Y-75656009D02*
X210047619Y-75656009D01*
X210190476Y-76179819D02*
X209714286Y-76179819D01*
X209714286Y-76179819D02*
X209714286Y-75179819D01*
X209714286Y-75179819D02*
X210190476Y-75179819D01*
X210619048Y-76179819D02*
X210619048Y-75179819D01*
X210619048Y-75179819D02*
X210857143Y-75179819D01*
X210857143Y-75179819D02*
X211000000Y-75227438D01*
X211000000Y-75227438D02*
X211095238Y-75322676D01*
X211095238Y-75322676D02*
X211142857Y-75417914D01*
X211142857Y-75417914D02*
X211190476Y-75608390D01*
X211190476Y-75608390D02*
X211190476Y-75751247D01*
X211190476Y-75751247D02*
X211142857Y-75941723D01*
X211142857Y-75941723D02*
X211095238Y-76036961D01*
X211095238Y-76036961D02*
X211000000Y-76132200D01*
X211000000Y-76132200D02*
X210857143Y-76179819D01*
X210857143Y-76179819D02*
X210619048Y-76179819D01*
X212142857Y-76179819D02*
X211571429Y-76179819D01*
X211857143Y-76179819D02*
X211857143Y-75179819D01*
X211857143Y-75179819D02*
X211761905Y-75322676D01*
X211761905Y-75322676D02*
X211666667Y-75417914D01*
X211666667Y-75417914D02*
X211571429Y-75465533D01*
X199913333Y-62954819D02*
X199580000Y-62478628D01*
X199341905Y-62954819D02*
X199341905Y-61954819D01*
X199341905Y-61954819D02*
X199722857Y-61954819D01*
X199722857Y-61954819D02*
X199818095Y-62002438D01*
X199818095Y-62002438D02*
X199865714Y-62050057D01*
X199865714Y-62050057D02*
X199913333Y-62145295D01*
X199913333Y-62145295D02*
X199913333Y-62288152D01*
X199913333Y-62288152D02*
X199865714Y-62383390D01*
X199865714Y-62383390D02*
X199818095Y-62431009D01*
X199818095Y-62431009D02*
X199722857Y-62478628D01*
X199722857Y-62478628D02*
X199341905Y-62478628D01*
X200865714Y-62954819D02*
X200294286Y-62954819D01*
X200580000Y-62954819D02*
X200580000Y-61954819D01*
X200580000Y-61954819D02*
X200484762Y-62097676D01*
X200484762Y-62097676D02*
X200389524Y-62192914D01*
X200389524Y-62192914D02*
X200294286Y-62240533D01*
X219833333Y-79359580D02*
X219785714Y-79407200D01*
X219785714Y-79407200D02*
X219642857Y-79454819D01*
X219642857Y-79454819D02*
X219547619Y-79454819D01*
X219547619Y-79454819D02*
X219404762Y-79407200D01*
X219404762Y-79407200D02*
X219309524Y-79311961D01*
X219309524Y-79311961D02*
X219261905Y-79216723D01*
X219261905Y-79216723D02*
X219214286Y-79026247D01*
X219214286Y-79026247D02*
X219214286Y-78883390D01*
X219214286Y-78883390D02*
X219261905Y-78692914D01*
X219261905Y-78692914D02*
X219309524Y-78597676D01*
X219309524Y-78597676D02*
X219404762Y-78502438D01*
X219404762Y-78502438D02*
X219547619Y-78454819D01*
X219547619Y-78454819D02*
X219642857Y-78454819D01*
X219642857Y-78454819D02*
X219785714Y-78502438D01*
X219785714Y-78502438D02*
X219833333Y-78550057D01*
X220785714Y-79454819D02*
X220214286Y-79454819D01*
X220500000Y-79454819D02*
X220500000Y-78454819D01*
X220500000Y-78454819D02*
X220404762Y-78597676D01*
X220404762Y-78597676D02*
X220309524Y-78692914D01*
X220309524Y-78692914D02*
X220214286Y-78740533D01*
X199913333Y-77824819D02*
X199580000Y-77348628D01*
X199341905Y-77824819D02*
X199341905Y-76824819D01*
X199341905Y-76824819D02*
X199722857Y-76824819D01*
X199722857Y-76824819D02*
X199818095Y-76872438D01*
X199818095Y-76872438D02*
X199865714Y-76920057D01*
X199865714Y-76920057D02*
X199913333Y-77015295D01*
X199913333Y-77015295D02*
X199913333Y-77158152D01*
X199913333Y-77158152D02*
X199865714Y-77253390D01*
X199865714Y-77253390D02*
X199818095Y-77301009D01*
X199818095Y-77301009D02*
X199722857Y-77348628D01*
X199722857Y-77348628D02*
X199341905Y-77348628D01*
X200294286Y-76920057D02*
X200341905Y-76872438D01*
X200341905Y-76872438D02*
X200437143Y-76824819D01*
X200437143Y-76824819D02*
X200675238Y-76824819D01*
X200675238Y-76824819D02*
X200770476Y-76872438D01*
X200770476Y-76872438D02*
X200818095Y-76920057D01*
X200818095Y-76920057D02*
X200865714Y-77015295D01*
X200865714Y-77015295D02*
X200865714Y-77110533D01*
X200865714Y-77110533D02*
X200818095Y-77253390D01*
X200818095Y-77253390D02*
X200246667Y-77824819D01*
X200246667Y-77824819D02*
X200865714Y-77824819D01*
X219833333Y-59859580D02*
X219785714Y-59907200D01*
X219785714Y-59907200D02*
X219642857Y-59954819D01*
X219642857Y-59954819D02*
X219547619Y-59954819D01*
X219547619Y-59954819D02*
X219404762Y-59907200D01*
X219404762Y-59907200D02*
X219309524Y-59811961D01*
X219309524Y-59811961D02*
X219261905Y-59716723D01*
X219261905Y-59716723D02*
X219214286Y-59526247D01*
X219214286Y-59526247D02*
X219214286Y-59383390D01*
X219214286Y-59383390D02*
X219261905Y-59192914D01*
X219261905Y-59192914D02*
X219309524Y-59097676D01*
X219309524Y-59097676D02*
X219404762Y-59002438D01*
X219404762Y-59002438D02*
X219547619Y-58954819D01*
X219547619Y-58954819D02*
X219642857Y-58954819D01*
X219642857Y-58954819D02*
X219785714Y-59002438D01*
X219785714Y-59002438D02*
X219833333Y-59050057D01*
X220214286Y-59050057D02*
X220261905Y-59002438D01*
X220261905Y-59002438D02*
X220357143Y-58954819D01*
X220357143Y-58954819D02*
X220595238Y-58954819D01*
X220595238Y-58954819D02*
X220690476Y-59002438D01*
X220690476Y-59002438D02*
X220738095Y-59050057D01*
X220738095Y-59050057D02*
X220785714Y-59145295D01*
X220785714Y-59145295D02*
X220785714Y-59240533D01*
X220785714Y-59240533D02*
X220738095Y-59383390D01*
X220738095Y-59383390D02*
X220166667Y-59954819D01*
X220166667Y-59954819D02*
X220785714Y-59954819D01*
X229904761Y-64550057D02*
X229809523Y-64502438D01*
X229809523Y-64502438D02*
X229714285Y-64407200D01*
X229714285Y-64407200D02*
X229571428Y-64264342D01*
X229571428Y-64264342D02*
X229476190Y-64216723D01*
X229476190Y-64216723D02*
X229380952Y-64216723D01*
X229428571Y-64454819D02*
X229333333Y-64407200D01*
X229333333Y-64407200D02*
X229238095Y-64311961D01*
X229238095Y-64311961D02*
X229190476Y-64121485D01*
X229190476Y-64121485D02*
X229190476Y-63788152D01*
X229190476Y-63788152D02*
X229238095Y-63597676D01*
X229238095Y-63597676D02*
X229333333Y-63502438D01*
X229333333Y-63502438D02*
X229428571Y-63454819D01*
X229428571Y-63454819D02*
X229619047Y-63454819D01*
X229619047Y-63454819D02*
X229714285Y-63502438D01*
X229714285Y-63502438D02*
X229809523Y-63597676D01*
X229809523Y-63597676D02*
X229857142Y-63788152D01*
X229857142Y-63788152D02*
X229857142Y-64121485D01*
X229857142Y-64121485D02*
X229809523Y-64311961D01*
X229809523Y-64311961D02*
X229714285Y-64407200D01*
X229714285Y-64407200D02*
X229619047Y-64454819D01*
X229619047Y-64454819D02*
X229428571Y-64454819D01*
X230809523Y-64454819D02*
X230238095Y-64454819D01*
X230523809Y-64454819D02*
X230523809Y-63454819D01*
X230523809Y-63454819D02*
X230428571Y-63597676D01*
X230428571Y-63597676D02*
X230333333Y-63692914D01*
X230333333Y-63692914D02*
X230238095Y-63740533D01*
X231346842Y-56260428D02*
X231389700Y-56303285D01*
X231389700Y-56303285D02*
X231432557Y-56431857D01*
X231432557Y-56431857D02*
X231432557Y-56517571D01*
X231432557Y-56517571D02*
X231389700Y-56646142D01*
X231389700Y-56646142D02*
X231303985Y-56731857D01*
X231303985Y-56731857D02*
X231218271Y-56774714D01*
X231218271Y-56774714D02*
X231046842Y-56817571D01*
X231046842Y-56817571D02*
X230918271Y-56817571D01*
X230918271Y-56817571D02*
X230746842Y-56774714D01*
X230746842Y-56774714D02*
X230661128Y-56731857D01*
X230661128Y-56731857D02*
X230575414Y-56646142D01*
X230575414Y-56646142D02*
X230532557Y-56517571D01*
X230532557Y-56517571D02*
X230532557Y-56431857D01*
X230532557Y-56431857D02*
X230575414Y-56303285D01*
X230575414Y-56303285D02*
X230618271Y-56260428D01*
X230961128Y-62573857D02*
X230961128Y-62273857D01*
X231432557Y-62145285D02*
X231432557Y-62573857D01*
X231432557Y-62573857D02*
X230532557Y-62573857D01*
X230532557Y-62573857D02*
X230532557Y-62145285D01*
X230961128Y-59435714D02*
X231003985Y-59307142D01*
X231003985Y-59307142D02*
X231046842Y-59264285D01*
X231046842Y-59264285D02*
X231132557Y-59221428D01*
X231132557Y-59221428D02*
X231261128Y-59221428D01*
X231261128Y-59221428D02*
X231346842Y-59264285D01*
X231346842Y-59264285D02*
X231389700Y-59307142D01*
X231389700Y-59307142D02*
X231432557Y-59392857D01*
X231432557Y-59392857D02*
X231432557Y-59735714D01*
X231432557Y-59735714D02*
X230532557Y-59735714D01*
X230532557Y-59735714D02*
X230532557Y-59435714D01*
X230532557Y-59435714D02*
X230575414Y-59350000D01*
X230575414Y-59350000D02*
X230618271Y-59307142D01*
X230618271Y-59307142D02*
X230703985Y-59264285D01*
X230703985Y-59264285D02*
X230789700Y-59264285D01*
X230789700Y-59264285D02*
X230875414Y-59307142D01*
X230875414Y-59307142D02*
X230918271Y-59350000D01*
X230918271Y-59350000D02*
X230961128Y-59435714D01*
X230961128Y-59435714D02*
X230961128Y-59735714D01*
D13*
%TO.C,U1*%
X186613418Y-72578100D02*
X186613418Y-67421900D01*
X186613418Y-72578100D02*
X182177818Y-72578100D01*
X186613418Y-67421900D02*
X182177818Y-67421900D01*
X184987818Y-67000000D02*
X184987818Y-66000000D01*
X184487818Y-66500000D02*
X185487818Y-66500000D01*
X182177818Y-72578100D02*
G75*
G02*
X182177818Y-67421900I-7172200J2578100D01*
G01*
%TO.C,Q2*%
X227150000Y-78240000D02*
X227150000Y-81840000D01*
X227877205Y-82364184D02*
G75*
G02*
X227150000Y-81840000I1122795J2324184D01*
G01*
X227150000Y-78240000D02*
G75*
G02*
X227877205Y-77715816I1850000J-1800000D01*
G01*
X230098807Y-77683600D02*
G75*
G02*
X231600000Y-80040000I-1098807J-2356400D01*
G01*
X231600000Y-80040000D02*
G75*
G02*
X230098807Y-82396400I-2600000J0D01*
G01*
%TO.C,LED2*%
X212151000Y-60566500D02*
X211897000Y-60566500D01*
X212151000Y-60312500D01*
X212151000Y-60566500D01*
G36*
X212151000Y-60566500D02*
G01*
X211897000Y-60566500D01*
X212151000Y-60312500D01*
X212151000Y-60566500D01*
G37*
X211071500Y-60312500D02*
X209928500Y-60312500D01*
X210500000Y-59677500D01*
X211071500Y-60312500D01*
G36*
X211071500Y-60312500D02*
G01*
X209928500Y-60312500D01*
X210500000Y-59677500D01*
X211071500Y-60312500D01*
G37*
X212151000Y-59931500D02*
X211897000Y-59931500D01*
X212151000Y-59677500D01*
X212151000Y-59931500D01*
G36*
X212151000Y-59931500D02*
G01*
X211897000Y-59931500D01*
X212151000Y-59677500D01*
X212151000Y-59931500D01*
G37*
X209421392Y-61667335D02*
G75*
G02*
X209264484Y-58435000I1078608J1672335D01*
G01*
X211735516Y-58435000D02*
G75*
G02*
X211578608Y-61667335I-1235516J-1560000D01*
G01*
X211643000Y-60058500D02*
X212151000Y-60566500D01*
X211071500Y-59677500D02*
X209928500Y-59677500D01*
X211643000Y-59423500D02*
X212151000Y-59931500D01*
X209450000Y-58435000D02*
X209264000Y-58435000D01*
X211736000Y-58435000D02*
X211550000Y-58435000D01*
%TO.C,LED1*%
X209264000Y-80790000D02*
X209450000Y-80790000D01*
X211550000Y-80790000D02*
X211736000Y-80790000D01*
X209357000Y-79801500D02*
X208849000Y-79293500D01*
X209928500Y-79547500D02*
X211071500Y-79547500D01*
X209357000Y-79166500D02*
X208849000Y-78658500D01*
X209264484Y-80790000D02*
G75*
G02*
X209421392Y-77557665I1235516J1560000D01*
G01*
X211578608Y-77557665D02*
G75*
G02*
X211735516Y-80790000I-1078608J-1672335D01*
G01*
X208849000Y-79547500D02*
X208849000Y-79293500D01*
X209103000Y-79293500D01*
X208849000Y-79547500D01*
G36*
X208849000Y-79547500D02*
G01*
X208849000Y-79293500D01*
X209103000Y-79293500D01*
X208849000Y-79547500D01*
G37*
X210500000Y-79547500D02*
X209928500Y-78912500D01*
X211071500Y-78912500D01*
X210500000Y-79547500D01*
G36*
X210500000Y-79547500D02*
G01*
X209928500Y-78912500D01*
X211071500Y-78912500D01*
X210500000Y-79547500D01*
G37*
X208849000Y-78912500D02*
X208849000Y-78658500D01*
X209103000Y-78658500D01*
X208849000Y-78912500D01*
G36*
X208849000Y-78912500D02*
G01*
X208849000Y-78658500D01*
X209103000Y-78658500D01*
X208849000Y-78912500D01*
G37*
%TO.C,R1*%
X204120000Y-65000000D02*
X203350000Y-65000000D01*
X203350000Y-66370000D02*
X203350000Y-63630000D01*
X203350000Y-63630000D02*
X196810000Y-63630000D01*
X196810000Y-66370000D02*
X203350000Y-66370000D01*
X196810000Y-63630000D02*
X196810000Y-66370000D01*
X196040000Y-65000000D02*
X196810000Y-65000000D01*
%TO.C,C1*%
X218161000Y-78250241D02*
X218161000Y-77620241D01*
X217846000Y-77935241D02*
X218476000Y-77935241D01*
X216770000Y-74750000D02*
X223230000Y-74750000D01*
X216770000Y-74710000D02*
X223230000Y-74710000D01*
X216770000Y-74670000D02*
X223230000Y-74670000D01*
X216772000Y-74630000D02*
X223228000Y-74630000D01*
X216773000Y-74590000D02*
X223227000Y-74590000D01*
X216776000Y-74550000D02*
X223224000Y-74550000D01*
X216778000Y-74510000D02*
X218960000Y-74510000D01*
X221040000Y-74510000D02*
X223222000Y-74510000D01*
X216782000Y-74470000D02*
X218960000Y-74470000D01*
X221040000Y-74470000D02*
X223218000Y-74470000D01*
X216785000Y-74430000D02*
X218960000Y-74430000D01*
X221040000Y-74430000D02*
X223215000Y-74430000D01*
X216789000Y-74390000D02*
X218960000Y-74390000D01*
X221040000Y-74390000D02*
X223211000Y-74390000D01*
X216794000Y-74350000D02*
X218960000Y-74350000D01*
X221040000Y-74350000D02*
X223206000Y-74350000D01*
X216799000Y-74310000D02*
X218960000Y-74310000D01*
X221040000Y-74310000D02*
X223201000Y-74310000D01*
X216805000Y-74270000D02*
X218960000Y-74270000D01*
X221040000Y-74270000D02*
X223195000Y-74270000D01*
X216811000Y-74230000D02*
X218960000Y-74230000D01*
X221040000Y-74230000D02*
X223189000Y-74230000D01*
X216818000Y-74190000D02*
X218960000Y-74190000D01*
X221040000Y-74190000D02*
X223182000Y-74190000D01*
X216825000Y-74150000D02*
X218960000Y-74150000D01*
X221040000Y-74150000D02*
X223175000Y-74150000D01*
X216833000Y-74110000D02*
X218960000Y-74110000D01*
X221040000Y-74110000D02*
X223167000Y-74110000D01*
X216841000Y-74070000D02*
X218960000Y-74070000D01*
X221040000Y-74070000D02*
X223159000Y-74070000D01*
X216850000Y-74029000D02*
X218960000Y-74029000D01*
X221040000Y-74029000D02*
X223150000Y-74029000D01*
X216859000Y-73989000D02*
X218960000Y-73989000D01*
X221040000Y-73989000D02*
X223141000Y-73989000D01*
X216869000Y-73949000D02*
X218960000Y-73949000D01*
X221040000Y-73949000D02*
X223131000Y-73949000D01*
X216879000Y-73909000D02*
X218960000Y-73909000D01*
X221040000Y-73909000D02*
X223121000Y-73909000D01*
X216890000Y-73869000D02*
X218960000Y-73869000D01*
X221040000Y-73869000D02*
X223110000Y-73869000D01*
X216902000Y-73829000D02*
X218960000Y-73829000D01*
X221040000Y-73829000D02*
X223098000Y-73829000D01*
X216914000Y-73789000D02*
X218960000Y-73789000D01*
X221040000Y-73789000D02*
X223086000Y-73789000D01*
X216926000Y-73749000D02*
X218960000Y-73749000D01*
X221040000Y-73749000D02*
X223074000Y-73749000D01*
X216939000Y-73709000D02*
X218960000Y-73709000D01*
X221040000Y-73709000D02*
X223061000Y-73709000D01*
X216953000Y-73669000D02*
X218960000Y-73669000D01*
X221040000Y-73669000D02*
X223047000Y-73669000D01*
X216967000Y-73629000D02*
X218960000Y-73629000D01*
X221040000Y-73629000D02*
X223033000Y-73629000D01*
X216982000Y-73589000D02*
X218960000Y-73589000D01*
X221040000Y-73589000D02*
X223018000Y-73589000D01*
X216998000Y-73549000D02*
X218960000Y-73549000D01*
X221040000Y-73549000D02*
X223002000Y-73549000D01*
X217014000Y-73509000D02*
X218960000Y-73509000D01*
X221040000Y-73509000D02*
X222986000Y-73509000D01*
X217030000Y-73469000D02*
X218960000Y-73469000D01*
X221040000Y-73469000D02*
X222970000Y-73469000D01*
X217048000Y-73429000D02*
X218960000Y-73429000D01*
X221040000Y-73429000D02*
X222952000Y-73429000D01*
X217066000Y-73389000D02*
X218960000Y-73389000D01*
X221040000Y-73389000D02*
X222934000Y-73389000D01*
X217084000Y-73349000D02*
X218960000Y-73349000D01*
X221040000Y-73349000D02*
X222916000Y-73349000D01*
X217104000Y-73309000D02*
X218960000Y-73309000D01*
X221040000Y-73309000D02*
X222896000Y-73309000D01*
X217124000Y-73269000D02*
X218960000Y-73269000D01*
X221040000Y-73269000D02*
X222876000Y-73269000D01*
X217144000Y-73229000D02*
X218960000Y-73229000D01*
X221040000Y-73229000D02*
X222856000Y-73229000D01*
X217166000Y-73189000D02*
X218960000Y-73189000D01*
X221040000Y-73189000D02*
X222834000Y-73189000D01*
X217188000Y-73149000D02*
X218960000Y-73149000D01*
X221040000Y-73149000D02*
X222812000Y-73149000D01*
X217210000Y-73109000D02*
X218960000Y-73109000D01*
X221040000Y-73109000D02*
X222790000Y-73109000D01*
X217234000Y-73069000D02*
X218960000Y-73069000D01*
X221040000Y-73069000D02*
X222766000Y-73069000D01*
X217258000Y-73029000D02*
X218960000Y-73029000D01*
X221040000Y-73029000D02*
X222742000Y-73029000D01*
X217284000Y-72989000D02*
X218960000Y-72989000D01*
X221040000Y-72989000D02*
X222716000Y-72989000D01*
X217310000Y-72949000D02*
X218960000Y-72949000D01*
X221040000Y-72949000D02*
X222690000Y-72949000D01*
X217336000Y-72909000D02*
X218960000Y-72909000D01*
X221040000Y-72909000D02*
X222664000Y-72909000D01*
X217364000Y-72869000D02*
X218960000Y-72869000D01*
X221040000Y-72869000D02*
X222636000Y-72869000D01*
X217393000Y-72829000D02*
X218960000Y-72829000D01*
X221040000Y-72829000D02*
X222607000Y-72829000D01*
X217422000Y-72789000D02*
X218960000Y-72789000D01*
X221040000Y-72789000D02*
X222578000Y-72789000D01*
X217452000Y-72749000D02*
X218960000Y-72749000D01*
X221040000Y-72749000D02*
X222548000Y-72749000D01*
X217484000Y-72709000D02*
X218960000Y-72709000D01*
X221040000Y-72709000D02*
X222516000Y-72709000D01*
X217516000Y-72669000D02*
X218960000Y-72669000D01*
X221040000Y-72669000D02*
X222484000Y-72669000D01*
X217550000Y-72629000D02*
X218960000Y-72629000D01*
X221040000Y-72629000D02*
X222450000Y-72629000D01*
X217584000Y-72589000D02*
X218960000Y-72589000D01*
X221040000Y-72589000D02*
X222416000Y-72589000D01*
X217620000Y-72549000D02*
X218960000Y-72549000D01*
X221040000Y-72549000D02*
X222380000Y-72549000D01*
X217657000Y-72509000D02*
X218960000Y-72509000D01*
X221040000Y-72509000D02*
X222343000Y-72509000D01*
X217695000Y-72469000D02*
X218960000Y-72469000D01*
X221040000Y-72469000D02*
X222305000Y-72469000D01*
X217735000Y-72429000D02*
X222265000Y-72429000D01*
X217776000Y-72389000D02*
X222224000Y-72389000D01*
X217818000Y-72349000D02*
X222182000Y-72349000D01*
X217863000Y-72309000D02*
X222137000Y-72309000D01*
X217908000Y-72269000D02*
X222092000Y-72269000D01*
X217956000Y-72229000D02*
X222044000Y-72229000D01*
X218005000Y-72189000D02*
X221995000Y-72189000D01*
X218056000Y-72149000D02*
X221944000Y-72149000D01*
X218110000Y-72109000D02*
X221890000Y-72109000D01*
X218166000Y-72069000D02*
X221834000Y-72069000D01*
X218224000Y-72029000D02*
X221776000Y-72029000D01*
X218286000Y-71989000D02*
X221714000Y-71989000D01*
X218350000Y-71949000D02*
X221650000Y-71949000D01*
X218419000Y-71909000D02*
X221581000Y-71909000D01*
X218491000Y-71869000D02*
X221509000Y-71869000D01*
X218568000Y-71829000D02*
X221432000Y-71829000D01*
X218650000Y-71789000D02*
X221350000Y-71789000D01*
X218738000Y-71749000D02*
X221262000Y-71749000D01*
X218835000Y-71709000D02*
X221165000Y-71709000D01*
X218941000Y-71669000D02*
X221059000Y-71669000D01*
X219060000Y-71629000D02*
X220940000Y-71629000D01*
X219198000Y-71589000D02*
X220802000Y-71589000D01*
X219367000Y-71549000D02*
X220633000Y-71549000D01*
X219598000Y-71509000D02*
X220402000Y-71509000D01*
X223270000Y-74750000D02*
G75*
G02*
X216730000Y-74750000I-3270000J0D01*
G01*
X216730000Y-74750000D02*
G75*
G02*
X223270000Y-74750000I3270000J0D01*
G01*
%TO.C,R2*%
X196040000Y-75000000D02*
X196810000Y-75000000D01*
X196810000Y-73630000D02*
X196810000Y-76370000D01*
X196810000Y-76370000D02*
X203350000Y-76370000D01*
X203350000Y-73630000D02*
X196810000Y-73630000D01*
X203350000Y-76370000D02*
X203350000Y-73630000D01*
X204120000Y-75000000D02*
X203350000Y-75000000D01*
%TO.C,C2*%
X219598000Y-60509000D02*
X220402000Y-60509000D01*
X219367000Y-60549000D02*
X220633000Y-60549000D01*
X219198000Y-60589000D02*
X220802000Y-60589000D01*
X219060000Y-60629000D02*
X220940000Y-60629000D01*
X218941000Y-60669000D02*
X221059000Y-60669000D01*
X218835000Y-60709000D02*
X221165000Y-60709000D01*
X218738000Y-60749000D02*
X221262000Y-60749000D01*
X218650000Y-60789000D02*
X221350000Y-60789000D01*
X218568000Y-60829000D02*
X221432000Y-60829000D01*
X218491000Y-60869000D02*
X221509000Y-60869000D01*
X218419000Y-60909000D02*
X221581000Y-60909000D01*
X218350000Y-60949000D02*
X221650000Y-60949000D01*
X218286000Y-60989000D02*
X221714000Y-60989000D01*
X218224000Y-61029000D02*
X221776000Y-61029000D01*
X218166000Y-61069000D02*
X221834000Y-61069000D01*
X218110000Y-61109000D02*
X221890000Y-61109000D01*
X218056000Y-61149000D02*
X221944000Y-61149000D01*
X218005000Y-61189000D02*
X221995000Y-61189000D01*
X217956000Y-61229000D02*
X222044000Y-61229000D01*
X217908000Y-61269000D02*
X222092000Y-61269000D01*
X217863000Y-61309000D02*
X222137000Y-61309000D01*
X217818000Y-61349000D02*
X222182000Y-61349000D01*
X217776000Y-61389000D02*
X222224000Y-61389000D01*
X217735000Y-61429000D02*
X222265000Y-61429000D01*
X221040000Y-61469000D02*
X222305000Y-61469000D01*
X217695000Y-61469000D02*
X218960000Y-61469000D01*
X221040000Y-61509000D02*
X222343000Y-61509000D01*
X217657000Y-61509000D02*
X218960000Y-61509000D01*
X221040000Y-61549000D02*
X222380000Y-61549000D01*
X217620000Y-61549000D02*
X218960000Y-61549000D01*
X221040000Y-61589000D02*
X222416000Y-61589000D01*
X217584000Y-61589000D02*
X218960000Y-61589000D01*
X221040000Y-61629000D02*
X222450000Y-61629000D01*
X217550000Y-61629000D02*
X218960000Y-61629000D01*
X221040000Y-61669000D02*
X222484000Y-61669000D01*
X217516000Y-61669000D02*
X218960000Y-61669000D01*
X221040000Y-61709000D02*
X222516000Y-61709000D01*
X217484000Y-61709000D02*
X218960000Y-61709000D01*
X221040000Y-61749000D02*
X222548000Y-61749000D01*
X217452000Y-61749000D02*
X218960000Y-61749000D01*
X221040000Y-61789000D02*
X222578000Y-61789000D01*
X217422000Y-61789000D02*
X218960000Y-61789000D01*
X221040000Y-61829000D02*
X222607000Y-61829000D01*
X217393000Y-61829000D02*
X218960000Y-61829000D01*
X221040000Y-61869000D02*
X222636000Y-61869000D01*
X217364000Y-61869000D02*
X218960000Y-61869000D01*
X221040000Y-61909000D02*
X222664000Y-61909000D01*
X217336000Y-61909000D02*
X218960000Y-61909000D01*
X221040000Y-61949000D02*
X222690000Y-61949000D01*
X217310000Y-61949000D02*
X218960000Y-61949000D01*
X221040000Y-61989000D02*
X222716000Y-61989000D01*
X217284000Y-61989000D02*
X218960000Y-61989000D01*
X221040000Y-62029000D02*
X222742000Y-62029000D01*
X217258000Y-62029000D02*
X218960000Y-62029000D01*
X221040000Y-62069000D02*
X222766000Y-62069000D01*
X217234000Y-62069000D02*
X218960000Y-62069000D01*
X221040000Y-62109000D02*
X222790000Y-62109000D01*
X217210000Y-62109000D02*
X218960000Y-62109000D01*
X221040000Y-62149000D02*
X222812000Y-62149000D01*
X217188000Y-62149000D02*
X218960000Y-62149000D01*
X221040000Y-62189000D02*
X222834000Y-62189000D01*
X217166000Y-62189000D02*
X218960000Y-62189000D01*
X221040000Y-62229000D02*
X222856000Y-62229000D01*
X217144000Y-62229000D02*
X218960000Y-62229000D01*
X221040000Y-62269000D02*
X222876000Y-62269000D01*
X217124000Y-62269000D02*
X218960000Y-62269000D01*
X221040000Y-62309000D02*
X222896000Y-62309000D01*
X217104000Y-62309000D02*
X218960000Y-62309000D01*
X221040000Y-62349000D02*
X222916000Y-62349000D01*
X217084000Y-62349000D02*
X218960000Y-62349000D01*
X221040000Y-62389000D02*
X222934000Y-62389000D01*
X217066000Y-62389000D02*
X218960000Y-62389000D01*
X221040000Y-62429000D02*
X222952000Y-62429000D01*
X217048000Y-62429000D02*
X218960000Y-62429000D01*
X221040000Y-62469000D02*
X222970000Y-62469000D01*
X217030000Y-62469000D02*
X218960000Y-62469000D01*
X221040000Y-62509000D02*
X222986000Y-62509000D01*
X217014000Y-62509000D02*
X218960000Y-62509000D01*
X221040000Y-62549000D02*
X223002000Y-62549000D01*
X216998000Y-62549000D02*
X218960000Y-62549000D01*
X221040000Y-62589000D02*
X223018000Y-62589000D01*
X216982000Y-62589000D02*
X218960000Y-62589000D01*
X221040000Y-62629000D02*
X223033000Y-62629000D01*
X216967000Y-62629000D02*
X218960000Y-62629000D01*
X221040000Y-62669000D02*
X223047000Y-62669000D01*
X216953000Y-62669000D02*
X218960000Y-62669000D01*
X221040000Y-62709000D02*
X223061000Y-62709000D01*
X216939000Y-62709000D02*
X218960000Y-62709000D01*
X221040000Y-62749000D02*
X223074000Y-62749000D01*
X216926000Y-62749000D02*
X218960000Y-62749000D01*
X221040000Y-62789000D02*
X223086000Y-62789000D01*
X216914000Y-62789000D02*
X218960000Y-62789000D01*
X221040000Y-62829000D02*
X223098000Y-62829000D01*
X216902000Y-62829000D02*
X218960000Y-62829000D01*
X221040000Y-62869000D02*
X223110000Y-62869000D01*
X216890000Y-62869000D02*
X218960000Y-62869000D01*
X221040000Y-62909000D02*
X223121000Y-62909000D01*
X216879000Y-62909000D02*
X218960000Y-62909000D01*
X221040000Y-62949000D02*
X223131000Y-62949000D01*
X216869000Y-62949000D02*
X218960000Y-62949000D01*
X221040000Y-62989000D02*
X223141000Y-62989000D01*
X216859000Y-62989000D02*
X218960000Y-62989000D01*
X221040000Y-63029000D02*
X223150000Y-63029000D01*
X216850000Y-63029000D02*
X218960000Y-63029000D01*
X221040000Y-63070000D02*
X223159000Y-63070000D01*
X216841000Y-63070000D02*
X218960000Y-63070000D01*
X221040000Y-63110000D02*
X223167000Y-63110000D01*
X216833000Y-63110000D02*
X218960000Y-63110000D01*
X221040000Y-63150000D02*
X223175000Y-63150000D01*
X216825000Y-63150000D02*
X218960000Y-63150000D01*
X221040000Y-63190000D02*
X223182000Y-63190000D01*
X216818000Y-63190000D02*
X218960000Y-63190000D01*
X221040000Y-63230000D02*
X223189000Y-63230000D01*
X216811000Y-63230000D02*
X218960000Y-63230000D01*
X221040000Y-63270000D02*
X223195000Y-63270000D01*
X216805000Y-63270000D02*
X218960000Y-63270000D01*
X221040000Y-63310000D02*
X223201000Y-63310000D01*
X216799000Y-63310000D02*
X218960000Y-63310000D01*
X221040000Y-63350000D02*
X223206000Y-63350000D01*
X216794000Y-63350000D02*
X218960000Y-63350000D01*
X221040000Y-63390000D02*
X223211000Y-63390000D01*
X216789000Y-63390000D02*
X218960000Y-63390000D01*
X221040000Y-63430000D02*
X223215000Y-63430000D01*
X216785000Y-63430000D02*
X218960000Y-63430000D01*
X221040000Y-63470000D02*
X223218000Y-63470000D01*
X216782000Y-63470000D02*
X218960000Y-63470000D01*
X221040000Y-63510000D02*
X223222000Y-63510000D01*
X216778000Y-63510000D02*
X218960000Y-63510000D01*
X216776000Y-63550000D02*
X223224000Y-63550000D01*
X216773000Y-63590000D02*
X223227000Y-63590000D01*
X216772000Y-63630000D02*
X223228000Y-63630000D01*
X216770000Y-63670000D02*
X223230000Y-63670000D01*
X216770000Y-63710000D02*
X223230000Y-63710000D01*
X216770000Y-63750000D02*
X223230000Y-63750000D01*
X217846000Y-66935241D02*
X218476000Y-66935241D01*
X218161000Y-67250241D02*
X218161000Y-66620241D01*
X223270000Y-63750000D02*
G75*
G02*
X216730000Y-63750000I-3270000J0D01*
G01*
X216730000Y-63750000D02*
G75*
G02*
X223270000Y-63750000I3270000J0D01*
G01*
%TO.C,Q1*%
X227650000Y-57660000D02*
X227650000Y-61260000D01*
X230598807Y-57103600D02*
G75*
G02*
X232100000Y-59460000I-1098807J-2356400D01*
G01*
X227650000Y-57660000D02*
G75*
G02*
X228377205Y-57135816I1850000J-1800000D01*
G01*
X232100000Y-59460000D02*
G75*
G02*
X230598807Y-61816400I-2600000J0D01*
G01*
X228377205Y-61784184D02*
G75*
G02*
X227650000Y-61260000I1122795J2324184D01*
G01*
%TD*%
M02*
